solid OpenSCAD_Model
  facet normal 0.995182 0.0980463 0
    outer loop
      vertex 2.49465 0.163507 22
      vertex 2.47861 0.326315 0
      vertex 2.47861 0.326315 22
    endloop
  endfacet
  facet normal 0.995182 0.0980463 0
    outer loop
      vertex 2.47861 0.326315 0
      vertex 2.49465 0.163507 22
      vertex 2.49465 0.163507 0
    endloop
  endfacet
  facet normal 0.995182 0.0980463 0
    outer loop
      vertex 2.49465 0.163507 114
      vertex 2.47861 0.326315 102
      vertex 2.47861 0.326315 114
    endloop
  endfacet
  facet normal 0.995182 0.0980463 0
    outer loop
      vertex 2.47861 0.326315 102
      vertex 2.49465 0.163507 114
      vertex 2.49465 0.163507 102
    endloop
  endfacet
  facet normal 0.999465 0.0327028 0
    outer loop
      vertex 2.5 0 22
      vertex 2.49465 0.163507 0
      vertex 2.49465 0.163507 22
    endloop
  endfacet
  facet normal 0.999465 0.0327028 0
    outer loop
      vertex 2.49465 0.163507 0
      vertex 2.5 0 22
      vertex 2.5 0 0
    endloop
  endfacet
  facet normal 0.999465 0.0327028 0
    outer loop
      vertex 2.5 0 114
      vertex 2.49465 0.163507 102
      vertex 2.49465 0.163507 114
    endloop
  endfacet
  facet normal 0.999465 0.0327028 0
    outer loop
      vertex 2.49465 0.163507 102
      vertex 2.5 0 114
      vertex 2.5 0 102
    endloop
  endfacet
  facet normal -0.290289 0.956939 0
    outer loop
      vertex -0.647047 2.41481 0
      vertex -0.803598 2.36732 114
      vertex -0.647047 2.41481 114
    endloop
  endfacet
  facet normal -0.290289 0.956939 0
    outer loop
      vertex -0.803598 2.36732 114
      vertex -0.647047 2.41481 0
      vertex -0.803598 2.36732 0
    endloop
  endfacet
  facet normal -0.634382 0.77302 0
    outer loop
      vertex -1.5219 1.98338 0
      vertex -1.64836 1.8796 114
      vertex -1.5219 1.98338 114
    endloop
  endfacet
  facet normal -0.634382 0.77302 0
    outer loop
      vertex -1.64836 1.8796 114
      vertex -1.5219 1.98338 0
      vertex -1.64836 1.8796 0
    endloop
  endfacet
  facet normal 0.935919 -0.352215 0
    outer loop
      vertex 2.3097 -0.956708 22
      vertex 2.36732 -0.803598 0
      vertex 2.36732 -0.803598 22
    endloop
  endfacet
  facet normal 0.935919 -0.352215 0
    outer loop
      vertex 2.36732 -0.803598 0
      vertex 2.3097 -0.956708 22
      vertex 2.3097 -0.956708 0
    endloop
  endfacet
  facet normal 0.935919 -0.352215 0
    outer loop
      vertex 2.3097 -0.956708 114
      vertex 2.36732 -0.803598 102
      vertex 2.36732 -0.803598 114
    endloop
  endfacet
  facet normal 0.935919 -0.352215 0
    outer loop
      vertex 2.36732 -0.803598 102
      vertex 2.3097 -0.956708 114
      vertex 2.3097 -0.956708 102
    endloop
  endfacet
  facet normal 0.0327028 0.999465 -0
    outer loop
      vertex 0.163507 2.49465 0
      vertex 0 2.5 114
      vertex 0.163507 2.49465 114
    endloop
  endfacet
  facet normal 0.0327028 0.999465 0
    outer loop
      vertex 0 2.5 114
      vertex 0.163507 2.49465 0
      vertex 0 2.5 0
    endloop
  endfacet
  facet normal 0.227084 -0.973875 0
    outer loop
      vertex 0.487725 -2.45196 0
      vertex 0.647047 -2.41481 114
      vertex 0.487725 -2.45196 114
    endloop
  endfacet
  facet normal 0.227084 -0.973875 0
    outer loop
      vertex 0.647047 -2.41481 114
      vertex 0.487725 -2.45196 0
      vertex 0.647047 -2.41481 0
    endloop
  endfacet
  facet normal 0.412725 -0.910856 0
    outer loop
      vertex 0.956708 -2.3097 0
      vertex 1.10572 -2.24218 114
      vertex 0.956708 -2.3097 114
    endloop
  endfacet
  facet normal 0.412725 -0.910856 0
    outer loop
      vertex 1.10572 -2.24218 114
      vertex 0.956708 -2.3097 0
      vertex 1.10572 -2.24218 0
    endloop
  endfacet
  facet normal -0.0980463 -0.995182 0
    outer loop
      vertex -0.326315 -2.47861 0
      vertex -0.163507 -2.49465 114
      vertex -0.326315 -2.47861 114
    endloop
  endfacet
  facet normal -0.0980463 -0.995182 -0
    outer loop
      vertex -0.163507 -2.49465 114
      vertex -0.326315 -2.47861 0
      vertex -0.163507 -2.49465 0
    endloop
  endfacet
  facet normal 0.352215 0.935919 -0
    outer loop
      vertex 0.956708 2.3097 0
      vertex 0.803598 2.36732 114
      vertex 0.956708 2.3097 114
    endloop
  endfacet
  facet normal 0.352215 0.935919 0
    outer loop
      vertex 0.803598 2.36732 114
      vertex 0.956708 2.3097 0
      vertex 0.803598 2.36732 0
    endloop
  endfacet
  facet normal 0.162902 -0.986642 0
    outer loop
      vertex 0.326315 -2.47861 0
      vertex 0.487725 -2.45196 114
      vertex 0.326315 -2.47861 114
    endloop
  endfacet
  facet normal 0.162902 -0.986642 0
    outer loop
      vertex 0.487725 -2.45196 114
      vertex 0.326315 -2.47861 0
      vertex 0.487725 -2.45196 0
    endloop
  endfacet
  facet normal 0.973875 0.227084 0
    outer loop
      vertex 2.45196 0.487725 22
      vertex 2.41481 0.647047 0
      vertex 2.41481 0.647047 22
    endloop
  endfacet
  facet normal 0.973875 0.227084 0
    outer loop
      vertex 2.41481 0.647047 0
      vertex 2.45196 0.487725 22
      vertex 2.45196 0.487725 0
    endloop
  endfacet
  facet normal 0.973875 0.227084 0
    outer loop
      vertex 2.45196 0.487725 114
      vertex 2.41481 0.647047 102
      vertex 2.41481 0.647047 114
    endloop
  endfacet
  facet normal 0.973875 0.227084 0
    outer loop
      vertex 2.41481 0.647047 102
      vertex 2.45196 0.487725 114
      vertex 2.45196 0.487725 102
    endloop
  endfacet
  facet normal -0.352215 0.935919 0
    outer loop
      vertex -0.803598 2.36732 0
      vertex -0.956708 2.3097 114
      vertex -0.803598 2.36732 114
    endloop
  endfacet
  facet normal -0.352215 0.935919 0
    outer loop
      vertex -0.956708 2.3097 114
      vertex -0.803598 2.36732 0
      vertex -0.956708 2.3097 0
    endloop
  endfacet
  facet normal 0.849208 -0.528058 0
    outer loop
      vertex 2.07867 -1.38893 22
      vertex 2.16506 -1.25 0
      vertex 2.16506 -1.25 22
    endloop
  endfacet
  facet normal 0.849208 -0.528058 0
    outer loop
      vertex 2.16506 -1.25 0
      vertex 2.07867 -1.38893 22
      vertex 2.07867 -1.38893 0
    endloop
  endfacet
  facet normal 0.849208 -0.528058 0
    outer loop
      vertex 2.07867 -1.38893 114
      vertex 2.16506 -1.25 102
      vertex 2.16506 -1.25 114
    endloop
  endfacet
  facet normal 0.849208 -0.528058 0
    outer loop
      vertex 2.16506 -1.25 102
      vertex 2.07867 -1.38893 114
      vertex 2.07867 -1.38893 102
    endloop
  endfacet
  facet normal -0.412725 0.910856 0
    outer loop
      vertex -0.956708 2.3097 0
      vertex -1.10572 2.24218 114
      vertex -0.956708 2.3097 114
    endloop
  endfacet
  facet normal -0.412725 0.910856 0
    outer loop
      vertex -1.10572 2.24218 114
      vertex -0.956708 2.3097 0
      vertex -1.10572 2.24218 0
    endloop
  endfacet
  facet normal 0.582498 0.812832 -0
    outer loop
      vertex 1.5219 1.98338 0
      vertex 1.38893 2.07867 114
      vertex 1.5219 1.98338 114
    endloop
  endfacet
  facet normal 0.582498 0.812832 0
    outer loop
      vertex 1.38893 2.07867 114
      vertex 1.5219 1.98338 0
      vertex 1.38893 2.07867 0
    endloop
  endfacet
  facet normal -0.935919 -0.352215 0
    outer loop
      vertex -2.3097 -0.956708 0
      vertex -2.36732 -0.803598 114
      vertex -2.36732 -0.803598 0
    endloop
  endfacet
  facet normal -0.935919 -0.352215 0
    outer loop
      vertex -2.36732 -0.803598 114
      vertex -2.3097 -0.956708 0
      vertex -2.3097 -0.956708 114
    endloop
  endfacet
  facet normal 0.910856 -0.412725 0
    outer loop
      vertex 2.24218 -1.10572 114
      vertex 2.3097 -0.956708 102
      vertex 2.3097 -0.956708 114
    endloop
  endfacet
  facet normal 0.910856 -0.412725 0
    outer loop
      vertex 2.3097 -0.956708 102
      vertex 2.24218 -1.10572 114
      vertex 2.24218 -1.10572 102
    endloop
  endfacet
  facet normal 0.910856 -0.412725 0
    outer loop
      vertex 2.24218 -1.10572 22
      vertex 2.3097 -0.956708 0
      vertex 2.3097 -0.956708 22
    endloop
  endfacet
  facet normal 0.910856 -0.412725 0
    outer loop
      vertex 2.3097 -0.956708 0
      vertex 2.24218 -1.10572 22
      vertex 2.24218 -1.10572 0
    endloop
  endfacet
  facet normal 0 0 1
    outer loop
      vertex 2.49465 0.163507 114
      vertex 2.49465 -0.163507 114
      vertex 2.5 0 114
    endloop
  endfacet
  facet normal 0 0 1
    outer loop
      vertex 2.47861 0.326315 114
      vertex 2.49465 -0.163507 114
      vertex 2.49465 0.163507 114
    endloop
  endfacet
  facet normal 0 0 1
    outer loop
      vertex 2.47861 0.326315 114
      vertex 2.47861 -0.326315 114
      vertex 2.49465 -0.163507 114
    endloop
  endfacet
  facet normal 0 0 1
    outer loop
      vertex 2.45196 0.487725 114
      vertex 2.47861 -0.326315 114
      vertex 2.47861 0.326315 114
    endloop
  endfacet
  facet normal 0 0 1
    outer loop
      vertex 2.45196 0.487725 114
      vertex 2.45196 -0.487725 114
      vertex 2.47861 -0.326315 114
    endloop
  endfacet
  facet normal 0 0 1
    outer loop
      vertex 2.41481 0.647047 114
      vertex 2.45196 -0.487725 114
      vertex 2.45196 0.487725 114
    endloop
  endfacet
  facet normal 0 0 1
    outer loop
      vertex 2.41481 0.647047 114
      vertex 2.41481 -0.647047 114
      vertex 2.45196 -0.487725 114
    endloop
  endfacet
  facet normal 0 0 1
    outer loop
      vertex 2.36732 0.803598 114
      vertex 2.41481 -0.647047 114
      vertex 2.41481 0.647047 114
    endloop
  endfacet
  facet normal 0 0 1
    outer loop
      vertex 2.36732 0.803598 114
      vertex 2.36732 -0.803598 114
      vertex 2.41481 -0.647047 114
    endloop
  endfacet
  facet normal 0 0 1
    outer loop
      vertex 2.3097 0.956708 114
      vertex 2.36732 -0.803598 114
      vertex 2.36732 0.803598 114
    endloop
  endfacet
  facet normal 0 0 1
    outer loop
      vertex 2.3097 0.956708 114
      vertex 2.3097 -0.956708 114
      vertex 2.36732 -0.803598 114
    endloop
  endfacet
  facet normal 0 0 1
    outer loop
      vertex 2.24218 1.10572 114
      vertex 2.3097 -0.956708 114
      vertex 2.3097 0.956708 114
    endloop
  endfacet
  facet normal 0 0 1
    outer loop
      vertex 2.24218 1.10572 114
      vertex 2.24218 -1.10572 114
      vertex 2.3097 -0.956708 114
    endloop
  endfacet
  facet normal 0 0 1
    outer loop
      vertex 2.16506 1.25 114
      vertex 2.24218 -1.10572 114
      vertex 2.24218 1.10572 114
    endloop
  endfacet
  facet normal 0 0 1
    outer loop
      vertex 2.16506 1.25 114
      vertex 2.16506 -1.25 114
      vertex 2.24218 -1.10572 114
    endloop
  endfacet
  facet normal 0 0 1
    outer loop
      vertex 2.07867 1.38893 114
      vertex 2.16506 -1.25 114
      vertex 2.16506 1.25 114
    endloop
  endfacet
  facet normal 0 0 1
    outer loop
      vertex 2.07867 1.38893 114
      vertex 2.07867 -1.38893 114
      vertex 2.16506 -1.25 114
    endloop
  endfacet
  facet normal 0 0 1
    outer loop
      vertex 1.98338 1.5219 114
      vertex 2.07867 -1.38893 114
      vertex 2.07867 1.38893 114
    endloop
  endfacet
  facet normal 0 0 1
    outer loop
      vertex 1.98338 1.5219 114
      vertex 1.98338 -1.5219 114
      vertex 2.07867 -1.38893 114
    endloop
  endfacet
  facet normal 0 0 1
    outer loop
      vertex 1.8796 1.64836 114
      vertex 1.98338 -1.5219 114
      vertex 1.98338 1.5219 114
    endloop
  endfacet
  facet normal 0 0 1
    outer loop
      vertex 1.8796 1.64836 114
      vertex 1.8796 -1.64836 114
      vertex 1.98338 -1.5219 114
    endloop
  endfacet
  facet normal 0 0 1
    outer loop
      vertex 1.76777 1.76777 114
      vertex 1.8796 -1.64836 114
      vertex 1.8796 1.64836 114
    endloop
  endfacet
  facet normal 0 0 1
    outer loop
      vertex 1.76777 1.76777 114
      vertex 1.76777 -1.76777 114
      vertex 1.8796 -1.64836 114
    endloop
  endfacet
  facet normal 0 0 1
    outer loop
      vertex 1.64836 1.8796 114
      vertex 1.76777 -1.76777 114
      vertex 1.76777 1.76777 114
    endloop
  endfacet
  facet normal 0 0 1
    outer loop
      vertex 1.64836 1.8796 114
      vertex 1.64836 -1.8796 114
      vertex 1.76777 -1.76777 114
    endloop
  endfacet
  facet normal 0 0 1
    outer loop
      vertex 1.5219 1.98338 114
      vertex 1.64836 -1.8796 114
      vertex 1.64836 1.8796 114
    endloop
  endfacet
  facet normal 0 0 1
    outer loop
      vertex 1.5219 1.98338 114
      vertex 1.5219 -1.98338 114
      vertex 1.64836 -1.8796 114
    endloop
  endfacet
  facet normal 0 0 1
    outer loop
      vertex 1.38893 2.07867 114
      vertex 1.5219 -1.98338 114
      vertex 1.5219 1.98338 114
    endloop
  endfacet
  facet normal 0 0 1
    outer loop
      vertex 1.38893 2.07867 114
      vertex 1.38893 -2.07867 114
      vertex 1.5219 -1.98338 114
    endloop
  endfacet
  facet normal 0 0 1
    outer loop
      vertex 1.25 2.16506 114
      vertex 1.38893 -2.07867 114
      vertex 1.38893 2.07867 114
    endloop
  endfacet
  facet normal 0 0 1
    outer loop
      vertex 1.25 2.16506 114
      vertex 1.25 -2.16506 114
      vertex 1.38893 -2.07867 114
    endloop
  endfacet
  facet normal 0 0 1
    outer loop
      vertex 1.10572 2.24218 114
      vertex 1.25 -2.16506 114
      vertex 1.25 2.16506 114
    endloop
  endfacet
  facet normal 0 0 1
    outer loop
      vertex 1.10572 2.24218 114
      vertex 1.10572 -2.24218 114
      vertex 1.25 -2.16506 114
    endloop
  endfacet
  facet normal 0 0 1
    outer loop
      vertex 0.956708 2.3097 114
      vertex 1.10572 -2.24218 114
      vertex 1.10572 2.24218 114
    endloop
  endfacet
  facet normal 0 0 1
    outer loop
      vertex 0.956708 2.3097 114
      vertex 0.956708 -2.3097 114
      vertex 1.10572 -2.24218 114
    endloop
  endfacet
  facet normal 0 0 1
    outer loop
      vertex 0.803598 2.36732 114
      vertex 0.956708 -2.3097 114
      vertex 0.956708 2.3097 114
    endloop
  endfacet
  facet normal 0 0 1
    outer loop
      vertex 0.803598 2.36732 114
      vertex 0.803598 -2.36732 114
      vertex 0.956708 -2.3097 114
    endloop
  endfacet
  facet normal 0 0 1
    outer loop
      vertex 0.647047 2.41481 114
      vertex 0.803598 -2.36732 114
      vertex 0.803598 2.36732 114
    endloop
  endfacet
  facet normal 0 0 1
    outer loop
      vertex 0.647047 2.41481 114
      vertex 0.647047 -2.41481 114
      vertex 0.803598 -2.36732 114
    endloop
  endfacet
  facet normal 0 0 1
    outer loop
      vertex 0.487725 2.45196 114
      vertex 0.647047 -2.41481 114
      vertex 0.647047 2.41481 114
    endloop
  endfacet
  facet normal 0 0 1
    outer loop
      vertex 0.487725 2.45196 114
      vertex 0.487725 -2.45196 114
      vertex 0.647047 -2.41481 114
    endloop
  endfacet
  facet normal 0 0 1
    outer loop
      vertex 0.326315 2.47861 114
      vertex 0.487725 -2.45196 114
      vertex 0.487725 2.45196 114
    endloop
  endfacet
  facet normal 0 0 1
    outer loop
      vertex 0.326315 2.47861 114
      vertex 0.326315 -2.47861 114
      vertex 0.487725 -2.45196 114
    endloop
  endfacet
  facet normal 0 0 1
    outer loop
      vertex 0.163507 2.49465 114
      vertex 0.326315 -2.47861 114
      vertex 0.326315 2.47861 114
    endloop
  endfacet
  facet normal 0 0 1
    outer loop
      vertex 0.163507 2.49465 114
      vertex 0.163507 -2.49465 114
      vertex 0.326315 -2.47861 114
    endloop
  endfacet
  facet normal 0 0 1
    outer loop
      vertex 0 2.5 114
      vertex 0.163507 -2.49465 114
      vertex 0.163507 2.49465 114
    endloop
  endfacet
  facet normal 0 0 1
    outer loop
      vertex 0 2.5 114
      vertex 0 -2.5 114
      vertex 0.163507 -2.49465 114
    endloop
  endfacet
  facet normal -0 0 1
    outer loop
      vertex -0.163507 2.49465 114
      vertex 0 -2.5 114
      vertex 0 2.5 114
    endloop
  endfacet
  facet normal 0 0 1
    outer loop
      vertex -0.163507 2.49465 114
      vertex -0.163507 -2.49465 114
      vertex 0 -2.5 114
    endloop
  endfacet
  facet normal -0 0 1
    outer loop
      vertex -0.326315 2.47861 114
      vertex -0.163507 -2.49465 114
      vertex -0.163507 2.49465 114
    endloop
  endfacet
  facet normal 0 0 1
    outer loop
      vertex -0.326315 2.47861 114
      vertex -0.326315 -2.47861 114
      vertex -0.163507 -2.49465 114
    endloop
  endfacet
  facet normal -0 0 1
    outer loop
      vertex -0.487725 2.45196 114
      vertex -0.326315 -2.47861 114
      vertex -0.326315 2.47861 114
    endloop
  endfacet
  facet normal 0 0 1
    outer loop
      vertex -0.487725 2.45196 114
      vertex -0.487725 -2.45196 114
      vertex -0.326315 -2.47861 114
    endloop
  endfacet
  facet normal -0 0 1
    outer loop
      vertex -0.647047 2.41481 114
      vertex -0.487725 -2.45196 114
      vertex -0.487725 2.45196 114
    endloop
  endfacet
  facet normal 0 0 1
    outer loop
      vertex -0.647047 2.41481 114
      vertex -0.647047 -2.41481 114
      vertex -0.487725 -2.45196 114
    endloop
  endfacet
  facet normal -0 0 1
    outer loop
      vertex -0.803598 2.36732 114
      vertex -0.647047 -2.41481 114
      vertex -0.647047 2.41481 114
    endloop
  endfacet
  facet normal 0 0 1
    outer loop
      vertex -0.803598 2.36732 114
      vertex -0.803598 -2.36732 114
      vertex -0.647047 -2.41481 114
    endloop
  endfacet
  facet normal -0 0 1
    outer loop
      vertex -0.956708 2.3097 114
      vertex -0.803598 -2.36732 114
      vertex -0.803598 2.36732 114
    endloop
  endfacet
  facet normal 0 0 1
    outer loop
      vertex -0.956708 2.3097 114
      vertex -0.956708 -2.3097 114
      vertex -0.803598 -2.36732 114
    endloop
  endfacet
  facet normal -0 0 1
    outer loop
      vertex -1.10572 2.24218 114
      vertex -0.956708 -2.3097 114
      vertex -0.956708 2.3097 114
    endloop
  endfacet
  facet normal 0 0 1
    outer loop
      vertex -1.10572 2.24218 114
      vertex -1.10572 -2.24218 114
      vertex -0.956708 -2.3097 114
    endloop
  endfacet
  facet normal -0 0 1
    outer loop
      vertex -1.25 2.16506 114
      vertex -1.10572 -2.24218 114
      vertex -1.10572 2.24218 114
    endloop
  endfacet
  facet normal 0 0 1
    outer loop
      vertex -1.25 2.16506 114
      vertex -1.25 -2.16506 114
      vertex -1.10572 -2.24218 114
    endloop
  endfacet
  facet normal -0 0 1
    outer loop
      vertex -1.38893 2.07867 114
      vertex -1.25 -2.16506 114
      vertex -1.25 2.16506 114
    endloop
  endfacet
  facet normal 0 0 1
    outer loop
      vertex -1.38893 2.07867 114
      vertex -1.38893 -2.07867 114
      vertex -1.25 -2.16506 114
    endloop
  endfacet
  facet normal -0 0 1
    outer loop
      vertex -1.5219 1.98338 114
      vertex -1.38893 -2.07867 114
      vertex -1.38893 2.07867 114
    endloop
  endfacet
  facet normal 0 0 1
    outer loop
      vertex -1.5219 1.98338 114
      vertex -1.5219 -1.98338 114
      vertex -1.38893 -2.07867 114
    endloop
  endfacet
  facet normal -0 0 1
    outer loop
      vertex -1.64836 1.8796 114
      vertex -1.5219 -1.98338 114
      vertex -1.5219 1.98338 114
    endloop
  endfacet
  facet normal 0 0 1
    outer loop
      vertex -1.64836 1.8796 114
      vertex -1.64836 -1.8796 114
      vertex -1.5219 -1.98338 114
    endloop
  endfacet
  facet normal -0 0 1
    outer loop
      vertex -1.76777 1.76777 114
      vertex -1.64836 -1.8796 114
      vertex -1.64836 1.8796 114
    endloop
  endfacet
  facet normal 0 0 1
    outer loop
      vertex -1.76777 1.76777 114
      vertex -1.76777 -1.76777 114
      vertex -1.64836 -1.8796 114
    endloop
  endfacet
  facet normal -0 0 1
    outer loop
      vertex -1.8796 1.64836 114
      vertex -1.76777 -1.76777 114
      vertex -1.76777 1.76777 114
    endloop
  endfacet
  facet normal 0 0 1
    outer loop
      vertex -1.8796 1.64836 114
      vertex -1.8796 -1.64836 114
      vertex -1.76777 -1.76777 114
    endloop
  endfacet
  facet normal -0 0 1
    outer loop
      vertex -1.98338 1.5219 114
      vertex -1.8796 -1.64836 114
      vertex -1.8796 1.64836 114
    endloop
  endfacet
  facet normal 0 0 1
    outer loop
      vertex -1.98338 1.5219 114
      vertex -1.98338 -1.5219 114
      vertex -1.8796 -1.64836 114
    endloop
  endfacet
  facet normal -0 0 1
    outer loop
      vertex -2.07867 1.38893 114
      vertex -1.98338 -1.5219 114
      vertex -1.98338 1.5219 114
    endloop
  endfacet
  facet normal 0 0 1
    outer loop
      vertex -2.07867 1.38893 114
      vertex -2.07867 -1.38893 114
      vertex -1.98338 -1.5219 114
    endloop
  endfacet
  facet normal -0 0 1
    outer loop
      vertex -2.16506 1.25 114
      vertex -2.07867 -1.38893 114
      vertex -2.07867 1.38893 114
    endloop
  endfacet
  facet normal 0 0 1
    outer loop
      vertex -2.16506 1.25 114
      vertex -2.16506 -1.25 114
      vertex -2.07867 -1.38893 114
    endloop
  endfacet
  facet normal -0 0 1
    outer loop
      vertex -2.24218 1.10572 114
      vertex -2.16506 -1.25 114
      vertex -2.16506 1.25 114
    endloop
  endfacet
  facet normal 0 0 1
    outer loop
      vertex -2.24218 1.10572 114
      vertex -2.24218 -1.10572 114
      vertex -2.16506 -1.25 114
    endloop
  endfacet
  facet normal -0 0 1
    outer loop
      vertex -2.3097 0.956708 114
      vertex -2.24218 -1.10572 114
      vertex -2.24218 1.10572 114
    endloop
  endfacet
  facet normal 0 0 1
    outer loop
      vertex -2.3097 0.956708 114
      vertex -2.3097 -0.956708 114
      vertex -2.24218 -1.10572 114
    endloop
  endfacet
  facet normal -0 0 1
    outer loop
      vertex -2.36732 0.803598 114
      vertex -2.3097 -0.956708 114
      vertex -2.3097 0.956708 114
    endloop
  endfacet
  facet normal 0 0 1
    outer loop
      vertex -2.36732 0.803598 114
      vertex -2.36732 -0.803598 114
      vertex -2.3097 -0.956708 114
    endloop
  endfacet
  facet normal -0 0 1
    outer loop
      vertex -2.41481 0.647047 114
      vertex -2.36732 -0.803598 114
      vertex -2.36732 0.803598 114
    endloop
  endfacet
  facet normal 0 0 1
    outer loop
      vertex -2.41481 0.647047 114
      vertex -2.41481 -0.647047 114
      vertex -2.36732 -0.803598 114
    endloop
  endfacet
  facet normal -0 0 1
    outer loop
      vertex -2.45196 0.487725 114
      vertex -2.41481 -0.647047 114
      vertex -2.41481 0.647047 114
    endloop
  endfacet
  facet normal 0 0 1
    outer loop
      vertex -2.45196 0.487725 114
      vertex -2.45196 -0.487725 114
      vertex -2.41481 -0.647047 114
    endloop
  endfacet
  facet normal -0 0 1
    outer loop
      vertex -2.47861 0.326315 114
      vertex -2.45196 -0.487725 114
      vertex -2.45196 0.487725 114
    endloop
  endfacet
  facet normal 0 0 1
    outer loop
      vertex -2.47861 0.326315 114
      vertex -2.47861 -0.326315 114
      vertex -2.45196 -0.487725 114
    endloop
  endfacet
  facet normal -0 0 1
    outer loop
      vertex -2.49465 0.163507 114
      vertex -2.47861 -0.326315 114
      vertex -2.47861 0.326315 114
    endloop
  endfacet
  facet normal 0 0 1
    outer loop
      vertex -2.49465 0.163507 114
      vertex -2.49465 -0.163507 114
      vertex -2.47861 -0.326315 114
    endloop
  endfacet
  facet normal 0 -0 1
    outer loop
      vertex -2.49465 -0.163507 114
      vertex -2.49465 0.163507 114
      vertex -2.5 0 114
    endloop
  endfacet
  facet normal 0.412725 0.910856 -0
    outer loop
      vertex 1.10572 2.24218 0
      vertex 0.956708 2.3097 114
      vertex 1.10572 2.24218 114
    endloop
  endfacet
  facet normal 0.412725 0.910856 0
    outer loop
      vertex 0.956708 2.3097 114
      vertex 1.10572 2.24218 0
      vertex 0.956708 2.3097 0
    endloop
  endfacet
  facet normal -0.849208 0.528058 0
    outer loop
      vertex -2.16506 1.25 0
      vertex -2.07867 1.38893 114
      vertex -2.07867 1.38893 0
    endloop
  endfacet
  facet normal -0.849208 0.528058 0
    outer loop
      vertex -2.07867 1.38893 114
      vertex -2.16506 1.25 0
      vertex -2.16506 1.25 114
    endloop
  endfacet
  facet normal 0.956939 0.290289 0
    outer loop
      vertex 2.41481 0.647047 114
      vertex 2.36732 0.803598 102
      vertex 2.36732 0.803598 114
    endloop
  endfacet
  facet normal 0.956939 0.290289 0
    outer loop
      vertex 2.36732 0.803598 102
      vertex 2.41481 0.647047 114
      vertex 2.41481 0.647047 102
    endloop
  endfacet
  facet normal 0.956939 0.290289 0
    outer loop
      vertex 2.41481 0.647047 22
      vertex 2.36732 0.803598 0
      vertex 2.36732 0.803598 22
    endloop
  endfacet
  facet normal 0.956939 0.290289 0
    outer loop
      vertex 2.36732 0.803598 0
      vertex 2.41481 0.647047 22
      vertex 2.41481 0.647047 0
    endloop
  endfacet
  facet normal 0.683561 -0.729894 1.1899e-07
    outer loop
      vertex 1.64836 -1.8796 114
      vertex 1.7 -1.83124 102
      vertex 1.76777 -1.76777 114
    endloop
  endfacet
  facet normal 0.683546 -0.729907 0
    outer loop
      vertex 1.64836 -1.8796 114
      vertex 1.7 -1.83124 22
      vertex 1.7 -1.83124 102
    endloop
  endfacet
  facet normal 0.683546 -0.729907 0
    outer loop
      vertex 1.64836 -1.8796 0
      vertex 1.7 -1.83124 22
      vertex 1.64836 -1.8796 114
    endloop
  endfacet
  facet normal 0.683572 -0.729883 -1.14358e-07
    outer loop
      vertex 1.64836 -1.8796 0
      vertex 1.76777 -1.76777 22
      vertex 1.7 -1.83124 22
    endloop
  endfacet
  facet normal 0.683561 -0.729894 0
    outer loop
      vertex 1.76777 -1.76777 22
      vertex 1.64836 -1.8796 0
      vertex 1.76777 -1.76777 0
    endloop
  endfacet
  facet normal 0.683572 -0.729883 0
    outer loop
      vertex 1.76777 -1.76777 114
      vertex 1.7 -1.83124 102
      vertex 1.76777 -1.76777 102
    endloop
  endfacet
  facet normal -0.227084 -0.973875 0
    outer loop
      vertex -0.647047 -2.41481 0
      vertex -0.487725 -2.45196 114
      vertex -0.647047 -2.41481 114
    endloop
  endfacet
  facet normal -0.227084 -0.973875 -0
    outer loop
      vertex -0.487725 -2.45196 114
      vertex -0.647047 -2.41481 0
      vertex -0.487725 -2.45196 0
    endloop
  endfacet
  facet normal 0.956939 -0.290289 0
    outer loop
      vertex 2.36732 -0.803598 22
      vertex 2.41481 -0.647047 0
      vertex 2.41481 -0.647047 22
    endloop
  endfacet
  facet normal 0.956939 -0.290289 0
    outer loop
      vertex 2.41481 -0.647047 0
      vertex 2.36732 -0.803598 22
      vertex 2.36732 -0.803598 0
    endloop
  endfacet
  facet normal 0.956939 -0.290289 0
    outer loop
      vertex 2.36732 -0.803598 114
      vertex 2.41481 -0.647047 102
      vertex 2.41481 -0.647047 114
    endloop
  endfacet
  facet normal 0.956939 -0.290289 0
    outer loop
      vertex 2.41481 -0.647047 102
      vertex 2.36732 -0.803598 114
      vertex 2.36732 -0.803598 102
    endloop
  endfacet
  facet normal -0.4714 0.881919 0
    outer loop
      vertex -1.10572 2.24218 0
      vertex -1.25 2.16506 114
      vertex -1.10572 2.24218 114
    endloop
  endfacet
  facet normal -0.4714 0.881919 0
    outer loop
      vertex -1.25 2.16506 114
      vertex -1.10572 2.24218 0
      vertex -1.25 2.16506 0
    endloop
  endfacet
  facet normal 0.0327028 -0.999465 0
    outer loop
      vertex 0 -2.5 0
      vertex 0.163507 -2.49465 114
      vertex 0 -2.5 114
    endloop
  endfacet
  facet normal 0.0327028 -0.999465 0
    outer loop
      vertex 0.163507 -2.49465 114
      vertex 0 -2.5 0
      vertex 0.163507 -2.49465 0
    endloop
  endfacet
  facet normal -0.935919 0.352215 0
    outer loop
      vertex -2.36732 0.803598 0
      vertex -2.3097 0.956708 114
      vertex -2.3097 0.956708 0
    endloop
  endfacet
  facet normal -0.935919 0.352215 0
    outer loop
      vertex -2.3097 0.956708 114
      vertex -2.36732 0.803598 0
      vertex -2.36732 0.803598 114
    endloop
  endfacet
  facet normal 0.812832 0.582498 0
    outer loop
      vertex 2.07867 1.38893 114
      vertex 1.98338 1.5219 102
      vertex 1.98338 1.5219 114
    endloop
  endfacet
  facet normal 0.812832 0.582498 0
    outer loop
      vertex 1.98338 1.5219 102
      vertex 2.07867 1.38893 114
      vertex 2.07867 1.38893 102
    endloop
  endfacet
  facet normal 0.812832 0.582498 0
    outer loop
      vertex 2.07867 1.38893 22
      vertex 1.98338 1.5219 0
      vertex 1.98338 1.5219 22
    endloop
  endfacet
  facet normal 0.812832 0.582498 0
    outer loop
      vertex 1.98338 1.5219 0
      vertex 2.07867 1.38893 22
      vertex 2.07867 1.38893 0
    endloop
  endfacet
  facet normal -0.352215 -0.935919 0
    outer loop
      vertex -0.956708 -2.3097 0
      vertex -0.803598 -2.36732 114
      vertex -0.956708 -2.3097 114
    endloop
  endfacet
  facet normal -0.352215 -0.935919 -0
    outer loop
      vertex -0.803598 -2.36732 114
      vertex -0.956708 -2.3097 0
      vertex -0.803598 -2.36732 0
    endloop
  endfacet
  facet normal -0.956939 0.290289 0
    outer loop
      vertex -2.41481 0.647047 0
      vertex -2.36732 0.803598 114
      vertex -2.36732 0.803598 0
    endloop
  endfacet
  facet normal -0.956939 0.290289 0
    outer loop
      vertex -2.36732 0.803598 114
      vertex -2.41481 0.647047 0
      vertex -2.41481 0.647047 114
    endloop
  endfacet
  facet normal 0.849208 0.528058 0
    outer loop
      vertex 2.16506 1.25 114
      vertex 2.07867 1.38893 102
      vertex 2.07867 1.38893 114
    endloop
  endfacet
  facet normal 0.849208 0.528058 0
    outer loop
      vertex 2.07867 1.38893 102
      vertex 2.16506 1.25 114
      vertex 2.16506 1.25 102
    endloop
  endfacet
  facet normal 0.849208 0.528058 0
    outer loop
      vertex 2.16506 1.25 22
      vertex 2.07867 1.38893 0
      vertex 2.07867 1.38893 22
    endloop
  endfacet
  facet normal 0.849208 0.528058 0
    outer loop
      vertex 2.07867 1.38893 0
      vertex 2.16506 1.25 22
      vertex 2.16506 1.25 0
    endloop
  endfacet
  facet normal -0.162902 0.986642 0
    outer loop
      vertex -0.326315 2.47861 0
      vertex -0.487725 2.45196 114
      vertex -0.326315 2.47861 114
    endloop
  endfacet
  facet normal -0.162902 0.986642 0
    outer loop
      vertex -0.487725 2.45196 114
      vertex -0.326315 2.47861 0
      vertex -0.487725 2.45196 0
    endloop
  endfacet
  facet normal 0.77302 0.634382 0
    outer loop
      vertex 1.98338 1.5219 114
      vertex 1.8796 1.64836 102
      vertex 1.8796 1.64836 114
    endloop
  endfacet
  facet normal 0.77302 0.634382 0
    outer loop
      vertex 1.8796 1.64836 102
      vertex 1.98338 1.5219 114
      vertex 1.98338 1.5219 102
    endloop
  endfacet
  facet normal 0.77302 0.634382 0
    outer loop
      vertex 1.98338 1.5219 22
      vertex 1.8796 1.64836 0
      vertex 1.8796 1.64836 22
    endloop
  endfacet
  facet normal 0.77302 0.634382 0
    outer loop
      vertex 1.8796 1.64836 0
      vertex 1.98338 1.5219 22
      vertex 1.98338 1.5219 0
    endloop
  endfacet
  facet normal -0.973875 0.227084 0
    outer loop
      vertex -2.45196 0.487725 0
      vertex -2.41481 0.647047 114
      vertex -2.41481 0.647047 0
    endloop
  endfacet
  facet normal -0.973875 0.227084 0
    outer loop
      vertex -2.41481 0.647047 114
      vertex -2.45196 0.487725 0
      vertex -2.45196 0.487725 114
    endloop
  endfacet
  facet normal -0.999465 -0.0327028 0
    outer loop
      vertex -2.49465 -0.163507 0
      vertex -2.5 0 114
      vertex -2.5 0 0
    endloop
  endfacet
  facet normal -0.999465 -0.0327028 0
    outer loop
      vertex -2.5 0 114
      vertex -2.49465 -0.163507 0
      vertex -2.49465 -0.163507 114
    endloop
  endfacet
  facet normal 0.881919 -0.4714 0
    outer loop
      vertex 2.16506 -1.25 22
      vertex 2.24218 -1.10572 0
      vertex 2.24218 -1.10572 22
    endloop
  endfacet
  facet normal 0.881919 -0.4714 0
    outer loop
      vertex 2.24218 -1.10572 0
      vertex 2.16506 -1.25 22
      vertex 2.16506 -1.25 0
    endloop
  endfacet
  facet normal 0.881919 -0.4714 0
    outer loop
      vertex 2.16506 -1.25 114
      vertex 2.24218 -1.10572 102
      vertex 2.24218 -1.10572 114
    endloop
  endfacet
  facet normal 0.881919 -0.4714 0
    outer loop
      vertex 2.24218 -1.10572 102
      vertex 2.16506 -1.25 114
      vertex 2.16506 -1.25 102
    endloop
  endfacet
  facet normal 0.999465 -0.0327028 0
    outer loop
      vertex 2.49465 -0.163507 114
      vertex 2.5 0 102
      vertex 2.5 0 114
    endloop
  endfacet
  facet normal 0.999465 -0.0327028 0
    outer loop
      vertex 2.5 0 102
      vertex 2.49465 -0.163507 114
      vertex 2.49465 -0.163507 102
    endloop
  endfacet
  facet normal 0.999465 -0.0327028 0
    outer loop
      vertex 2.49465 -0.163507 22
      vertex 2.5 0 0
      vertex 2.5 0 22
    endloop
  endfacet
  facet normal 0.999465 -0.0327028 0
    outer loop
      vertex 2.5 0 0
      vertex 2.49465 -0.163507 22
      vertex 2.49465 -0.163507 0
    endloop
  endfacet
  facet normal 0.729894 0.683561 0
    outer loop
      vertex 1.8796 1.64836 114
      vertex 1.76777 1.76777 102
      vertex 1.76777 1.76777 114
    endloop
  endfacet
  facet normal 0.729894 0.683561 0
    outer loop
      vertex 1.76777 1.76777 102
      vertex 1.8796 1.64836 114
      vertex 1.8796 1.64836 102
    endloop
  endfacet
  facet normal 0.729894 0.683561 0
    outer loop
      vertex 1.8796 1.64836 22
      vertex 1.76777 1.76777 0
      vertex 1.76777 1.76777 22
    endloop
  endfacet
  facet normal 0.729894 0.683561 0
    outer loop
      vertex 1.76777 1.76777 0
      vertex 1.8796 1.64836 22
      vertex 1.8796 1.64836 0
    endloop
  endfacet
  facet normal -0.683561 -0.729894 0
    outer loop
      vertex -1.76777 -1.76777 0
      vertex -1.64836 -1.8796 114
      vertex -1.76777 -1.76777 114
    endloop
  endfacet
  facet normal -0.683561 -0.729894 -0
    outer loop
      vertex -1.64836 -1.8796 114
      vertex -1.76777 -1.76777 0
      vertex -1.64836 -1.8796 0
    endloop
  endfacet
  facet normal 0.4714 -0.881919 0
    outer loop
      vertex 1.10572 -2.24218 0
      vertex 1.25 -2.16506 114
      vertex 1.10572 -2.24218 114
    endloop
  endfacet
  facet normal 0.4714 -0.881919 0
    outer loop
      vertex 1.25 -2.16506 114
      vertex 1.10572 -2.24218 0
      vertex 1.25 -2.16506 0
    endloop
  endfacet
  facet normal -0.582498 0.812832 0
    outer loop
      vertex -1.38893 2.07867 0
      vertex -1.5219 1.98338 114
      vertex -1.38893 2.07867 114
    endloop
  endfacet
  facet normal -0.582498 0.812832 0
    outer loop
      vertex -1.5219 1.98338 114
      vertex -1.38893 2.07867 0
      vertex -1.5219 1.98338 0
    endloop
  endfacet
  facet normal -0.999465 0.0327028 0
    outer loop
      vertex -2.5 0 0
      vertex -2.49465 0.163507 114
      vertex -2.49465 0.163507 0
    endloop
  endfacet
  facet normal -0.999465 0.0327028 0
    outer loop
      vertex -2.49465 0.163507 114
      vertex -2.5 0 0
      vertex -2.5 0 114
    endloop
  endfacet
  facet normal 0.77302 -0.634382 0
    outer loop
      vertex 1.8796 -1.64836 114
      vertex 1.98338 -1.5219 102
      vertex 1.98338 -1.5219 114
    endloop
  endfacet
  facet normal 0.77302 -0.634382 0
    outer loop
      vertex 1.98338 -1.5219 102
      vertex 1.8796 -1.64836 114
      vertex 1.8796 -1.64836 102
    endloop
  endfacet
  facet normal 0.77302 -0.634382 0
    outer loop
      vertex 1.8796 -1.64836 22
      vertex 1.98338 -1.5219 0
      vertex 1.98338 -1.5219 22
    endloop
  endfacet
  facet normal 0.77302 -0.634382 0
    outer loop
      vertex 1.98338 -1.5219 0
      vertex 1.8796 -1.64836 22
      vertex 1.8796 -1.64836 0
    endloop
  endfacet
  facet normal 0.881919 0.4714 0
    outer loop
      vertex 2.24218 1.10572 22
      vertex 2.16506 1.25 0
      vertex 2.16506 1.25 22
    endloop
  endfacet
  facet normal 0.881919 0.4714 0
    outer loop
      vertex 2.16506 1.25 0
      vertex 2.24218 1.10572 22
      vertex 2.24218 1.10572 0
    endloop
  endfacet
  facet normal 0.881919 0.4714 0
    outer loop
      vertex 2.24218 1.10572 114
      vertex 2.16506 1.25 102
      vertex 2.16506 1.25 114
    endloop
  endfacet
  facet normal 0.881919 0.4714 0
    outer loop
      vertex 2.16506 1.25 102
      vertex 2.24218 1.10572 114
      vertex 2.24218 1.10572 102
    endloop
  endfacet
  facet normal -0.973875 -0.227084 0
    outer loop
      vertex -2.41481 -0.647047 0
      vertex -2.45196 -0.487725 114
      vertex -2.45196 -0.487725 0
    endloop
  endfacet
  facet normal -0.973875 -0.227084 0
    outer loop
      vertex -2.45196 -0.487725 114
      vertex -2.41481 -0.647047 0
      vertex -2.41481 -0.647047 114
    endloop
  endfacet
  facet normal 0.290289 -0.956939 0
    outer loop
      vertex 0.647047 -2.41481 0
      vertex 0.803598 -2.36732 114
      vertex 0.647047 -2.41481 114
    endloop
  endfacet
  facet normal 0.290289 -0.956939 0
    outer loop
      vertex 0.803598 -2.36732 114
      vertex 0.647047 -2.41481 0
      vertex 0.803598 -2.36732 0
    endloop
  endfacet
  facet normal -0.995182 -0.0980463 0
    outer loop
      vertex -2.47861 -0.326315 0
      vertex -2.49465 -0.163507 114
      vertex -2.49465 -0.163507 0
    endloop
  endfacet
  facet normal -0.995182 -0.0980463 0
    outer loop
      vertex -2.49465 -0.163507 114
      vertex -2.47861 -0.326315 0
      vertex -2.47861 -0.326315 114
    endloop
  endfacet
  facet normal -0.986642 -0.162902 0
    outer loop
      vertex -2.45196 -0.487725 0
      vertex -2.47861 -0.326315 114
      vertex -2.47861 -0.326315 0
    endloop
  endfacet
  facet normal -0.986642 -0.162902 0
    outer loop
      vertex -2.47861 -0.326315 114
      vertex -2.45196 -0.487725 0
      vertex -2.45196 -0.487725 114
    endloop
  endfacet
  facet normal -0.77302 0.634382 0
    outer loop
      vertex -1.98338 1.5219 0
      vertex -1.8796 1.64836 114
      vertex -1.8796 1.64836 0
    endloop
  endfacet
  facet normal -0.77302 0.634382 0
    outer loop
      vertex -1.8796 1.64836 114
      vertex -1.98338 1.5219 0
      vertex -1.98338 1.5219 114
    endloop
  endfacet
  facet normal 0.729894 -0.683561 0
    outer loop
      vertex 1.76777 -1.76777 22
      vertex 1.8796 -1.64836 0
      vertex 1.8796 -1.64836 22
    endloop
  endfacet
  facet normal 0.729894 -0.683561 0
    outer loop
      vertex 1.8796 -1.64836 0
      vertex 1.76777 -1.76777 22
      vertex 1.76777 -1.76777 0
    endloop
  endfacet
  facet normal 0.729894 -0.683561 0
    outer loop
      vertex 1.76777 -1.76777 114
      vertex 1.8796 -1.64836 102
      vertex 1.8796 -1.64836 114
    endloop
  endfacet
  facet normal 0.729894 -0.683561 0
    outer loop
      vertex 1.8796 -1.64836 102
      vertex 1.76777 -1.76777 114
      vertex 1.76777 -1.76777 102
    endloop
  endfacet
  facet normal 0.162902 0.986642 -0
    outer loop
      vertex 0.487725 2.45196 0
      vertex 0.326315 2.47861 114
      vertex 0.487725 2.45196 114
    endloop
  endfacet
  facet normal 0.162902 0.986642 0
    outer loop
      vertex 0.326315 2.47861 114
      vertex 0.487725 2.45196 0
      vertex 0.326315 2.47861 0
    endloop
  endfacet
  facet normal 0.528058 0.849208 -0
    outer loop
      vertex 1.38893 2.07867 0
      vertex 1.25 2.16506 114
      vertex 1.38893 2.07867 114
    endloop
  endfacet
  facet normal 0.528058 0.849208 0
    outer loop
      vertex 1.25 2.16506 114
      vertex 1.38893 2.07867 0
      vertex 1.25 2.16506 0
    endloop
  endfacet
  facet normal 0.352215 -0.935919 0
    outer loop
      vertex 0.803598 -2.36732 0
      vertex 0.956708 -2.3097 114
      vertex 0.803598 -2.36732 114
    endloop
  endfacet
  facet normal 0.352215 -0.935919 0
    outer loop
      vertex 0.956708 -2.3097 114
      vertex 0.803598 -2.36732 0
      vertex 0.956708 -2.3097 0
    endloop
  endfacet
  facet normal -0.162902 -0.986642 0
    outer loop
      vertex -0.487725 -2.45196 0
      vertex -0.326315 -2.47861 114
      vertex -0.487725 -2.45196 114
    endloop
  endfacet
  facet normal -0.162902 -0.986642 -0
    outer loop
      vertex -0.326315 -2.47861 114
      vertex -0.487725 -2.45196 0
      vertex -0.326315 -2.47861 0
    endloop
  endfacet
  facet normal -0.0327028 -0.999465 0
    outer loop
      vertex -0.163507 -2.49465 0
      vertex 0 -2.5 114
      vertex -0.163507 -2.49465 114
    endloop
  endfacet
  facet normal -0.0327028 -0.999465 -0
    outer loop
      vertex 0 -2.5 114
      vertex -0.163507 -2.49465 0
      vertex 0 -2.5 0
    endloop
  endfacet
  facet normal -0.956939 -0.290289 0
    outer loop
      vertex -2.36732 -0.803598 0
      vertex -2.41481 -0.647047 114
      vertex -2.41481 -0.647047 0
    endloop
  endfacet
  facet normal -0.956939 -0.290289 0
    outer loop
      vertex -2.41481 -0.647047 114
      vertex -2.36732 -0.803598 0
      vertex -2.36732 -0.803598 114
    endloop
  endfacet
  facet normal 0.4714 0.881919 -0
    outer loop
      vertex 1.25 2.16506 0
      vertex 1.10572 2.24218 114
      vertex 1.25 2.16506 114
    endloop
  endfacet
  facet normal 0.4714 0.881919 0
    outer loop
      vertex 1.10572 2.24218 114
      vertex 1.25 2.16506 0
      vertex 1.10572 2.24218 0
    endloop
  endfacet
  facet normal -0.634382 -0.77302 0
    outer loop
      vertex -1.64836 -1.8796 0
      vertex -1.5219 -1.98338 114
      vertex -1.64836 -1.8796 114
    endloop
  endfacet
  facet normal -0.634382 -0.77302 -0
    outer loop
      vertex -1.5219 -1.98338 114
      vertex -1.64836 -1.8796 0
      vertex -1.5219 -1.98338 0
    endloop
  endfacet
  facet normal -0.812832 -0.582498 0
    outer loop
      vertex -1.98338 -1.5219 0
      vertex -2.07867 -1.38893 114
      vertex -2.07867 -1.38893 0
    endloop
  endfacet
  facet normal -0.812832 -0.582498 0
    outer loop
      vertex -2.07867 -1.38893 114
      vertex -1.98338 -1.5219 0
      vertex -1.98338 -1.5219 114
    endloop
  endfacet
  facet normal 0.935919 0.352215 0
    outer loop
      vertex 2.36732 0.803598 114
      vertex 2.3097 0.956708 102
      vertex 2.3097 0.956708 114
    endloop
  endfacet
  facet normal 0.935919 0.352215 0
    outer loop
      vertex 2.3097 0.956708 102
      vertex 2.36732 0.803598 114
      vertex 2.36732 0.803598 102
    endloop
  endfacet
  facet normal 0.935919 0.352215 0
    outer loop
      vertex 2.36732 0.803598 22
      vertex 2.3097 0.956708 0
      vertex 2.3097 0.956708 22
    endloop
  endfacet
  facet normal 0.935919 0.352215 0
    outer loop
      vertex 2.3097 0.956708 0
      vertex 2.36732 0.803598 22
      vertex 2.36732 0.803598 0
    endloop
  endfacet
  facet normal -0.849208 -0.528058 0
    outer loop
      vertex -2.07867 -1.38893 0
      vertex -2.16506 -1.25 114
      vertex -2.16506 -1.25 0
    endloop
  endfacet
  facet normal -0.849208 -0.528058 0
    outer loop
      vertex -2.16506 -1.25 114
      vertex -2.07867 -1.38893 0
      vertex -2.07867 -1.38893 114
    endloop
  endfacet
  facet normal 0.0980463 -0.995182 0
    outer loop
      vertex 0.163507 -2.49465 0
      vertex 0.326315 -2.47861 114
      vertex 0.163507 -2.49465 114
    endloop
  endfacet
  facet normal 0.0980463 -0.995182 0
    outer loop
      vertex 0.326315 -2.47861 114
      vertex 0.163507 -2.49465 0
      vertex 0.326315 -2.47861 0
    endloop
  endfacet
  facet normal 0.683572 0.729883 0
    outer loop
      vertex 1.76777 1.76777 22
      vertex 1.76777 1.76777 0
      vertex 1.7 1.83124 22
    endloop
  endfacet
  facet normal 0.683561 0.729894 -0
    outer loop
      vertex 1.76777 1.76777 102
      vertex 1.64836 1.8796 114
      vertex 1.76777 1.76777 114
    endloop
  endfacet
  facet normal 0.683572 0.729883 2.09656e-07
    outer loop
      vertex 1.7 1.83124 102
      vertex 1.64836 1.8796 114
      vertex 1.76777 1.76777 102
    endloop
  endfacet
  facet normal 0.683546 0.729907 -0
    outer loop
      vertex 1.7 1.83124 22
      vertex 1.64836 1.8796 114
      vertex 1.7 1.83124 102
    endloop
  endfacet
  facet normal 0.683546 0.729907 0
    outer loop
      vertex 1.7 1.83124 22
      vertex 1.64836 1.8796 0
      vertex 1.64836 1.8796 114
    endloop
  endfacet
  facet normal 0.683561 0.729894 -6.49036e-08
    outer loop
      vertex 1.64836 1.8796 0
      vertex 1.7 1.83124 22
      vertex 1.76777 1.76777 0
    endloop
  endfacet
  facet normal 0.986642 0.162902 0
    outer loop
      vertex 2.47861 0.326315 22
      vertex 2.45196 0.487725 0
      vertex 2.45196 0.487725 22
    endloop
  endfacet
  facet normal 0.986642 0.162902 0
    outer loop
      vertex 2.45196 0.487725 0
      vertex 2.47861 0.326315 22
      vertex 2.47861 0.326315 0
    endloop
  endfacet
  facet normal 0.986642 0.162902 0
    outer loop
      vertex 2.47861 0.326315 114
      vertex 2.45196 0.487725 102
      vertex 2.45196 0.487725 114
    endloop
  endfacet
  facet normal 0.986642 0.162902 0
    outer loop
      vertex 2.45196 0.487725 102
      vertex 2.47861 0.326315 114
      vertex 2.47861 0.326315 102
    endloop
  endfacet
  facet normal 0.812832 -0.582498 0
    outer loop
      vertex 1.98338 -1.5219 22
      vertex 2.07867 -1.38893 0
      vertex 2.07867 -1.38893 22
    endloop
  endfacet
  facet normal 0.812832 -0.582498 0
    outer loop
      vertex 2.07867 -1.38893 0
      vertex 1.98338 -1.5219 22
      vertex 1.98338 -1.5219 0
    endloop
  endfacet
  facet normal 0.812832 -0.582498 0
    outer loop
      vertex 1.98338 -1.5219 114
      vertex 2.07867 -1.38893 102
      vertex 2.07867 -1.38893 114
    endloop
  endfacet
  facet normal 0.812832 -0.582498 0
    outer loop
      vertex 2.07867 -1.38893 102
      vertex 1.98338 -1.5219 114
      vertex 1.98338 -1.5219 102
    endloop
  endfacet
  facet normal 0.973875 -0.227084 0
    outer loop
      vertex 2.41481 -0.647047 22
      vertex 2.45196 -0.487725 0
      vertex 2.45196 -0.487725 22
    endloop
  endfacet
  facet normal 0.973875 -0.227084 0
    outer loop
      vertex 2.45196 -0.487725 0
      vertex 2.41481 -0.647047 22
      vertex 2.41481 -0.647047 0
    endloop
  endfacet
  facet normal 0.973875 -0.227084 0
    outer loop
      vertex 2.41481 -0.647047 114
      vertex 2.45196 -0.487725 102
      vertex 2.45196 -0.487725 114
    endloop
  endfacet
  facet normal 0.973875 -0.227084 0
    outer loop
      vertex 2.45196 -0.487725 102
      vertex 2.41481 -0.647047 114
      vertex 2.41481 -0.647047 102
    endloop
  endfacet
  facet normal -0.227084 0.973875 0
    outer loop
      vertex -0.487725 2.45196 0
      vertex -0.647047 2.41481 114
      vertex -0.487725 2.45196 114
    endloop
  endfacet
  facet normal -0.227084 0.973875 0
    outer loop
      vertex -0.647047 2.41481 114
      vertex -0.487725 2.45196 0
      vertex -0.647047 2.41481 0
    endloop
  endfacet
  facet normal 0.995182 -0.0980463 0
    outer loop
      vertex 2.47861 -0.326315 22
      vertex 2.49465 -0.163507 0
      vertex 2.49465 -0.163507 22
    endloop
  endfacet
  facet normal 0.995182 -0.0980463 0
    outer loop
      vertex 2.49465 -0.163507 0
      vertex 2.47861 -0.326315 22
      vertex 2.47861 -0.326315 0
    endloop
  endfacet
  facet normal 0.995182 -0.0980463 0
    outer loop
      vertex 2.47861 -0.326315 114
      vertex 2.49465 -0.163507 102
      vertex 2.49465 -0.163507 114
    endloop
  endfacet
  facet normal 0.995182 -0.0980463 0
    outer loop
      vertex 2.49465 -0.163507 102
      vertex 2.47861 -0.326315 114
      vertex 2.47861 -0.326315 102
    endloop
  endfacet
  facet normal -0.995182 0.0980463 0
    outer loop
      vertex -2.49465 0.163507 0
      vertex -2.47861 0.326315 114
      vertex -2.47861 0.326315 0
    endloop
  endfacet
  facet normal -0.995182 0.0980463 0
    outer loop
      vertex -2.47861 0.326315 114
      vertex -2.49465 0.163507 0
      vertex -2.49465 0.163507 114
    endloop
  endfacet
  facet normal -0.729894 0.683561 0
    outer loop
      vertex -1.8796 1.64836 0
      vertex -1.76777 1.76777 114
      vertex -1.76777 1.76777 0
    endloop
  endfacet
  facet normal -0.729894 0.683561 0
    outer loop
      vertex -1.76777 1.76777 114
      vertex -1.8796 1.64836 0
      vertex -1.8796 1.64836 114
    endloop
  endfacet
  facet normal -0.0980463 0.995182 0
    outer loop
      vertex -0.163507 2.49465 0
      vertex -0.326315 2.47861 114
      vertex -0.163507 2.49465 114
    endloop
  endfacet
  facet normal -0.0980463 0.995182 0
    outer loop
      vertex -0.326315 2.47861 114
      vertex -0.163507 2.49465 0
      vertex -0.326315 2.47861 0
    endloop
  endfacet
  facet normal 0.634382 0.77302 -0
    outer loop
      vertex 1.64836 1.8796 0
      vertex 1.5219 1.98338 114
      vertex 1.64836 1.8796 114
    endloop
  endfacet
  facet normal 0.634382 0.77302 0
    outer loop
      vertex 1.5219 1.98338 114
      vertex 1.64836 1.8796 0
      vertex 1.5219 1.98338 0
    endloop
  endfacet
  facet normal -0.986642 0.162902 0
    outer loop
      vertex -2.47861 0.326315 0
      vertex -2.45196 0.487725 114
      vertex -2.45196 0.487725 0
    endloop
  endfacet
  facet normal -0.986642 0.162902 0
    outer loop
      vertex -2.45196 0.487725 114
      vertex -2.47861 0.326315 0
      vertex -2.47861 0.326315 114
    endloop
  endfacet
  facet normal -0.528058 0.849208 0
    outer loop
      vertex -1.25 2.16506 0
      vertex -1.38893 2.07867 114
      vertex -1.25 2.16506 114
    endloop
  endfacet
  facet normal -0.528058 0.849208 0
    outer loop
      vertex -1.38893 2.07867 114
      vertex -1.25 2.16506 0
      vertex -1.38893 2.07867 0
    endloop
  endfacet
  facet normal 0.910856 0.412725 0
    outer loop
      vertex 2.3097 0.956708 22
      vertex 2.24218 1.10572 0
      vertex 2.24218 1.10572 22
    endloop
  endfacet
  facet normal 0.910856 0.412725 0
    outer loop
      vertex 2.24218 1.10572 0
      vertex 2.3097 0.956708 22
      vertex 2.3097 0.956708 0
    endloop
  endfacet
  facet normal 0.910856 0.412725 0
    outer loop
      vertex 2.3097 0.956708 114
      vertex 2.24218 1.10572 102
      vertex 2.24218 1.10572 114
    endloop
  endfacet
  facet normal 0.910856 0.412725 0
    outer loop
      vertex 2.24218 1.10572 102
      vertex 2.3097 0.956708 114
      vertex 2.3097 0.956708 102
    endloop
  endfacet
  facet normal -0.4714 -0.881919 0
    outer loop
      vertex -1.25 -2.16506 0
      vertex -1.10572 -2.24218 114
      vertex -1.25 -2.16506 114
    endloop
  endfacet
  facet normal -0.4714 -0.881919 -0
    outer loop
      vertex -1.10572 -2.24218 114
      vertex -1.25 -2.16506 0
      vertex -1.10572 -2.24218 0
    endloop
  endfacet
  facet normal -0.910856 -0.412725 0
    outer loop
      vertex -2.24218 -1.10572 0
      vertex -2.3097 -0.956708 114
      vertex -2.3097 -0.956708 0
    endloop
  endfacet
  facet normal -0.910856 -0.412725 0
    outer loop
      vertex -2.3097 -0.956708 114
      vertex -2.24218 -1.10572 0
      vertex -2.24218 -1.10572 114
    endloop
  endfacet
  facet normal 0.0980463 0.995182 -0
    outer loop
      vertex 0.326315 2.47861 0
      vertex 0.163507 2.49465 114
      vertex 0.326315 2.47861 114
    endloop
  endfacet
  facet normal 0.0980463 0.995182 0
    outer loop
      vertex 0.163507 2.49465 114
      vertex 0.326315 2.47861 0
      vertex 0.163507 2.49465 0
    endloop
  endfacet
  facet normal -0.683561 0.729894 0
    outer loop
      vertex -1.64836 1.8796 0
      vertex -1.76777 1.76777 114
      vertex -1.64836 1.8796 114
    endloop
  endfacet
  facet normal -0.683561 0.729894 0
    outer loop
      vertex -1.76777 1.76777 114
      vertex -1.64836 1.8796 0
      vertex -1.76777 1.76777 0
    endloop
  endfacet
  facet normal -0.582498 -0.812832 0
    outer loop
      vertex -1.5219 -1.98338 0
      vertex -1.38893 -2.07867 114
      vertex -1.5219 -1.98338 114
    endloop
  endfacet
  facet normal -0.582498 -0.812832 -0
    outer loop
      vertex -1.38893 -2.07867 114
      vertex -1.5219 -1.98338 0
      vertex -1.38893 -2.07867 0
    endloop
  endfacet
  facet normal -0.881919 -0.4714 0
    outer loop
      vertex -2.16506 -1.25 0
      vertex -2.24218 -1.10572 114
      vertex -2.24218 -1.10572 0
    endloop
  endfacet
  facet normal -0.881919 -0.4714 0
    outer loop
      vertex -2.24218 -1.10572 114
      vertex -2.16506 -1.25 0
      vertex -2.16506 -1.25 114
    endloop
  endfacet
  facet normal 0.290289 0.956939 -0
    outer loop
      vertex 0.803598 2.36732 0
      vertex 0.647047 2.41481 114
      vertex 0.803598 2.36732 114
    endloop
  endfacet
  facet normal 0.290289 0.956939 0
    outer loop
      vertex 0.647047 2.41481 114
      vertex 0.803598 2.36732 0
      vertex 0.647047 2.41481 0
    endloop
  endfacet
  facet normal 0 0 -1
    outer loop
      vertex 2.49465 -0.163507 0
      vertex 2.49465 0.163507 0
      vertex 2.5 0 0
    endloop
  endfacet
  facet normal 0 0 -1
    outer loop
      vertex 2.47861 -0.326315 0
      vertex 2.49465 0.163507 0
      vertex 2.49465 -0.163507 0
    endloop
  endfacet
  facet normal 0 0 -1
    outer loop
      vertex 2.47861 -0.326315 0
      vertex 2.47861 0.326315 0
      vertex 2.49465 0.163507 0
    endloop
  endfacet
  facet normal 0 0 -1
    outer loop
      vertex 2.45196 -0.487725 0
      vertex 2.47861 0.326315 0
      vertex 2.47861 -0.326315 0
    endloop
  endfacet
  facet normal 0 0 -1
    outer loop
      vertex 2.45196 -0.487725 0
      vertex 2.45196 0.487725 0
      vertex 2.47861 0.326315 0
    endloop
  endfacet
  facet normal 0 0 -1
    outer loop
      vertex 2.41481 -0.647047 0
      vertex 2.45196 0.487725 0
      vertex 2.45196 -0.487725 0
    endloop
  endfacet
  facet normal 0 0 -1
    outer loop
      vertex 2.41481 -0.647047 0
      vertex 2.41481 0.647047 0
      vertex 2.45196 0.487725 0
    endloop
  endfacet
  facet normal 0 0 -1
    outer loop
      vertex 2.36732 -0.803598 0
      vertex 2.41481 0.647047 0
      vertex 2.41481 -0.647047 0
    endloop
  endfacet
  facet normal 0 0 -1
    outer loop
      vertex 2.36732 -0.803598 0
      vertex 2.36732 0.803598 0
      vertex 2.41481 0.647047 0
    endloop
  endfacet
  facet normal 0 0 -1
    outer loop
      vertex 2.3097 -0.956708 0
      vertex 2.36732 0.803598 0
      vertex 2.36732 -0.803598 0
    endloop
  endfacet
  facet normal 0 0 -1
    outer loop
      vertex 2.3097 -0.956708 0
      vertex 2.3097 0.956708 0
      vertex 2.36732 0.803598 0
    endloop
  endfacet
  facet normal 0 0 -1
    outer loop
      vertex 2.24218 -1.10572 0
      vertex 2.3097 0.956708 0
      vertex 2.3097 -0.956708 0
    endloop
  endfacet
  facet normal 0 0 -1
    outer loop
      vertex 2.24218 -1.10572 0
      vertex 2.24218 1.10572 0
      vertex 2.3097 0.956708 0
    endloop
  endfacet
  facet normal 0 0 -1
    outer loop
      vertex 2.16506 -1.25 0
      vertex 2.24218 1.10572 0
      vertex 2.24218 -1.10572 0
    endloop
  endfacet
  facet normal 0 0 -1
    outer loop
      vertex 2.16506 -1.25 0
      vertex 2.16506 1.25 0
      vertex 2.24218 1.10572 0
    endloop
  endfacet
  facet normal 0 0 -1
    outer loop
      vertex 2.07867 -1.38893 0
      vertex 2.16506 1.25 0
      vertex 2.16506 -1.25 0
    endloop
  endfacet
  facet normal 0 0 -1
    outer loop
      vertex 2.07867 -1.38893 0
      vertex 2.07867 1.38893 0
      vertex 2.16506 1.25 0
    endloop
  endfacet
  facet normal 0 0 -1
    outer loop
      vertex 1.98338 -1.5219 0
      vertex 2.07867 1.38893 0
      vertex 2.07867 -1.38893 0
    endloop
  endfacet
  facet normal 0 0 -1
    outer loop
      vertex 1.98338 -1.5219 0
      vertex 1.98338 1.5219 0
      vertex 2.07867 1.38893 0
    endloop
  endfacet
  facet normal 0 0 -1
    outer loop
      vertex 1.8796 -1.64836 0
      vertex 1.98338 1.5219 0
      vertex 1.98338 -1.5219 0
    endloop
  endfacet
  facet normal 0 0 -1
    outer loop
      vertex 1.8796 -1.64836 0
      vertex 1.8796 1.64836 0
      vertex 1.98338 1.5219 0
    endloop
  endfacet
  facet normal 0 0 -1
    outer loop
      vertex 1.76777 -1.76777 0
      vertex 1.8796 1.64836 0
      vertex 1.8796 -1.64836 0
    endloop
  endfacet
  facet normal 0 0 -1
    outer loop
      vertex 1.76777 -1.76777 0
      vertex 1.76777 1.76777 0
      vertex 1.8796 1.64836 0
    endloop
  endfacet
  facet normal 0 0 -1
    outer loop
      vertex 1.64836 -1.8796 0
      vertex 1.76777 1.76777 0
      vertex 1.76777 -1.76777 0
    endloop
  endfacet
  facet normal 0 0 -1
    outer loop
      vertex 1.64836 -1.8796 0
      vertex 1.64836 1.8796 0
      vertex 1.76777 1.76777 0
    endloop
  endfacet
  facet normal 0 0 -1
    outer loop
      vertex 1.5219 -1.98338 0
      vertex 1.64836 1.8796 0
      vertex 1.64836 -1.8796 0
    endloop
  endfacet
  facet normal 0 0 -1
    outer loop
      vertex 1.5219 -1.98338 0
      vertex 1.5219 1.98338 0
      vertex 1.64836 1.8796 0
    endloop
  endfacet
  facet normal 0 0 -1
    outer loop
      vertex 1.38893 -2.07867 0
      vertex 1.5219 1.98338 0
      vertex 1.5219 -1.98338 0
    endloop
  endfacet
  facet normal 0 0 -1
    outer loop
      vertex 1.38893 -2.07867 0
      vertex 1.38893 2.07867 0
      vertex 1.5219 1.98338 0
    endloop
  endfacet
  facet normal 0 0 -1
    outer loop
      vertex 1.25 -2.16506 0
      vertex 1.38893 2.07867 0
      vertex 1.38893 -2.07867 0
    endloop
  endfacet
  facet normal 0 0 -1
    outer loop
      vertex 1.25 -2.16506 0
      vertex 1.25 2.16506 0
      vertex 1.38893 2.07867 0
    endloop
  endfacet
  facet normal 0 0 -1
    outer loop
      vertex 1.10572 -2.24218 0
      vertex 1.25 2.16506 0
      vertex 1.25 -2.16506 0
    endloop
  endfacet
  facet normal 0 0 -1
    outer loop
      vertex 1.10572 -2.24218 0
      vertex 1.10572 2.24218 0
      vertex 1.25 2.16506 0
    endloop
  endfacet
  facet normal 0 0 -1
    outer loop
      vertex 0.956708 -2.3097 0
      vertex 1.10572 2.24218 0
      vertex 1.10572 -2.24218 0
    endloop
  endfacet
  facet normal 0 0 -1
    outer loop
      vertex 0.956708 -2.3097 0
      vertex 0.956708 2.3097 0
      vertex 1.10572 2.24218 0
    endloop
  endfacet
  facet normal 0 0 -1
    outer loop
      vertex 0.803598 -2.36732 0
      vertex 0.956708 2.3097 0
      vertex 0.956708 -2.3097 0
    endloop
  endfacet
  facet normal 0 0 -1
    outer loop
      vertex 0.803598 -2.36732 0
      vertex 0.803598 2.36732 0
      vertex 0.956708 2.3097 0
    endloop
  endfacet
  facet normal 0 0 -1
    outer loop
      vertex 0.647047 -2.41481 0
      vertex 0.803598 2.36732 0
      vertex 0.803598 -2.36732 0
    endloop
  endfacet
  facet normal 0 0 -1
    outer loop
      vertex 0.647047 -2.41481 0
      vertex 0.647047 2.41481 0
      vertex 0.803598 2.36732 0
    endloop
  endfacet
  facet normal 0 0 -1
    outer loop
      vertex 0.487725 -2.45196 0
      vertex 0.647047 2.41481 0
      vertex 0.647047 -2.41481 0
    endloop
  endfacet
  facet normal 0 0 -1
    outer loop
      vertex 0.487725 -2.45196 0
      vertex 0.487725 2.45196 0
      vertex 0.647047 2.41481 0
    endloop
  endfacet
  facet normal 0 0 -1
    outer loop
      vertex 0.326315 -2.47861 0
      vertex 0.487725 2.45196 0
      vertex 0.487725 -2.45196 0
    endloop
  endfacet
  facet normal 0 0 -1
    outer loop
      vertex 0.326315 -2.47861 0
      vertex 0.326315 2.47861 0
      vertex 0.487725 2.45196 0
    endloop
  endfacet
  facet normal 0 0 -1
    outer loop
      vertex 0.163507 -2.49465 0
      vertex 0.326315 2.47861 0
      vertex 0.326315 -2.47861 0
    endloop
  endfacet
  facet normal 0 0 -1
    outer loop
      vertex 0.163507 -2.49465 0
      vertex 0.163507 2.49465 0
      vertex 0.326315 2.47861 0
    endloop
  endfacet
  facet normal 0 0 -1
    outer loop
      vertex 0 -2.5 0
      vertex 0.163507 2.49465 0
      vertex 0.163507 -2.49465 0
    endloop
  endfacet
  facet normal 0 0 -1
    outer loop
      vertex 0 -2.5 0
      vertex 0 2.5 0
      vertex 0.163507 2.49465 0
    endloop
  endfacet
  facet normal 0 0 -1
    outer loop
      vertex -0.163507 -2.49465 0
      vertex 0 2.5 0
      vertex 0 -2.5 0
    endloop
  endfacet
  facet normal 0 0 -1
    outer loop
      vertex -0.163507 -2.49465 0
      vertex -0.163507 2.49465 0
      vertex 0 2.5 0
    endloop
  endfacet
  facet normal 0 0 -1
    outer loop
      vertex -0.326315 -2.47861 0
      vertex -0.163507 2.49465 0
      vertex -0.163507 -2.49465 0
    endloop
  endfacet
  facet normal 0 0 -1
    outer loop
      vertex -0.326315 -2.47861 0
      vertex -0.326315 2.47861 0
      vertex -0.163507 2.49465 0
    endloop
  endfacet
  facet normal 0 0 -1
    outer loop
      vertex -0.487725 -2.45196 0
      vertex -0.326315 2.47861 0
      vertex -0.326315 -2.47861 0
    endloop
  endfacet
  facet normal 0 0 -1
    outer loop
      vertex -0.487725 -2.45196 0
      vertex -0.487725 2.45196 0
      vertex -0.326315 2.47861 0
    endloop
  endfacet
  facet normal 0 0 -1
    outer loop
      vertex -0.647047 -2.41481 0
      vertex -0.487725 2.45196 0
      vertex -0.487725 -2.45196 0
    endloop
  endfacet
  facet normal 0 0 -1
    outer loop
      vertex -0.647047 -2.41481 0
      vertex -0.647047 2.41481 0
      vertex -0.487725 2.45196 0
    endloop
  endfacet
  facet normal 0 0 -1
    outer loop
      vertex -0.803598 -2.36732 0
      vertex -0.647047 2.41481 0
      vertex -0.647047 -2.41481 0
    endloop
  endfacet
  facet normal 0 0 -1
    outer loop
      vertex -0.803598 -2.36732 0
      vertex -0.803598 2.36732 0
      vertex -0.647047 2.41481 0
    endloop
  endfacet
  facet normal 0 0 -1
    outer loop
      vertex -0.956708 -2.3097 0
      vertex -0.803598 2.36732 0
      vertex -0.803598 -2.36732 0
    endloop
  endfacet
  facet normal 0 0 -1
    outer loop
      vertex -0.956708 -2.3097 0
      vertex -0.956708 2.3097 0
      vertex -0.803598 2.36732 0
    endloop
  endfacet
  facet normal 0 0 -1
    outer loop
      vertex -1.10572 -2.24218 0
      vertex -0.956708 2.3097 0
      vertex -0.956708 -2.3097 0
    endloop
  endfacet
  facet normal 0 0 -1
    outer loop
      vertex -1.10572 -2.24218 0
      vertex -1.10572 2.24218 0
      vertex -0.956708 2.3097 0
    endloop
  endfacet
  facet normal 0 0 -1
    outer loop
      vertex -1.25 -2.16506 0
      vertex -1.10572 2.24218 0
      vertex -1.10572 -2.24218 0
    endloop
  endfacet
  facet normal 0 0 -1
    outer loop
      vertex -1.25 -2.16506 0
      vertex -1.25 2.16506 0
      vertex -1.10572 2.24218 0
    endloop
  endfacet
  facet normal 0 0 -1
    outer loop
      vertex -1.38893 -2.07867 0
      vertex -1.25 2.16506 0
      vertex -1.25 -2.16506 0
    endloop
  endfacet
  facet normal 0 0 -1
    outer loop
      vertex -1.38893 -2.07867 0
      vertex -1.38893 2.07867 0
      vertex -1.25 2.16506 0
    endloop
  endfacet
  facet normal 0 0 -1
    outer loop
      vertex -1.5219 -1.98338 0
      vertex -1.38893 2.07867 0
      vertex -1.38893 -2.07867 0
    endloop
  endfacet
  facet normal 0 0 -1
    outer loop
      vertex -1.5219 -1.98338 0
      vertex -1.5219 1.98338 0
      vertex -1.38893 2.07867 0
    endloop
  endfacet
  facet normal 0 0 -1
    outer loop
      vertex -1.64836 -1.8796 0
      vertex -1.5219 1.98338 0
      vertex -1.5219 -1.98338 0
    endloop
  endfacet
  facet normal 0 0 -1
    outer loop
      vertex -1.64836 -1.8796 0
      vertex -1.64836 1.8796 0
      vertex -1.5219 1.98338 0
    endloop
  endfacet
  facet normal 0 0 -1
    outer loop
      vertex -1.76777 -1.76777 0
      vertex -1.64836 1.8796 0
      vertex -1.64836 -1.8796 0
    endloop
  endfacet
  facet normal 0 0 -1
    outer loop
      vertex -1.76777 -1.76777 0
      vertex -1.76777 1.76777 0
      vertex -1.64836 1.8796 0
    endloop
  endfacet
  facet normal 0 0 -1
    outer loop
      vertex -1.8796 -1.64836 0
      vertex -1.76777 1.76777 0
      vertex -1.76777 -1.76777 0
    endloop
  endfacet
  facet normal 0 0 -1
    outer loop
      vertex -1.8796 -1.64836 0
      vertex -1.8796 1.64836 0
      vertex -1.76777 1.76777 0
    endloop
  endfacet
  facet normal 0 0 -1
    outer loop
      vertex -1.98338 -1.5219 0
      vertex -1.8796 1.64836 0
      vertex -1.8796 -1.64836 0
    endloop
  endfacet
  facet normal 0 0 -1
    outer loop
      vertex -1.98338 -1.5219 0
      vertex -1.98338 1.5219 0
      vertex -1.8796 1.64836 0
    endloop
  endfacet
  facet normal 0 0 -1
    outer loop
      vertex -2.07867 -1.38893 0
      vertex -1.98338 1.5219 0
      vertex -1.98338 -1.5219 0
    endloop
  endfacet
  facet normal 0 0 -1
    outer loop
      vertex -2.07867 -1.38893 0
      vertex -2.07867 1.38893 0
      vertex -1.98338 1.5219 0
    endloop
  endfacet
  facet normal 0 0 -1
    outer loop
      vertex -2.16506 -1.25 0
      vertex -2.07867 1.38893 0
      vertex -2.07867 -1.38893 0
    endloop
  endfacet
  facet normal 0 0 -1
    outer loop
      vertex -2.16506 -1.25 0
      vertex -2.16506 1.25 0
      vertex -2.07867 1.38893 0
    endloop
  endfacet
  facet normal 0 0 -1
    outer loop
      vertex -2.24218 -1.10572 0
      vertex -2.16506 1.25 0
      vertex -2.16506 -1.25 0
    endloop
  endfacet
  facet normal 0 0 -1
    outer loop
      vertex -2.24218 -1.10572 0
      vertex -2.24218 1.10572 0
      vertex -2.16506 1.25 0
    endloop
  endfacet
  facet normal 0 0 -1
    outer loop
      vertex -2.3097 -0.956708 0
      vertex -2.24218 1.10572 0
      vertex -2.24218 -1.10572 0
    endloop
  endfacet
  facet normal 0 0 -1
    outer loop
      vertex -2.3097 -0.956708 0
      vertex -2.3097 0.956708 0
      vertex -2.24218 1.10572 0
    endloop
  endfacet
  facet normal 0 0 -1
    outer loop
      vertex -2.36732 -0.803598 0
      vertex -2.3097 0.956708 0
      vertex -2.3097 -0.956708 0
    endloop
  endfacet
  facet normal 0 0 -1
    outer loop
      vertex -2.36732 -0.803598 0
      vertex -2.36732 0.803598 0
      vertex -2.3097 0.956708 0
    endloop
  endfacet
  facet normal 0 0 -1
    outer loop
      vertex -2.41481 -0.647047 0
      vertex -2.36732 0.803598 0
      vertex -2.36732 -0.803598 0
    endloop
  endfacet
  facet normal 0 0 -1
    outer loop
      vertex -2.41481 -0.647047 0
      vertex -2.41481 0.647047 0
      vertex -2.36732 0.803598 0
    endloop
  endfacet
  facet normal 0 0 -1
    outer loop
      vertex -2.45196 -0.487725 0
      vertex -2.41481 0.647047 0
      vertex -2.41481 -0.647047 0
    endloop
  endfacet
  facet normal 0 0 -1
    outer loop
      vertex -2.45196 -0.487725 0
      vertex -2.45196 0.487725 0
      vertex -2.41481 0.647047 0
    endloop
  endfacet
  facet normal 0 0 -1
    outer loop
      vertex -2.47861 -0.326315 0
      vertex -2.45196 0.487725 0
      vertex -2.45196 -0.487725 0
    endloop
  endfacet
  facet normal 0 0 -1
    outer loop
      vertex -2.47861 -0.326315 0
      vertex -2.47861 0.326315 0
      vertex -2.45196 0.487725 0
    endloop
  endfacet
  facet normal 0 0 -1
    outer loop
      vertex -2.49465 -0.163507 0
      vertex -2.47861 0.326315 0
      vertex -2.47861 -0.326315 0
    endloop
  endfacet
  facet normal 0 0 -1
    outer loop
      vertex -2.49465 -0.163507 0
      vertex -2.49465 0.163507 0
      vertex -2.47861 0.326315 0
    endloop
  endfacet
  facet normal 0 -0 -1
    outer loop
      vertex -2.49465 0.163507 0
      vertex -2.49465 -0.163507 0
      vertex -2.5 0 0
    endloop
  endfacet
  facet normal -0.0327028 0.999465 0
    outer loop
      vertex 0 2.5 0
      vertex -0.163507 2.49465 114
      vertex 0 2.5 114
    endloop
  endfacet
  facet normal -0.0327028 0.999465 0
    outer loop
      vertex -0.163507 2.49465 114
      vertex 0 2.5 0
      vertex -0.163507 2.49465 0
    endloop
  endfacet
  facet normal -0.729894 -0.683561 0
    outer loop
      vertex -1.76777 -1.76777 0
      vertex -1.8796 -1.64836 114
      vertex -1.8796 -1.64836 0
    endloop
  endfacet
  facet normal -0.729894 -0.683561 0
    outer loop
      vertex -1.8796 -1.64836 114
      vertex -1.76777 -1.76777 0
      vertex -1.76777 -1.76777 114
    endloop
  endfacet
  facet normal -0.812832 0.582498 0
    outer loop
      vertex -2.07867 1.38893 0
      vertex -1.98338 1.5219 114
      vertex -1.98338 1.5219 0
    endloop
  endfacet
  facet normal -0.812832 0.582498 0
    outer loop
      vertex -1.98338 1.5219 114
      vertex -2.07867 1.38893 0
      vertex -2.07867 1.38893 114
    endloop
  endfacet
  facet normal -0.77302 -0.634382 0
    outer loop
      vertex -1.8796 -1.64836 0
      vertex -1.98338 -1.5219 114
      vertex -1.98338 -1.5219 0
    endloop
  endfacet
  facet normal -0.77302 -0.634382 0
    outer loop
      vertex -1.98338 -1.5219 114
      vertex -1.8796 -1.64836 0
      vertex -1.8796 -1.64836 114
    endloop
  endfacet
  facet normal 0.582498 -0.812832 0
    outer loop
      vertex 1.38893 -2.07867 0
      vertex 1.5219 -1.98338 114
      vertex 1.38893 -2.07867 114
    endloop
  endfacet
  facet normal 0.582498 -0.812832 0
    outer loop
      vertex 1.5219 -1.98338 114
      vertex 1.38893 -2.07867 0
      vertex 1.5219 -1.98338 0
    endloop
  endfacet
  facet normal -0.910856 0.412725 0
    outer loop
      vertex -2.3097 0.956708 0
      vertex -2.24218 1.10572 114
      vertex -2.24218 1.10572 0
    endloop
  endfacet
  facet normal -0.910856 0.412725 0
    outer loop
      vertex -2.24218 1.10572 114
      vertex -2.3097 0.956708 0
      vertex -2.3097 0.956708 114
    endloop
  endfacet
  facet normal 0.528058 -0.849208 0
    outer loop
      vertex 1.25 -2.16506 0
      vertex 1.38893 -2.07867 114
      vertex 1.25 -2.16506 114
    endloop
  endfacet
  facet normal 0.528058 -0.849208 0
    outer loop
      vertex 1.38893 -2.07867 114
      vertex 1.25 -2.16506 0
      vertex 1.38893 -2.07867 0
    endloop
  endfacet
  facet normal 0.986642 -0.162902 0
    outer loop
      vertex 2.45196 -0.487725 22
      vertex 2.47861 -0.326315 0
      vertex 2.47861 -0.326315 22
    endloop
  endfacet
  facet normal 0.986642 -0.162902 0
    outer loop
      vertex 2.47861 -0.326315 0
      vertex 2.45196 -0.487725 22
      vertex 2.45196 -0.487725 0
    endloop
  endfacet
  facet normal 0.986642 -0.162902 0
    outer loop
      vertex 2.45196 -0.487725 114
      vertex 2.47861 -0.326315 102
      vertex 2.47861 -0.326315 114
    endloop
  endfacet
  facet normal 0.986642 -0.162902 0
    outer loop
      vertex 2.47861 -0.326315 102
      vertex 2.45196 -0.487725 114
      vertex 2.45196 -0.487725 102
    endloop
  endfacet
  facet normal -0.881919 0.4714 0
    outer loop
      vertex -2.24218 1.10572 0
      vertex -2.16506 1.25 114
      vertex -2.16506 1.25 0
    endloop
  endfacet
  facet normal -0.881919 0.4714 0
    outer loop
      vertex -2.16506 1.25 114
      vertex -2.24218 1.10572 0
      vertex -2.24218 1.10572 114
    endloop
  endfacet
  facet normal -0.290289 -0.956939 0
    outer loop
      vertex -0.803598 -2.36732 0
      vertex -0.647047 -2.41481 114
      vertex -0.803598 -2.36732 114
    endloop
  endfacet
  facet normal -0.290289 -0.956939 -0
    outer loop
      vertex -0.647047 -2.41481 114
      vertex -0.803598 -2.36732 0
      vertex -0.647047 -2.41481 0
    endloop
  endfacet
  facet normal -0.528058 -0.849208 0
    outer loop
      vertex -1.38893 -2.07867 0
      vertex -1.25 -2.16506 114
      vertex -1.38893 -2.07867 114
    endloop
  endfacet
  facet normal -0.528058 -0.849208 -0
    outer loop
      vertex -1.25 -2.16506 114
      vertex -1.38893 -2.07867 0
      vertex -1.25 -2.16506 0
    endloop
  endfacet
  facet normal 0.227084 0.973875 -0
    outer loop
      vertex 0.647047 2.41481 0
      vertex 0.487725 2.45196 114
      vertex 0.647047 2.41481 114
    endloop
  endfacet
  facet normal 0.227084 0.973875 0
    outer loop
      vertex 0.487725 2.45196 114
      vertex 0.647047 2.41481 0
      vertex 0.487725 2.45196 0
    endloop
  endfacet
  facet normal 0.634382 -0.77302 0
    outer loop
      vertex 1.5219 -1.98338 0
      vertex 1.64836 -1.8796 114
      vertex 1.5219 -1.98338 114
    endloop
  endfacet
  facet normal 0.634382 -0.77302 0
    outer loop
      vertex 1.64836 -1.8796 114
      vertex 1.5219 -1.98338 0
      vertex 1.64836 -1.8796 0
    endloop
  endfacet
  facet normal -0.412725 -0.910856 0
    outer loop
      vertex -1.10572 -2.24218 0
      vertex -0.956708 -2.3097 114
      vertex -1.10572 -2.24218 114
    endloop
  endfacet
  facet normal -0.412725 -0.910856 -0
    outer loop
      vertex -0.956708 -2.3097 114
      vertex -1.10572 -2.24218 0
      vertex -0.956708 -2.3097 0
    endloop
  endfacet
  facet normal 0 0 -1
    outer loop
      vertex 2.49465 -0.163507 102
      vertex 2.49465 0.163507 102
      vertex 2.5 0 102
    endloop
  endfacet
  facet normal 0 0 -1
    outer loop
      vertex 2.47861 -0.326315 102
      vertex 2.49465 0.163507 102
      vertex 2.49465 -0.163507 102
    endloop
  endfacet
  facet normal 0 0 -1
    outer loop
      vertex 2.47861 -0.326315 102
      vertex 2.47861 0.326315 102
      vertex 2.49465 0.163507 102
    endloop
  endfacet
  facet normal 0 0 -1
    outer loop
      vertex 2.45196 -0.487725 102
      vertex 2.47861 0.326315 102
      vertex 2.47861 -0.326315 102
    endloop
  endfacet
  facet normal 0 0 -1
    outer loop
      vertex 2.45196 -0.487725 102
      vertex 2.45196 0.487725 102
      vertex 2.47861 0.326315 102
    endloop
  endfacet
  facet normal 0 0 -1
    outer loop
      vertex 2.41481 -0.647047 102
      vertex 2.45196 0.487725 102
      vertex 2.45196 -0.487725 102
    endloop
  endfacet
  facet normal 0 0 -1
    outer loop
      vertex 2.41481 -0.647047 102
      vertex 2.41481 0.647047 102
      vertex 2.45196 0.487725 102
    endloop
  endfacet
  facet normal 0 0 -1
    outer loop
      vertex 2.36732 -0.803598 102
      vertex 2.41481 0.647047 102
      vertex 2.41481 -0.647047 102
    endloop
  endfacet
  facet normal 0 0 -1
    outer loop
      vertex 2.36732 -0.803598 102
      vertex 2.36732 0.803598 102
      vertex 2.41481 0.647047 102
    endloop
  endfacet
  facet normal 0 0 -1
    outer loop
      vertex 2.3097 -0.956708 102
      vertex 2.36732 0.803598 102
      vertex 2.36732 -0.803598 102
    endloop
  endfacet
  facet normal 0 0 -1
    outer loop
      vertex 2.3097 -0.956708 102
      vertex 2.3097 0.956708 102
      vertex 2.36732 0.803598 102
    endloop
  endfacet
  facet normal 0 0 -1
    outer loop
      vertex 2.24218 -1.10572 102
      vertex 2.3097 0.956708 102
      vertex 2.3097 -0.956708 102
    endloop
  endfacet
  facet normal 0 0 -1
    outer loop
      vertex 2.24218 -1.10572 102
      vertex 2.24218 1.10572 102
      vertex 2.3097 0.956708 102
    endloop
  endfacet
  facet normal 0 0 -1
    outer loop
      vertex 2.16506 -1.25 102
      vertex 2.24218 1.10572 102
      vertex 2.24218 -1.10572 102
    endloop
  endfacet
  facet normal 0 0 -1
    outer loop
      vertex 2.16506 -1.25 102
      vertex 2.16506 1.25 102
      vertex 2.24218 1.10572 102
    endloop
  endfacet
  facet normal 0 0 -1
    outer loop
      vertex 2.07867 -1.38893 102
      vertex 2.16506 1.25 102
      vertex 2.16506 -1.25 102
    endloop
  endfacet
  facet normal 0 0 -1
    outer loop
      vertex 2.07867 -1.38893 102
      vertex 2.07867 1.38893 102
      vertex 2.16506 1.25 102
    endloop
  endfacet
  facet normal 0 0 -1
    outer loop
      vertex 1.98338 -1.5219 102
      vertex 2.07867 1.38893 102
      vertex 2.07867 -1.38893 102
    endloop
  endfacet
  facet normal 0 0 -1
    outer loop
      vertex 1.98338 -1.5219 102
      vertex 1.98338 1.5219 102
      vertex 2.07867 1.38893 102
    endloop
  endfacet
  facet normal 0 0 -1
    outer loop
      vertex 1.8796 -1.64836 102
      vertex 1.98338 1.5219 102
      vertex 1.98338 -1.5219 102
    endloop
  endfacet
  facet normal 0 0 -1
    outer loop
      vertex 1.8796 -1.64836 102
      vertex 1.8796 1.64836 102
      vertex 1.98338 1.5219 102
    endloop
  endfacet
  facet normal 0 0 -1
    outer loop
      vertex 1.7 -1.83124 102
      vertex 1.8796 -1.64836 102
      vertex 1.76777 -1.76777 102
    endloop
  endfacet
  facet normal -0 0 -1
    outer loop
      vertex 1.8796 -1.64836 102
      vertex 1.7 -1.83124 102
      vertex 1.8796 1.64836 102
    endloop
  endfacet
  facet normal 0 0 -1
    outer loop
      vertex 1.7 1.83124 102
      vertex 1.8796 1.64836 102
      vertex 1.7 -1.83124 102
    endloop
  endfacet
  facet normal 0 0 -1
    outer loop
      vertex 1.8796 1.64836 102
      vertex 1.7 1.83124 102
      vertex 1.76777 1.76777 102
    endloop
  endfacet
  facet normal 0 0 1
    outer loop
      vertex 2.49465 0.163507 22
      vertex 2.49465 -0.163507 22
      vertex 2.5 0 22
    endloop
  endfacet
  facet normal 0 0 1
    outer loop
      vertex 2.47861 0.326315 22
      vertex 2.49465 -0.163507 22
      vertex 2.49465 0.163507 22
    endloop
  endfacet
  facet normal 0 0 1
    outer loop
      vertex 2.47861 0.326315 22
      vertex 2.47861 -0.326315 22
      vertex 2.49465 -0.163507 22
    endloop
  endfacet
  facet normal 0 0 1
    outer loop
      vertex 2.45196 0.487725 22
      vertex 2.47861 -0.326315 22
      vertex 2.47861 0.326315 22
    endloop
  endfacet
  facet normal 0 0 1
    outer loop
      vertex 2.45196 0.487725 22
      vertex 2.45196 -0.487725 22
      vertex 2.47861 -0.326315 22
    endloop
  endfacet
  facet normal 0 0 1
    outer loop
      vertex 2.41481 0.647047 22
      vertex 2.45196 -0.487725 22
      vertex 2.45196 0.487725 22
    endloop
  endfacet
  facet normal 0 0 1
    outer loop
      vertex 2.41481 0.647047 22
      vertex 2.41481 -0.647047 22
      vertex 2.45196 -0.487725 22
    endloop
  endfacet
  facet normal 0 0 1
    outer loop
      vertex 2.36732 0.803598 22
      vertex 2.41481 -0.647047 22
      vertex 2.41481 0.647047 22
    endloop
  endfacet
  facet normal 0 0 1
    outer loop
      vertex 2.36732 0.803598 22
      vertex 2.36732 -0.803598 22
      vertex 2.41481 -0.647047 22
    endloop
  endfacet
  facet normal 0 0 1
    outer loop
      vertex 2.3097 0.956708 22
      vertex 2.36732 -0.803598 22
      vertex 2.36732 0.803598 22
    endloop
  endfacet
  facet normal 0 0 1
    outer loop
      vertex 2.3097 0.956708 22
      vertex 2.3097 -0.956708 22
      vertex 2.36732 -0.803598 22
    endloop
  endfacet
  facet normal 0 0 1
    outer loop
      vertex 2.24218 1.10572 22
      vertex 2.3097 -0.956708 22
      vertex 2.3097 0.956708 22
    endloop
  endfacet
  facet normal 0 0 1
    outer loop
      vertex 2.24218 1.10572 22
      vertex 2.24218 -1.10572 22
      vertex 2.3097 -0.956708 22
    endloop
  endfacet
  facet normal 0 0 1
    outer loop
      vertex 2.16506 1.25 22
      vertex 2.24218 -1.10572 22
      vertex 2.24218 1.10572 22
    endloop
  endfacet
  facet normal 0 0 1
    outer loop
      vertex 2.16506 1.25 22
      vertex 2.16506 -1.25 22
      vertex 2.24218 -1.10572 22
    endloop
  endfacet
  facet normal 0 0 1
    outer loop
      vertex 2.07867 1.38893 22
      vertex 2.16506 -1.25 22
      vertex 2.16506 1.25 22
    endloop
  endfacet
  facet normal 0 0 1
    outer loop
      vertex 2.07867 1.38893 22
      vertex 2.07867 -1.38893 22
      vertex 2.16506 -1.25 22
    endloop
  endfacet
  facet normal 0 0 1
    outer loop
      vertex 1.98338 1.5219 22
      vertex 2.07867 -1.38893 22
      vertex 2.07867 1.38893 22
    endloop
  endfacet
  facet normal 0 0 1
    outer loop
      vertex 1.98338 1.5219 22
      vertex 1.98338 -1.5219 22
      vertex 2.07867 -1.38893 22
    endloop
  endfacet
  facet normal 0 0 1
    outer loop
      vertex 1.8796 1.64836 22
      vertex 1.98338 -1.5219 22
      vertex 1.98338 1.5219 22
    endloop
  endfacet
  facet normal 0 0 1
    outer loop
      vertex 1.8796 1.64836 22
      vertex 1.8796 -1.64836 22
      vertex 1.98338 -1.5219 22
    endloop
  endfacet
  facet normal 0 0 1
    outer loop
      vertex 1.7 1.83124 22
      vertex 1.8796 1.64836 22
      vertex 1.76777 1.76777 22
    endloop
  endfacet
  facet normal 0 0 1
    outer loop
      vertex 1.8796 1.64836 22
      vertex 1.7 1.83124 22
      vertex 1.8796 -1.64836 22
    endloop
  endfacet
  facet normal 0 0 1
    outer loop
      vertex 1.7 -1.83124 22
      vertex 1.8796 -1.64836 22
      vertex 1.7 1.83124 22
    endloop
  endfacet
  facet normal 0 0 1
    outer loop
      vertex 1.8796 -1.64836 22
      vertex 1.7 -1.83124 22
      vertex 1.76777 -1.76777 22
    endloop
  endfacet
  facet normal 1 -0 0
    outer loop
      vertex 1.7 -1.83124 102
      vertex 1.7 1.83124 22
      vertex 1.7 1.83124 102
    endloop
  endfacet
  facet normal 1 0 0
    outer loop
      vertex 1.7 1.83124 22
      vertex 1.7 -1.83124 102
      vertex 1.7 -1.83124 22
    endloop
  endfacet
endsolid OpenSCAD_Model
