solid OpenSCAD_Model
  facet normal 1 0 0
    outer loop
      vertex 120 100 160
      vertex 120 80 80
      vertex 120 100 0
    endloop
  endfacet
  facet normal 1 0 0
    outer loop
      vertex 120 100 160
      vertex 120 27.5 137
      vertex 120 80 80
    endloop
  endfacet
  facet normal 1 0 0
    outer loop
      vertex 120 100 160
      vertex 120 27.26 137.624
      vertex 120 27.5 137
    endloop
  endfacet
  facet normal 1 0 0
    outer loop
      vertex 120 100 160
      vertex 120 -27.26 137.624
      vertex 120 27.26 137.624
    endloop
  endfacet
  facet normal 1 0 0
    outer loop
      vertex 120 -27.5 137
      vertex 120 -80 80
      vertex 120 -27.5 92
    endloop
  endfacet
  facet normal 1 0 0
    outer loop
      vertex 120 -100 160
      vertex 120 -27.5 137
      vertex 120 -27.26 137.624
    endloop
  endfacet
  facet normal 1 -0 0
    outer loop
      vertex 120 -100 160
      vertex 120 -27.26 137.624
      vertex 120 100 160
    endloop
  endfacet
  facet normal 1 0 0
    outer loop
      vertex 120 -27.5 137
      vertex 120 -100 160
      vertex 120 -80 80
    endloop
  endfacet
  facet normal 1 0 0
    outer loop
      vertex 120 -100 0
      vertex 120 -80 80
      vertex 120 -100 160
    endloop
  endfacet
  facet normal 1 0 0
    outer loop
      vertex 120 -80 80
      vertex 120 -100 0
      vertex 120 -80 0
    endloop
  endfacet
  facet normal 1 0 0
    outer loop
      vertex 120 100 0
      vertex 120 80 80
      vertex 120 80 0
    endloop
  endfacet
  facet normal 1 -0 0
    outer loop
      vertex 120 27.5 92
      vertex 120 80 80
      vertex 120 27.5 137
    endloop
  endfacet
  facet normal 1 -0 0
    outer loop
      vertex 120 -27.5 92
      vertex 120 80 80
      vertex 120 27.5 92
    endloop
  endfacet
  facet normal 1 0 0
    outer loop
      vertex 120 80 80
      vertex 120 -27.5 92
      vertex 120 -80 80
    endloop
  endfacet
  facet normal 0 0 1
    outer loop
      vertex 120 100 160
      vertex 64.3 0 160
      vertex 120 -100 160
    endloop
  endfacet
  facet normal 0 0 1
    outer loop
      vertex 120 100 160
      vertex 63.9904 6.3025 160
      vertex 64.3 0 160
    endloop
  endfacet
  facet normal 0 0 1
    outer loop
      vertex 120 100 160
      vertex 63.0645 12.5443 160
      vertex 63.9904 6.3025 160
    endloop
  endfacet
  facet normal 0 0 1
    outer loop
      vertex 120 100 160
      vertex 61.5313 18.6653 160
      vertex 63.0645 12.5443 160
    endloop
  endfacet
  facet normal 0 0 1
    outer loop
      vertex 120 100 160
      vertex 59.4055 24.6065 160
      vertex 61.5313 18.6653 160
    endloop
  endfacet
  facet normal 0 0 1
    outer loop
      vertex 120 100 160
      vertex 56.7075 30.3108 160
      vertex 59.4055 24.6065 160
    endloop
  endfacet
  facet normal 0 0 1
    outer loop
      vertex 120 100 160
      vertex 53.4635 35.7232 160
      vertex 56.7075 30.3108 160
    endloop
  endfacet
  facet normal 0 0 1
    outer loop
      vertex 120 100 160
      vertex 49.7046 40.7915 160
      vertex 53.4635 35.7232 160
    endloop
  endfacet
  facet normal 0 0 1
    outer loop
      vertex 120 100 160
      vertex 45.467 45.467 160
      vertex 49.7046 40.7915 160
    endloop
  endfacet
  facet normal 0 0 1
    outer loop
      vertex 120 100 160
      vertex 40.7915 49.7046 160
      vertex 45.467 45.467 160
    endloop
  endfacet
  facet normal 0 0 1
    outer loop
      vertex 120 100 160
      vertex 35.7232 53.4635 160
      vertex 40.7915 49.7046 160
    endloop
  endfacet
  facet normal 0 0 1
    outer loop
      vertex 120 100 160
      vertex 30.3108 56.7075 160
      vertex 35.7232 53.4635 160
    endloop
  endfacet
  facet normal 0 0 1
    outer loop
      vertex 120 100 160
      vertex 24.6065 59.4055 160
      vertex 30.3108 56.7075 160
    endloop
  endfacet
  facet normal 0 0 1
    outer loop
      vertex 120 100 160
      vertex 18.6653 61.5313 160
      vertex 24.6065 59.4055 160
    endloop
  endfacet
  facet normal 0 0 1
    outer loop
      vertex 120 100 160
      vertex 12.5443 63.0645 160
      vertex 18.6653 61.5313 160
    endloop
  endfacet
  facet normal 0 0 1
    outer loop
      vertex 120 100 160
      vertex 6.3025 63.9904 160
      vertex 12.5443 63.0645 160
    endloop
  endfacet
  facet normal 0 0 1
    outer loop
      vertex 120 100 160
      vertex 0 64.3 160
      vertex 6.3025 63.9904 160
    endloop
  endfacet
  facet normal -0 0 1
    outer loop
      vertex -120 100 160
      vertex 0 64.3 160
      vertex 120 100 160
    endloop
  endfacet
  facet normal 0 0 1
    outer loop
      vertex 0 64.3 160
      vertex -120 100 160
      vertex -6.3025 63.9904 160
    endloop
  endfacet
  facet normal 0 0 1
    outer loop
      vertex -6.3025 63.9904 160
      vertex -120 100 160
      vertex -12.5443 63.0645 160
    endloop
  endfacet
  facet normal 0 0 1
    outer loop
      vertex -63.9904 6.3025 160
      vertex -120 100 160
      vertex -64.3 0 160
    endloop
  endfacet
  facet normal 0 0 1
    outer loop
      vertex -63.0645 12.5443 160
      vertex -120 100 160
      vertex -63.9904 6.3025 160
    endloop
  endfacet
  facet normal 0 0 1
    outer loop
      vertex -61.5313 18.6653 160
      vertex -120 100 160
      vertex -63.0645 12.5443 160
    endloop
  endfacet
  facet normal 0 0 1
    outer loop
      vertex -59.4055 24.6065 160
      vertex -120 100 160
      vertex -61.5313 18.6653 160
    endloop
  endfacet
  facet normal 0 0 1
    outer loop
      vertex -56.7075 30.3108 160
      vertex -120 100 160
      vertex -59.4055 24.6065 160
    endloop
  endfacet
  facet normal 0 0 1
    outer loop
      vertex -53.4635 35.7232 160
      vertex -120 100 160
      vertex -56.7075 30.3108 160
    endloop
  endfacet
  facet normal 0 0 1
    outer loop
      vertex -49.7046 40.7915 160
      vertex -120 100 160
      vertex -53.4635 35.7232 160
    endloop
  endfacet
  facet normal 0 0 1
    outer loop
      vertex -45.467 45.467 160
      vertex -120 100 160
      vertex -49.7046 40.7915 160
    endloop
  endfacet
  facet normal 0 0 1
    outer loop
      vertex -40.7915 49.7046 160
      vertex -120 100 160
      vertex -45.467 45.467 160
    endloop
  endfacet
  facet normal 0 0 1
    outer loop
      vertex -35.7232 53.4635 160
      vertex -120 100 160
      vertex -40.7915 49.7046 160
    endloop
  endfacet
  facet normal 0 0 1
    outer loop
      vertex -30.3108 56.7075 160
      vertex -120 100 160
      vertex -35.7232 53.4635 160
    endloop
  endfacet
  facet normal 0 0 1
    outer loop
      vertex -24.6065 59.4055 160
      vertex -120 100 160
      vertex -30.3108 56.7075 160
    endloop
  endfacet
  facet normal 0 0 1
    outer loop
      vertex -18.6653 61.5313 160
      vertex -120 100 160
      vertex -24.6065 59.4055 160
    endloop
  endfacet
  facet normal 0 0 1
    outer loop
      vertex -12.5443 63.0645 160
      vertex -120 100 160
      vertex -18.6653 61.5313 160
    endloop
  endfacet
  facet normal -0 0 1
    outer loop
      vertex 63.9904 -6.3025 160
      vertex 120 -100 160
      vertex 64.3 0 160
    endloop
  endfacet
  facet normal -0 0 1
    outer loop
      vertex 63.0645 -12.5443 160
      vertex 120 -100 160
      vertex 63.9904 -6.3025 160
    endloop
  endfacet
  facet normal -0 0 1
    outer loop
      vertex 61.5313 -18.6653 160
      vertex 120 -100 160
      vertex 63.0645 -12.5443 160
    endloop
  endfacet
  facet normal -0 0 1
    outer loop
      vertex 59.4055 -24.6065 160
      vertex 120 -100 160
      vertex 61.5313 -18.6653 160
    endloop
  endfacet
  facet normal -0 0 1
    outer loop
      vertex 56.7075 -30.3108 160
      vertex 120 -100 160
      vertex 59.4055 -24.6065 160
    endloop
  endfacet
  facet normal -0 0 1
    outer loop
      vertex 53.4635 -35.7232 160
      vertex 120 -100 160
      vertex 56.7075 -30.3108 160
    endloop
  endfacet
  facet normal -0 0 1
    outer loop
      vertex 49.7046 -40.7915 160
      vertex 120 -100 160
      vertex 53.4635 -35.7232 160
    endloop
  endfacet
  facet normal -0 0 1
    outer loop
      vertex 45.467 -45.467 160
      vertex 120 -100 160
      vertex 49.7046 -40.7915 160
    endloop
  endfacet
  facet normal -0 0 1
    outer loop
      vertex 40.7915 -49.7046 160
      vertex 120 -100 160
      vertex 45.467 -45.467 160
    endloop
  endfacet
  facet normal -0 0 1
    outer loop
      vertex 35.7232 -53.4635 160
      vertex 120 -100 160
      vertex 40.7915 -49.7046 160
    endloop
  endfacet
  facet normal -0 0 1
    outer loop
      vertex 30.3108 -56.7075 160
      vertex 120 -100 160
      vertex 35.7232 -53.4635 160
    endloop
  endfacet
  facet normal -0 0 1
    outer loop
      vertex 24.6065 -59.4055 160
      vertex 120 -100 160
      vertex 30.3108 -56.7075 160
    endloop
  endfacet
  facet normal -0 0 1
    outer loop
      vertex 18.6653 -61.5313 160
      vertex 120 -100 160
      vertex 24.6065 -59.4055 160
    endloop
  endfacet
  facet normal -0 0 1
    outer loop
      vertex 12.5443 -63.0645 160
      vertex 120 -100 160
      vertex 18.6653 -61.5313 160
    endloop
  endfacet
  facet normal -0 0 1
    outer loop
      vertex 6.3025 -63.9904 160
      vertex 120 -100 160
      vertex 12.5443 -63.0645 160
    endloop
  endfacet
  facet normal -0 0 1
    outer loop
      vertex 0 -64.3 160
      vertex 120 -100 160
      vertex 6.3025 -63.9904 160
    endloop
  endfacet
  facet normal 0 0 1
    outer loop
      vertex -120 -100 160
      vertex 0 -64.3 160
      vertex -6.3025 -63.9904 160
    endloop
  endfacet
  facet normal 0 0 1
    outer loop
      vertex -120 -100 160
      vertex -6.3025 -63.9904 160
      vertex -12.5443 -63.0645 160
    endloop
  endfacet
  facet normal 0 0 1
    outer loop
      vertex -120 -100 160
      vertex -12.5443 -63.0645 160
      vertex -18.6653 -61.5313 160
    endloop
  endfacet
  facet normal 0 0 1
    outer loop
      vertex -120 -100 160
      vertex -64.3 0 160
      vertex -120 100 160
    endloop
  endfacet
  facet normal 0 0 1
    outer loop
      vertex -64.3 0 160
      vertex -120 -100 160
      vertex -63.9904 -6.3025 160
    endloop
  endfacet
  facet normal 0 0 1
    outer loop
      vertex -63.9904 -6.3025 160
      vertex -120 -100 160
      vertex -63.0645 -12.5443 160
    endloop
  endfacet
  facet normal 0 0 1
    outer loop
      vertex -63.0645 -12.5443 160
      vertex -120 -100 160
      vertex -61.5313 -18.6653 160
    endloop
  endfacet
  facet normal 0 0 1
    outer loop
      vertex -61.5313 -18.6653 160
      vertex -120 -100 160
      vertex -59.4055 -24.6065 160
    endloop
  endfacet
  facet normal 0 0 1
    outer loop
      vertex 0 -64.3 160
      vertex -120 -100 160
      vertex 120 -100 160
    endloop
  endfacet
  facet normal 0 0 1
    outer loop
      vertex -24.6065 -59.4055 160
      vertex -120 -100 160
      vertex -18.6653 -61.5313 160
    endloop
  endfacet
  facet normal 0 0 1
    outer loop
      vertex -30.3108 -56.7075 160
      vertex -120 -100 160
      vertex -24.6065 -59.4055 160
    endloop
  endfacet
  facet normal 0 0 1
    outer loop
      vertex -35.7232 -53.4635 160
      vertex -120 -100 160
      vertex -30.3108 -56.7075 160
    endloop
  endfacet
  facet normal 0 0 1
    outer loop
      vertex -40.7915 -49.7046 160
      vertex -120 -100 160
      vertex -35.7232 -53.4635 160
    endloop
  endfacet
  facet normal 0 0 1
    outer loop
      vertex -45.467 -45.467 160
      vertex -120 -100 160
      vertex -40.7915 -49.7046 160
    endloop
  endfacet
  facet normal 0 0 1
    outer loop
      vertex -49.7046 -40.7915 160
      vertex -120 -100 160
      vertex -45.467 -45.467 160
    endloop
  endfacet
  facet normal 0 0 1
    outer loop
      vertex -53.4635 -35.7232 160
      vertex -120 -100 160
      vertex -49.7046 -40.7915 160
    endloop
  endfacet
  facet normal 0 0 1
    outer loop
      vertex -56.7075 -30.3108 160
      vertex -120 -100 160
      vertex -53.4635 -35.7232 160
    endloop
  endfacet
  facet normal 0 0 1
    outer loop
      vertex -59.4055 -24.6065 160
      vertex -120 -100 160
      vertex -56.7075 -30.3108 160
    endloop
  endfacet
  facet normal 0 0 -1
    outer loop
      vertex 120 -100 0
      vertex -10 -80 0
      vertex 120 -80 0
    endloop
  endfacet
  facet normal -0 0 -1
    outer loop
      vertex -10 -80 0
      vertex -120 -100 0
      vertex -10 80 0
    endloop
  endfacet
  facet normal 0 0 -1
    outer loop
      vertex -120 -100 0
      vertex -10 -80 0
      vertex 120 -100 0
    endloop
  endfacet
  facet normal 0 0 -1
    outer loop
      vertex -10 80 0
      vertex 120 100 0
      vertex 120 80 0
    endloop
  endfacet
  facet normal 0 0 -1
    outer loop
      vertex -10 80 0
      vertex -120 100 0
      vertex 120 100 0
    endloop
  endfacet
  facet normal 0 0 -1
    outer loop
      vertex -120 100 0
      vertex -10 80 0
      vertex -120 -100 0
    endloop
  endfacet
  facet normal -1 0 0
    outer loop
      vertex -120 100 0
      vertex -120 85 76
      vertex -120 100 160
    endloop
  endfacet
  facet normal -1 0 0
    outer loop
      vertex -120 100 0
      vertex -120 -85 76
      vertex -120 85 76
    endloop
  endfacet
  facet normal -1 0 0
    outer loop
      vertex -120 -100 160
      vertex -120 -85 76
      vertex -120 -100 0
    endloop
  endfacet
  facet normal -1 0 0
    outer loop
      vertex -120 -100 0
      vertex -120 -85 76
      vertex -120 100 0
    endloop
  endfacet
  facet normal -1 0 0
    outer loop
      vertex -120 85 156
      vertex -120 100 160
      vertex -120 85 76
    endloop
  endfacet
  facet normal -1 0 0
    outer loop
      vertex -120 -85 156
      vertex -120 100 160
      vertex -120 85 156
    endloop
  endfacet
  facet normal -1 0 0
    outer loop
      vertex -120 -85 156
      vertex -120 -100 160
      vertex -120 100 160
    endloop
  endfacet
  facet normal -1 0 0
    outer loop
      vertex -120 -85 76
      vertex -120 -100 160
      vertex -120 -85 156
    endloop
  endfacet
  facet normal 0 1 -0
    outer loop
      vertex 120 100 0
      vertex -120 100 160
      vertex 120 100 160
    endloop
  endfacet
  facet normal 0 1 0
    outer loop
      vertex -120 100 160
      vertex 120 100 0
      vertex -120 100 0
    endloop
  endfacet
  facet normal 0 -1 0
    outer loop
      vertex -120 -100 0
      vertex 120 -100 160
      vertex -120 -100 160
    endloop
  endfacet
  facet normal 0 -1 -0
    outer loop
      vertex 120 -100 160
      vertex -120 -100 0
      vertex 120 -100 0
    endloop
  endfacet
  facet normal 0 0 -1
    outer loop
      vertex -10 -80 80
      vertex 120 80 80
      vertex 120 -80 80
    endloop
  endfacet
  facet normal -0 0 -1
    outer loop
      vertex 120 80 80
      vertex -10 -80 80
      vertex -10 80 80
    endloop
  endfacet
  facet normal 1 -0 0
    outer loop
      vertex -10 -80 80
      vertex -10 80 0
      vertex -10 80 80
    endloop
  endfacet
  facet normal 1 0 0
    outer loop
      vertex -10 80 0
      vertex -10 -80 80
      vertex -10 -80 0
    endloop
  endfacet
  facet normal 0 -1 0
    outer loop
      vertex -10 80 0
      vertex 120 80 80
      vertex -10 80 80
    endloop
  endfacet
  facet normal 0 -1 -0
    outer loop
      vertex 120 80 80
      vertex -10 80 0
      vertex 120 80 0
    endloop
  endfacet
  facet normal 0 1 -0
    outer loop
      vertex 120 -80 0
      vertex -10 -80 80
      vertex 120 -80 80
    endloop
  endfacet
  facet normal 0 1 0
    outer loop
      vertex -10 -80 80
      vertex 120 -80 0
      vertex -10 -80 0
    endloop
  endfacet
  facet normal -0.989176 -0.146733 0
    outer loop
      vertex 63.9904 6.3025 156
      vertex 63.0645 12.5443 160
      vertex 63.0645 12.5443 156
    endloop
  endfacet
  facet normal -0.989176 -0.146733 0
    outer loop
      vertex 63.0645 12.5443 160
      vertex 63.9904 6.3025 156
      vertex 63.9904 6.3025 160
    endloop
  endfacet
  facet normal -0.998796 -0.0490642 0
    outer loop
      vertex 64.3 0 156
      vertex 63.9904 6.3025 160
      vertex 63.9904 6.3025 156
    endloop
  endfacet
  facet normal -0.998796 -0.0490642 0
    outer loop
      vertex 63.9904 6.3025 160
      vertex 64.3 0 156
      vertex 64.3 0 160
    endloop
  endfacet
  facet normal -0.970032 -0.242976 0
    outer loop
      vertex 63.0645 12.5443 156
      vertex 61.5313 18.6653 160
      vertex 61.5313 18.6653 156
    endloop
  endfacet
  facet normal -0.970032 -0.242976 0
    outer loop
      vertex 61.5313 18.6653 160
      vertex 63.0645 12.5443 156
      vertex 63.0645 12.5443 160
    endloop
  endfacet
  facet normal -0.336891 -0.941544 0
    outer loop
      vertex 18.6653 61.5313 156
      vertex 24.6065 59.4055 160
      vertex 18.6653 61.5313 160
    endloop
  endfacet
  facet normal -0.336891 -0.941544 -0
    outer loop
      vertex 24.6065 59.4055 160
      vertex 18.6653 61.5313 156
      vertex 24.6065 59.4055 156
    endloop
  endfacet
  facet normal -0.857733 -0.514095 0
    outer loop
      vertex 56.7075 30.3108 156
      vertex 53.4635 35.7232 160
      vertex 53.4635 35.7232 156
    endloop
  endfacet
  facet normal -0.857733 -0.514095 0
    outer loop
      vertex 53.4635 35.7232 160
      vertex 56.7075 30.3108 156
      vertex 56.7075 30.3108 160
    endloop
  endfacet
  facet normal -0.595699 0.803208 0
    outer loop
      vertex 40.7915 -49.7046 156
      vertex 35.7232 -53.4635 160
      vertex 40.7915 -49.7046 160
    endloop
  endfacet
  facet normal -0.595699 0.803208 0
    outer loop
      vertex 35.7232 -53.4635 160
      vertex 40.7915 -49.7046 156
      vertex 35.7232 -53.4635 156
    endloop
  endfacet
  facet normal -0.336891 0.941544 0
    outer loop
      vertex 24.6065 -59.4055 156
      vertex 18.6653 -61.5313 160
      vertex 24.6065 -59.4055 160
    endloop
  endfacet
  facet normal -0.336891 0.941544 0
    outer loop
      vertex 18.6653 -61.5313 160
      vertex 24.6065 -59.4055 156
      vertex 18.6653 -61.5313 156
    endloop
  endfacet
  facet normal 0.740953 0.671557 0
    outer loop
      vertex -45.467 -45.467 160
      vertex -49.7046 -40.7915 156
      vertex -49.7046 -40.7915 160
    endloop
  endfacet
  facet normal 0.740953 0.671557 0
    outer loop
      vertex -49.7046 -40.7915 156
      vertex -45.467 -45.467 160
      vertex -45.467 -45.467 156
    endloop
  endfacet
  facet normal -0.0490642 -0.998796 0
    outer loop
      vertex 0 64.3 156
      vertex 6.3025 63.9904 160
      vertex 0 64.3 160
    endloop
  endfacet
  facet normal -0.0490642 -0.998796 -0
    outer loop
      vertex 6.3025 63.9904 160
      vertex 0 64.3 156
      vertex 6.3025 63.9904 156
    endloop
  endfacet
  facet normal -0.740953 -0.671557 0
    outer loop
      vertex 49.7046 40.7915 156
      vertex 45.467 45.467 160
      vertex 45.467 45.467 156
    endloop
  endfacet
  facet normal -0.740953 -0.671557 0
    outer loop
      vertex 45.467 45.467 160
      vertex 49.7046 40.7915 156
      vertex 49.7046 40.7915 160
    endloop
  endfacet
  facet normal -0.998796 0.0490642 0
    outer loop
      vertex 63.9904 -6.3025 156
      vertex 64.3 0 160
      vertex 64.3 0 156
    endloop
  endfacet
  facet normal -0.998796 0.0490642 0
    outer loop
      vertex 64.3 0 160
      vertex 63.9904 -6.3025 156
      vertex 63.9904 -6.3025 160
    endloop
  endfacet
  facet normal 0.970032 -0.242976 0
    outer loop
      vertex -63.0645 12.5443 160
      vertex -61.5313 18.6653 156
      vertex -61.5313 18.6653 160
    endloop
  endfacet
  facet normal 0.970032 -0.242976 0
    outer loop
      vertex -61.5313 18.6653 156
      vertex -63.0645 12.5443 160
      vertex -63.0645 12.5443 156
    endloop
  endfacet
  facet normal -0.146733 0.989176 0
    outer loop
      vertex 12.5443 -63.0645 156
      vertex 6.3025 -63.9904 160
      vertex 12.5443 -63.0645 160
    endloop
  endfacet
  facet normal -0.146733 0.989176 0
    outer loop
      vertex 6.3025 -63.9904 160
      vertex 12.5443 -63.0645 156
      vertex 6.3025 -63.9904 156
    endloop
  endfacet
  facet normal -0.595699 -0.803208 0
    outer loop
      vertex 35.7232 53.4635 156
      vertex 40.7915 49.7046 160
      vertex 35.7232 53.4635 160
    endloop
  endfacet
  facet normal -0.595699 -0.803208 -0
    outer loop
      vertex 40.7915 49.7046 160
      vertex 35.7232 53.4635 156
      vertex 40.7915 49.7046 156
    endloop
  endfacet
  facet normal -0.514095 -0.857733 0
    outer loop
      vertex 30.3108 56.7075 156
      vertex 35.7232 53.4635 160
      vertex 30.3108 56.7075 160
    endloop
  endfacet
  facet normal -0.514095 -0.857733 -0
    outer loop
      vertex 35.7232 53.4635 160
      vertex 30.3108 56.7075 156
      vertex 35.7232 53.4635 156
    endloop
  endfacet
  facet normal -0.903985 0.427564 0
    outer loop
      vertex 56.7075 -30.3108 156
      vertex 59.4055 -24.6065 160
      vertex 59.4055 -24.6065 156
    endloop
  endfacet
  facet normal -0.903985 0.427564 0
    outer loop
      vertex 59.4055 -24.6065 160
      vertex 56.7075 -30.3108 156
      vertex 56.7075 -30.3108 160
    endloop
  endfacet
  facet normal 0.857733 0.514095 0
    outer loop
      vertex -53.4635 -35.7232 160
      vertex -56.7075 -30.3108 156
      vertex -56.7075 -30.3108 160
    endloop
  endfacet
  facet normal 0.857733 0.514095 0
    outer loop
      vertex -56.7075 -30.3108 156
      vertex -53.4635 -35.7232 160
      vertex -53.4635 -35.7232 156
    endloop
  endfacet
  facet normal -0.514095 0.857733 0
    outer loop
      vertex 35.7232 -53.4635 156
      vertex 30.3108 -56.7075 160
      vertex 35.7232 -53.4635 160
    endloop
  endfacet
  facet normal -0.514095 0.857733 0
    outer loop
      vertex 30.3108 -56.7075 160
      vertex 35.7232 -53.4635 156
      vertex 30.3108 -56.7075 156
    endloop
  endfacet
  facet normal -0.989176 0.146733 0
    outer loop
      vertex 63.0645 -12.5443 156
      vertex 63.9904 -6.3025 160
      vertex 63.9904 -6.3025 156
    endloop
  endfacet
  facet normal -0.989176 0.146733 0
    outer loop
      vertex 63.9904 -6.3025 160
      vertex 63.0645 -12.5443 156
      vertex 63.0645 -12.5443 160
    endloop
  endfacet
  facet normal 0.146733 -0.989176 0
    outer loop
      vertex -12.5443 63.0645 156
      vertex -6.3025 63.9904 160
      vertex -12.5443 63.0645 160
    endloop
  endfacet
  facet normal 0.146733 -0.989176 0
    outer loop
      vertex -6.3025 63.9904 160
      vertex -12.5443 63.0645 156
      vertex -6.3025 63.9904 156
    endloop
  endfacet
  facet normal 0.0490642 -0.998796 0
    outer loop
      vertex -6.3025 63.9904 156
      vertex 0 64.3 160
      vertex -6.3025 63.9904 160
    endloop
  endfacet
  facet normal 0.0490642 -0.998796 0
    outer loop
      vertex 0 64.3 160
      vertex -6.3025 63.9904 156
      vertex 0 64.3 156
    endloop
  endfacet
  facet normal 0.903985 -0.427564 0
    outer loop
      vertex -59.4055 24.6065 160
      vertex -56.7075 30.3108 156
      vertex -56.7075 30.3108 160
    endloop
  endfacet
  facet normal 0.903985 -0.427564 0
    outer loop
      vertex -56.7075 30.3108 156
      vertex -59.4055 24.6065 160
      vertex -59.4055 24.6065 156
    endloop
  endfacet
  facet normal 0.998796 0.0490642 0
    outer loop
      vertex -63.9904 -6.3025 160
      vertex -64.3 0 156
      vertex -64.3 0 160
    endloop
  endfacet
  facet normal 0.998796 0.0490642 0
    outer loop
      vertex -64.3 0 156
      vertex -63.9904 -6.3025 160
      vertex -63.9904 -6.3025 156
    endloop
  endfacet
  facet normal -0.803208 -0.595699 0
    outer loop
      vertex 53.4635 35.7232 156
      vertex 49.7046 40.7915 160
      vertex 49.7046 40.7915 156
    endloop
  endfacet
  facet normal -0.803208 -0.595699 0
    outer loop
      vertex 49.7046 40.7915 160
      vertex 53.4635 35.7232 156
      vertex 53.4635 35.7232 160
    endloop
  endfacet
  facet normal 0.989176 -0.146733 0
    outer loop
      vertex -63.9904 6.3025 160
      vertex -63.0645 12.5443 156
      vertex -63.0645 12.5443 160
    endloop
  endfacet
  facet normal 0.989176 -0.146733 0
    outer loop
      vertex -63.0645 12.5443 156
      vertex -63.9904 6.3025 160
      vertex -63.9904 6.3025 156
    endloop
  endfacet
  facet normal -0.427564 0.903985 0
    outer loop
      vertex 30.3108 -56.7075 156
      vertex 24.6065 -59.4055 160
      vertex 30.3108 -56.7075 160
    endloop
  endfacet
  facet normal -0.427564 0.903985 0
    outer loop
      vertex 24.6065 -59.4055 160
      vertex 30.3108 -56.7075 156
      vertex 24.6065 -59.4055 156
    endloop
  endfacet
  facet normal 0.857733 -0.514095 0
    outer loop
      vertex -56.7075 30.3108 160
      vertex -53.4635 35.7232 156
      vertex -53.4635 35.7232 160
    endloop
  endfacet
  facet normal 0.857733 -0.514095 0
    outer loop
      vertex -53.4635 35.7232 156
      vertex -56.7075 30.3108 160
      vertex -56.7075 30.3108 156
    endloop
  endfacet
  facet normal 0.941542 0.336897 0
    outer loop
      vertex -61.5313 -18.6653 160
      vertex -60 -22.9449 156
      vertex -61.5313 -18.6653 156
    endloop
  endfacet
  facet normal 0.941544 0.336891 7.36443e-06
    outer loop
      vertex -59.4055 -24.6065 160
      vertex -60 -22.9449 156
      vertex -61.5313 -18.6653 160
    endloop
  endfacet
  facet normal 0.941549 0.336875 0
    outer loop
      vertex -60 -22.9449 156
      vertex -59.4055 -24.6065 160
      vertex -59.4055 -24.6065 156
    endloop
  endfacet
  facet normal -0.970032 0.242976 0
    outer loop
      vertex 61.5313 -18.6653 156
      vertex 63.0645 -12.5443 160
      vertex 63.0645 -12.5443 156
    endloop
  endfacet
  facet normal -0.970032 0.242976 0
    outer loop
      vertex 63.0645 -12.5443 160
      vertex 61.5313 -18.6653 156
      vertex 61.5313 -18.6653 160
    endloop
  endfacet
  facet normal 0.514095 0.857733 -0
    outer loop
      vertex -30.3108 -56.7075 156
      vertex -35.7232 -53.4635 160
      vertex -30.3108 -56.7075 160
    endloop
  endfacet
  facet normal 0.514095 0.857733 0
    outer loop
      vertex -35.7232 -53.4635 160
      vertex -30.3108 -56.7075 156
      vertex -35.7232 -53.4635 156
    endloop
  endfacet
  facet normal 0.242976 -0.970032 0
    outer loop
      vertex -18.6653 61.5313 156
      vertex -12.5443 63.0645 160
      vertex -18.6653 61.5313 160
    endloop
  endfacet
  facet normal 0.242976 -0.970032 0
    outer loop
      vertex -12.5443 63.0645 160
      vertex -18.6653 61.5313 156
      vertex -12.5443 63.0645 156
    endloop
  endfacet
  facet normal -0.242976 0.970032 0
    outer loop
      vertex 18.6653 -61.5313 156
      vertex 12.5443 -63.0645 160
      vertex 18.6653 -61.5313 160
    endloop
  endfacet
  facet normal -0.242976 0.970032 0
    outer loop
      vertex 12.5443 -63.0645 160
      vertex 18.6653 -61.5313 156
      vertex 12.5443 -63.0645 156
    endloop
  endfacet
  facet normal -0.242976 -0.970032 0
    outer loop
      vertex 12.5443 63.0645 156
      vertex 18.6653 61.5313 160
      vertex 12.5443 63.0645 160
    endloop
  endfacet
  facet normal -0.242976 -0.970032 -0
    outer loop
      vertex 18.6653 61.5313 160
      vertex 12.5443 63.0645 156
      vertex 18.6653 61.5313 156
    endloop
  endfacet
  facet normal 0.0490642 0.998796 -0
    outer loop
      vertex 0 -64.3 156
      vertex -6.3025 -63.9904 160
      vertex 0 -64.3 160
    endloop
  endfacet
  facet normal 0.0490642 0.998796 0
    outer loop
      vertex -6.3025 -63.9904 160
      vertex 0 -64.3 156
      vertex -6.3025 -63.9904 156
    endloop
  endfacet
  facet normal 0.336891 -0.941544 0
    outer loop
      vertex -24.6065 59.4055 156
      vertex -18.6653 61.5313 160
      vertex -24.6065 59.4055 160
    endloop
  endfacet
  facet normal 0.336891 -0.941544 0
    outer loop
      vertex -18.6653 61.5313 160
      vertex -24.6065 59.4055 156
      vertex -18.6653 61.5313 156
    endloop
  endfacet
  facet normal 0.595699 -0.803208 0
    outer loop
      vertex -40.7915 49.7046 156
      vertex -35.7232 53.4635 160
      vertex -40.7915 49.7046 160
    endloop
  endfacet
  facet normal 0.595699 -0.803208 0
    outer loop
      vertex -35.7232 53.4635 160
      vertex -40.7915 49.7046 156
      vertex -35.7232 53.4635 156
    endloop
  endfacet
  facet normal -0.671557 0.740953 0
    outer loop
      vertex 45.467 -45.467 156
      vertex 40.7915 -49.7046 160
      vertex 45.467 -45.467 160
    endloop
  endfacet
  facet normal -0.671557 0.740953 0
    outer loop
      vertex 40.7915 -49.7046 160
      vertex 45.467 -45.467 156
      vertex 40.7915 -49.7046 156
    endloop
  endfacet
  facet normal -0.427564 -0.903985 0
    outer loop
      vertex 24.6065 59.4055 156
      vertex 30.3108 56.7075 160
      vertex 24.6065 59.4055 160
    endloop
  endfacet
  facet normal -0.427564 -0.903985 -0
    outer loop
      vertex 30.3108 56.7075 160
      vertex 24.6065 59.4055 156
      vertex 30.3108 56.7075 156
    endloop
  endfacet
  facet normal -0.941546 -0.336885 -0.000815047
    outer loop
      vertex 60.9897 20.1788 156.035
      vertex 59.4055 24.6065 156
      vertex 60.9849 20.1923 156
    endloop
  endfacet
  facet normal -0.941548 -0.336879 0
    outer loop
      vertex 59.4055 24.6065 156
      vertex 60.9897 20.1788 156.035
      vertex 59.4055 24.6065 160
    endloop
  endfacet
  facet normal -0.9415 -0.337013 -3.86485e-05
    outer loop
      vertex 61.5313 18.6653 160
      vertex 60.9897 20.1788 156.035
      vertex 61.1026 19.8634 156
    endloop
  endfacet
  facet normal -0.941541 -0.336899 -0
    outer loop
      vertex 61.5313 18.6653 160
      vertex 61.1026 19.8634 156
      vertex 61.5313 18.6653 156
    endloop
  endfacet
  facet normal -0.941544 -0.336891 1.42138e-05
    outer loop
      vertex 60.9897 20.1788 156.035
      vertex 61.5313 18.6653 160
      vertex 59.4055 24.6065 160
    endloop
  endfacet
  facet normal 0.427564 -0.903985 0
    outer loop
      vertex -30.3108 56.7075 156
      vertex -24.6065 59.4055 160
      vertex -30.3108 56.7075 160
    endloop
  endfacet
  facet normal 0.427564 -0.903985 0
    outer loop
      vertex -24.6065 59.4055 160
      vertex -30.3108 56.7075 156
      vertex -24.6065 59.4055 156
    endloop
  endfacet
  facet normal -0.903985 -0.427564 0
    outer loop
      vertex 59.4055 24.6065 156
      vertex 56.7075 30.3108 160
      vertex 56.7075 30.3108 156
    endloop
  endfacet
  facet normal -0.903985 -0.427564 0
    outer loop
      vertex 56.7075 30.3108 160
      vertex 59.4055 24.6065 156
      vertex 59.4055 24.6065 160
    endloop
  endfacet
  facet normal -0.0490642 0.998796 0
    outer loop
      vertex 6.3025 -63.9904 156
      vertex 0 -64.3 160
      vertex 6.3025 -63.9904 160
    endloop
  endfacet
  facet normal -0.0490642 0.998796 0
    outer loop
      vertex 0 -64.3 160
      vertex 6.3025 -63.9904 156
      vertex 0 -64.3 156
    endloop
  endfacet
  facet normal -0.803208 0.595699 0
    outer loop
      vertex 49.7046 -40.7915 156
      vertex 53.4635 -35.7232 160
      vertex 53.4635 -35.7232 156
    endloop
  endfacet
  facet normal -0.803208 0.595699 0
    outer loop
      vertex 53.4635 -35.7232 160
      vertex 49.7046 -40.7915 156
      vertex 49.7046 -40.7915 160
    endloop
  endfacet
  facet normal -0.941541 0.336899 0
    outer loop
      vertex 61.1026 -19.8634 156
      vertex 61.5313 -18.6653 160
      vertex 61.5313 -18.6653 156
    endloop
  endfacet
  facet normal -0.9415 0.337013 -3.86485e-05
    outer loop
      vertex 60.9897 -20.1788 156.035
      vertex 61.5313 -18.6653 160
      vertex 61.1026 -19.8634 156
    endloop
  endfacet
  facet normal -0.941546 0.336885 -0.000815047
    outer loop
      vertex 59.4055 -24.6065 156
      vertex 60.9897 -20.1788 156.035
      vertex 60.9849 -20.1923 156
    endloop
  endfacet
  facet normal -0.941548 0.336879 0
    outer loop
      vertex 60.9897 -20.1788 156.035
      vertex 59.4055 -24.6065 156
      vertex 59.4055 -24.6065 160
    endloop
  endfacet
  facet normal -0.941544 0.336891 1.42138e-05
    outer loop
      vertex 60.9897 -20.1788 156.035
      vertex 59.4055 -24.6065 160
      vertex 61.5313 -18.6653 160
    endloop
  endfacet
  facet normal 0.989176 0.146733 0
    outer loop
      vertex -63.0645 -12.5443 160
      vertex -63.9904 -6.3025 156
      vertex -63.9904 -6.3025 160
    endloop
  endfacet
  facet normal 0.989176 0.146733 0
    outer loop
      vertex -63.9904 -6.3025 156
      vertex -63.0645 -12.5443 160
      vertex -63.0645 -12.5443 156
    endloop
  endfacet
  facet normal 0.740953 -0.671557 0
    outer loop
      vertex -49.7046 40.7915 160
      vertex -45.467 45.467 156
      vertex -45.467 45.467 160
    endloop
  endfacet
  facet normal 0.740953 -0.671557 0
    outer loop
      vertex -45.467 45.467 156
      vertex -49.7046 40.7915 160
      vertex -49.7046 40.7915 156
    endloop
  endfacet
  facet normal -0.857733 0.514095 0
    outer loop
      vertex 53.4635 -35.7232 156
      vertex 56.7075 -30.3108 160
      vertex 56.7075 -30.3108 156
    endloop
  endfacet
  facet normal -0.857733 0.514095 0
    outer loop
      vertex 56.7075 -30.3108 160
      vertex 53.4635 -35.7232 156
      vertex 53.4635 -35.7232 160
    endloop
  endfacet
  facet normal 0.903985 0.427564 0
    outer loop
      vertex -56.7075 -30.3108 160
      vertex -59.4055 -24.6065 156
      vertex -59.4055 -24.6065 160
    endloop
  endfacet
  facet normal 0.903985 0.427564 0
    outer loop
      vertex -59.4055 -24.6065 156
      vertex -56.7075 -30.3108 160
      vertex -56.7075 -30.3108 156
    endloop
  endfacet
  facet normal -0.671557 -0.740953 0
    outer loop
      vertex 40.7915 49.7046 156
      vertex 45.467 45.467 160
      vertex 40.7915 49.7046 160
    endloop
  endfacet
  facet normal -0.671557 -0.740953 -0
    outer loop
      vertex 45.467 45.467 160
      vertex 40.7915 49.7046 156
      vertex 45.467 45.467 156
    endloop
  endfacet
  facet normal 0.671557 -0.740953 0
    outer loop
      vertex -45.467 45.467 156
      vertex -40.7915 49.7046 160
      vertex -45.467 45.467 160
    endloop
  endfacet
  facet normal 0.671557 -0.740953 0
    outer loop
      vertex -40.7915 49.7046 160
      vertex -45.467 45.467 156
      vertex -40.7915 49.7046 156
    endloop
  endfacet
  facet normal -0.740953 0.671557 0
    outer loop
      vertex 45.467 -45.467 156
      vertex 49.7046 -40.7915 160
      vertex 49.7046 -40.7915 156
    endloop
  endfacet
  facet normal -0.740953 0.671557 0
    outer loop
      vertex 49.7046 -40.7915 160
      vertex 45.467 -45.467 156
      vertex 45.467 -45.467 160
    endloop
  endfacet
  facet normal 0.998796 -0.0490642 0
    outer loop
      vertex -64.3 0 160
      vertex -63.9904 6.3025 156
      vertex -63.9904 6.3025 160
    endloop
  endfacet
  facet normal 0.998796 -0.0490642 0
    outer loop
      vertex -63.9904 6.3025 156
      vertex -64.3 0 160
      vertex -64.3 0 156
    endloop
  endfacet
  facet normal 0.970032 0.242976 0
    outer loop
      vertex -61.5313 -18.6653 160
      vertex -63.0645 -12.5443 156
      vertex -63.0645 -12.5443 160
    endloop
  endfacet
  facet normal 0.970032 0.242976 0
    outer loop
      vertex -63.0645 -12.5443 156
      vertex -61.5313 -18.6653 160
      vertex -61.5313 -18.6653 156
    endloop
  endfacet
  facet normal 0.803208 0.595699 0
    outer loop
      vertex -49.7046 -40.7915 160
      vertex -53.4635 -35.7232 156
      vertex -53.4635 -35.7232 160
    endloop
  endfacet
  facet normal 0.803208 0.595699 0
    outer loop
      vertex -53.4635 -35.7232 156
      vertex -49.7046 -40.7915 160
      vertex -49.7046 -40.7915 156
    endloop
  endfacet
  facet normal 0.941549 -0.336875 0
    outer loop
      vertex -59.4055 24.6065 160
      vertex -60 22.9449 156
      vertex -59.4055 24.6065 156
    endloop
  endfacet
  facet normal 0.941544 -0.336891 7.36443e-06
    outer loop
      vertex -61.5313 18.6653 160
      vertex -60 22.9449 156
      vertex -59.4055 24.6065 160
    endloop
  endfacet
  facet normal 0.941542 -0.336897 0
    outer loop
      vertex -60 22.9449 156
      vertex -61.5313 18.6653 160
      vertex -61.5313 18.6653 156
    endloop
  endfacet
  facet normal -0.146733 -0.989176 0
    outer loop
      vertex 6.3025 63.9904 156
      vertex 12.5443 63.0645 160
      vertex 6.3025 63.9904 160
    endloop
  endfacet
  facet normal -0.146733 -0.989176 -0
    outer loop
      vertex 12.5443 63.0645 160
      vertex 6.3025 63.9904 156
      vertex 12.5443 63.0645 156
    endloop
  endfacet
  facet normal 0.671557 0.740953 -0
    outer loop
      vertex -40.7915 -49.7046 156
      vertex -45.467 -45.467 160
      vertex -40.7915 -49.7046 160
    endloop
  endfacet
  facet normal 0.671557 0.740953 0
    outer loop
      vertex -45.467 -45.467 160
      vertex -40.7915 -49.7046 156
      vertex -45.467 -45.467 156
    endloop
  endfacet
  facet normal 0.514095 -0.857733 0
    outer loop
      vertex -35.7232 53.4635 156
      vertex -30.3108 56.7075 160
      vertex -35.7232 53.4635 160
    endloop
  endfacet
  facet normal 0.514095 -0.857733 0
    outer loop
      vertex -30.3108 56.7075 160
      vertex -35.7232 53.4635 156
      vertex -30.3108 56.7075 156
    endloop
  endfacet
  facet normal 0.336891 0.941544 -0
    outer loop
      vertex -18.6653 -61.5313 156
      vertex -24.6065 -59.4055 160
      vertex -18.6653 -61.5313 160
    endloop
  endfacet
  facet normal 0.336891 0.941544 0
    outer loop
      vertex -24.6065 -59.4055 160
      vertex -18.6653 -61.5313 156
      vertex -24.6065 -59.4055 156
    endloop
  endfacet
  facet normal 0.242976 0.970032 -0
    outer loop
      vertex -12.5443 -63.0645 156
      vertex -18.6653 -61.5313 160
      vertex -12.5443 -63.0645 160
    endloop
  endfacet
  facet normal 0.242976 0.970032 0
    outer loop
      vertex -18.6653 -61.5313 160
      vertex -12.5443 -63.0645 156
      vertex -18.6653 -61.5313 156
    endloop
  endfacet
  facet normal 0.427564 0.903985 -0
    outer loop
      vertex -24.6065 -59.4055 156
      vertex -30.3108 -56.7075 160
      vertex -24.6065 -59.4055 160
    endloop
  endfacet
  facet normal 0.427564 0.903985 0
    outer loop
      vertex -30.3108 -56.7075 160
      vertex -24.6065 -59.4055 156
      vertex -30.3108 -56.7075 156
    endloop
  endfacet
  facet normal 0.595699 0.803208 -0
    outer loop
      vertex -35.7232 -53.4635 156
      vertex -40.7915 -49.7046 160
      vertex -35.7232 -53.4635 160
    endloop
  endfacet
  facet normal 0.595699 0.803208 0
    outer loop
      vertex -40.7915 -49.7046 160
      vertex -35.7232 -53.4635 156
      vertex -40.7915 -49.7046 156
    endloop
  endfacet
  facet normal 0.803208 -0.595699 0
    outer loop
      vertex -53.4635 35.7232 160
      vertex -49.7046 40.7915 156
      vertex -49.7046 40.7915 160
    endloop
  endfacet
  facet normal 0.803208 -0.595699 0
    outer loop
      vertex -49.7046 40.7915 156
      vertex -53.4635 35.7232 160
      vertex -53.4635 35.7232 156
    endloop
  endfacet
  facet normal 0.146733 0.989176 -0
    outer loop
      vertex -6.3025 -63.9904 156
      vertex -12.5443 -63.0645 160
      vertex -6.3025 -63.9904 160
    endloop
  endfacet
  facet normal 0.146733 0.989176 0
    outer loop
      vertex -12.5443 -63.0645 160
      vertex -6.3025 -63.9904 156
      vertex -12.5443 -63.0645 156
    endloop
  endfacet
  facet normal 0 0 1
    outer loop
      vertex 22.0513 20.1923 156
      vertex 59.4055 24.6065 156
      vertex 56.7075 30.3108 156
    endloop
  endfacet
  facet normal 0 0 1
    outer loop
      vertex 22.0513 20.1923 156
      vertex 56.7075 30.3108 156
      vertex 53.4635 35.7232 156
    endloop
  endfacet
  facet normal 0 0 1
    outer loop
      vertex 22.0513 20.1923 156
      vertex 53.4635 35.7232 156
      vertex 49.7046 40.7915 156
    endloop
  endfacet
  facet normal 0 0 1
    outer loop
      vertex 22.0513 20.1923 156
      vertex 49.7046 40.7915 156
      vertex 45.467 45.467 156
    endloop
  endfacet
  facet normal 0 0 1
    outer loop
      vertex 22.0513 20.1923 156
      vertex 45.467 45.467 156
      vertex 40.7915 49.7046 156
    endloop
  endfacet
  facet normal 0 0 1
    outer loop
      vertex 22.0513 20.1923 156
      vertex 40.7915 49.7046 156
      vertex 35.7232 53.4635 156
    endloop
  endfacet
  facet normal 0 0 1
    outer loop
      vertex 22.0513 20.1923 156
      vertex 35.7232 53.4635 156
      vertex 30.3108 56.7075 156
    endloop
  endfacet
  facet normal 0 0 1
    outer loop
      vertex 19.5 20 156
      vertex 30.3108 56.7075 156
      vertex 24.6065 59.4055 156
    endloop
  endfacet
  facet normal 0 0 1
    outer loop
      vertex 59.4055 24.6065 156
      vertex 22.0513 20.1923 156
      vertex 60.9849 20.1923 156
    endloop
  endfacet
  facet normal 0 0 1
    outer loop
      vertex 30.3108 56.7075 156
      vertex 19.5 20 156
      vertex 22.0513 20.1923 156
    endloop
  endfacet
  facet normal 0 0 1
    outer loop
      vertex 12.5443 63.0645 156
      vertex 19.5 20 156
      vertex 18.6653 61.5313 156
    endloop
  endfacet
  facet normal 0 0 1
    outer loop
      vertex 18.6653 61.5313 156
      vertex 19.5 20 156
      vertex 24.6065 59.4055 156
    endloop
  endfacet
  facet normal -0 0 1
    outer loop
      vertex 22.0513 -20.1923 156
      vertex 59.4055 -24.6065 156
      vertex 60.9849 -20.1923 156
    endloop
  endfacet
  facet normal 0 0 1
    outer loop
      vertex 59.4055 -24.6065 156
      vertex 22.0513 -20.1923 156
      vertex 56.7075 -30.3108 156
    endloop
  endfacet
  facet normal 0 0 1
    outer loop
      vertex 56.7075 -30.3108 156
      vertex 22.0513 -20.1923 156
      vertex 53.4635 -35.7232 156
    endloop
  endfacet
  facet normal 0 0 1
    outer loop
      vertex 53.4635 -35.7232 156
      vertex 22.0513 -20.1923 156
      vertex 49.7046 -40.7915 156
    endloop
  endfacet
  facet normal 0 0 1
    outer loop
      vertex 49.7046 -40.7915 156
      vertex 22.0513 -20.1923 156
      vertex 45.467 -45.467 156
    endloop
  endfacet
  facet normal 0 0 1
    outer loop
      vertex 45.467 -45.467 156
      vertex 22.0513 -20.1923 156
      vertex 40.7915 -49.7046 156
    endloop
  endfacet
  facet normal 0 0 1
    outer loop
      vertex 40.7915 -49.7046 156
      vertex 22.0513 -20.1923 156
      vertex 35.7232 -53.4635 156
    endloop
  endfacet
  facet normal 0 0 1
    outer loop
      vertex 35.7232 -53.4635 156
      vertex 22.0513 -20.1923 156
      vertex 30.3108 -56.7075 156
    endloop
  endfacet
  facet normal 0 0 1
    outer loop
      vertex 19.5 -20 156
      vertex 30.3108 -56.7075 156
      vertex 22.0513 -20.1923 156
    endloop
  endfacet
  facet normal 0 0 1
    outer loop
      vertex 30.3108 -56.7075 156
      vertex 19.5 -20 156
      vertex 24.6065 -59.4055 156
    endloop
  endfacet
  facet normal 0 0 1
    outer loop
      vertex 19.5 -20 156
      vertex 18.6653 -61.5313 156
      vertex 24.6065 -59.4055 156
    endloop
  endfacet
  facet normal 0 -0 1
    outer loop
      vertex 12.4398 1.22521 156
      vertex 19.5 20 156
      vertex 12.2598 2.43863 156
    endloop
  endfacet
  facet normal 0 0 1
    outer loop
      vertex 6.3025 63.9904 156
      vertex 19.5 20 156
      vertex 12.5443 63.0645 156
    endloop
  endfacet
  facet normal -0 0 1
    outer loop
      vertex 12.4398 -1.22521 156
      vertex 19.5 -20 156
      vertex 12.5 0 156
    endloop
  endfacet
  facet normal -0 0 1
    outer loop
      vertex 12.2598 -2.43863 156
      vertex 19.5 -20 156
      vertex 12.4398 -1.22521 156
    endloop
  endfacet
  facet normal 0 0 1
    outer loop
      vertex 19.5 20 156
      vertex 12.5 0 156
      vertex 19.5 -20 156
    endloop
  endfacet
  facet normal 0 -0 1
    outer loop
      vertex 12.5 0 156
      vertex 19.5 20 156
      vertex 12.4398 1.22521 156
    endloop
  endfacet
  facet normal 0 0 1
    outer loop
      vertex 19.5 20 156
      vertex 11.9618 3.62856 156
      vertex 12.2598 2.43863 156
    endloop
  endfacet
  facet normal 0 0 1
    outer loop
      vertex 19.5 20 156
      vertex 11.5485 4.78354 156
      vertex 11.9618 3.62856 156
    endloop
  endfacet
  facet normal 0 0 1
    outer loop
      vertex 19.5 20 156
      vertex 11.024 5.89246 156
      vertex 11.5485 4.78354 156
    endloop
  endfacet
  facet normal 0 0 1
    outer loop
      vertex 19.5 20 156
      vertex 10.3934 6.94463 156
      vertex 11.024 5.89246 156
    endloop
  endfacet
  facet normal 0 0 1
    outer loop
      vertex 19.5 20 156
      vertex 9.66263 7.92992 156
      vertex 10.3934 6.94463 156
    endloop
  endfacet
  facet normal 0 0 1
    outer loop
      vertex 19.5 20 156
      vertex 8.83883 8.83883 156
      vertex 9.66263 7.92992 156
    endloop
  endfacet
  facet normal 0 0 1
    outer loop
      vertex 19.5 20 156
      vertex 7.92992 9.66263 156
      vertex 8.83883 8.83883 156
    endloop
  endfacet
  facet normal 0 0 1
    outer loop
      vertex 19.5 20 156
      vertex 6.94463 10.3934 156
      vertex 7.92992 9.66263 156
    endloop
  endfacet
  facet normal 0 0 1
    outer loop
      vertex 0 64.3 156
      vertex 19.5 20 156
      vertex 6.3025 63.9904 156
    endloop
  endfacet
  facet normal 0 0 1
    outer loop
      vertex 19.5 20 156
      vertex 5.89246 11.024 156
      vertex 6.94463 10.3934 156
    endloop
  endfacet
  facet normal 0 0 1
    outer loop
      vertex 19.5 20 156
      vertex 4.78354 11.5485 156
      vertex 5.89246 11.024 156
    endloop
  endfacet
  facet normal 0 0 1
    outer loop
      vertex 19.5 20 156
      vertex 3.62856 11.9618 156
      vertex 4.78354 11.5485 156
    endloop
  endfacet
  facet normal 0 0 1
    outer loop
      vertex 19.5 20 156
      vertex 2.43863 12.2598 156
      vertex 3.62856 11.9618 156
    endloop
  endfacet
  facet normal 0 0 1
    outer loop
      vertex 19.5 20 156
      vertex 1.22521 12.4398 156
      vertex 2.43863 12.2598 156
    endloop
  endfacet
  facet normal 0 0 1
    outer loop
      vertex 0 12.5 156
      vertex 19.5 20 156
      vertex 0 64.3 156
    endloop
  endfacet
  facet normal 0 0 1
    outer loop
      vertex 19.5 20 156
      vertex 0 12.5 156
      vertex 1.22521 12.4398 156
    endloop
  endfacet
  facet normal 0 0 1
    outer loop
      vertex 0 64.3 156
      vertex -1.22521 12.4398 156
      vertex 0 12.5 156
    endloop
  endfacet
  facet normal -0 0 1
    outer loop
      vertex -6.3025 63.9904 156
      vertex -1.22521 12.4398 156
      vertex 0 64.3 156
    endloop
  endfacet
  facet normal 0 0 1
    outer loop
      vertex -1.22521 12.4398 156
      vertex -6.3025 63.9904 156
      vertex -2.43863 12.2598 156
    endloop
  endfacet
  facet normal -0 0 1
    outer loop
      vertex -12.5443 63.0645 156
      vertex -2.43863 12.2598 156
      vertex -6.3025 63.9904 156
    endloop
  endfacet
  facet normal 0 0 1
    outer loop
      vertex -2.43863 12.2598 156
      vertex -12.5443 63.0645 156
      vertex -3.62856 11.9618 156
    endloop
  endfacet
  facet normal -0 0 1
    outer loop
      vertex -18.6653 61.5313 156
      vertex -3.62856 11.9618 156
      vertex -12.5443 63.0645 156
    endloop
  endfacet
  facet normal 0 0 1
    outer loop
      vertex -3.62856 11.9618 156
      vertex -18.6653 61.5313 156
      vertex -4.78354 11.5485 156
    endloop
  endfacet
  facet normal -0 0 1
    outer loop
      vertex -24.6065 59.4055 156
      vertex -4.78354 11.5485 156
      vertex -18.6653 61.5313 156
    endloop
  endfacet
  facet normal 0 0 1
    outer loop
      vertex -4.78354 11.5485 156
      vertex -24.6065 59.4055 156
      vertex -5.89246 11.024 156
    endloop
  endfacet
  facet normal -0 0 1
    outer loop
      vertex -30.3108 56.7075 156
      vertex -5.89246 11.024 156
      vertex -24.6065 59.4055 156
    endloop
  endfacet
  facet normal 0 0 1
    outer loop
      vertex -5.89246 11.024 156
      vertex -30.3108 56.7075 156
      vertex -6.94463 10.3934 156
    endloop
  endfacet
  facet normal -0 0 1
    outer loop
      vertex -35.7232 53.4635 156
      vertex -6.94463 10.3934 156
      vertex -30.3108 56.7075 156
    endloop
  endfacet
  facet normal 0 0 1
    outer loop
      vertex -6.94463 10.3934 156
      vertex -35.7232 53.4635 156
      vertex -7.92992 9.66263 156
    endloop
  endfacet
  facet normal -0 0 1
    outer loop
      vertex -40.7915 49.7046 156
      vertex -7.92992 9.66263 156
      vertex -35.7232 53.4635 156
    endloop
  endfacet
  facet normal 0 0 1
    outer loop
      vertex -7.92992 9.66263 156
      vertex -40.7915 49.7046 156
      vertex -8.83883 8.83883 156
    endloop
  endfacet
  facet normal -0 0 1
    outer loop
      vertex -45.467 45.467 156
      vertex -8.83883 8.83883 156
      vertex -40.7915 49.7046 156
    endloop
  endfacet
  facet normal -0 0 1
    outer loop
      vertex -49.7046 40.7915 156
      vertex -9.66263 7.92992 156
      vertex -45.467 45.467 156
    endloop
  endfacet
  facet normal 0 0 1
    outer loop
      vertex -8.83883 8.83883 156
      vertex -45.467 45.467 156
      vertex -9.66263 7.92992 156
    endloop
  endfacet
  facet normal -0 0 1
    outer loop
      vertex 11.9618 -3.62856 156
      vertex 19.5 -20 156
      vertex 12.2598 -2.43863 156
    endloop
  endfacet
  facet normal -0 0 1
    outer loop
      vertex 11.5485 -4.78354 156
      vertex 19.5 -20 156
      vertex 11.9618 -3.62856 156
    endloop
  endfacet
  facet normal -0 0 1
    outer loop
      vertex 11.024 -5.89246 156
      vertex 19.5 -20 156
      vertex 11.5485 -4.78354 156
    endloop
  endfacet
  facet normal -0 0 1
    outer loop
      vertex 10.3934 -6.94463 156
      vertex 19.5 -20 156
      vertex 11.024 -5.89246 156
    endloop
  endfacet
  facet normal -0 0 1
    outer loop
      vertex 9.66263 -7.92992 156
      vertex 19.5 -20 156
      vertex 10.3934 -6.94463 156
    endloop
  endfacet
  facet normal -0 0 1
    outer loop
      vertex 8.83883 -8.83883 156
      vertex 19.5 -20 156
      vertex 9.66263 -7.92992 156
    endloop
  endfacet
  facet normal -0 0 1
    outer loop
      vertex 7.92992 -9.66263 156
      vertex 19.5 -20 156
      vertex 8.83883 -8.83883 156
    endloop
  endfacet
  facet normal -0 0 1
    outer loop
      vertex 6.94463 -10.3934 156
      vertex 19.5 -20 156
      vertex 7.92992 -9.66263 156
    endloop
  endfacet
  facet normal -0 0 1
    outer loop
      vertex 5.89246 -11.024 156
      vertex 19.5 -20 156
      vertex 6.94463 -10.3934 156
    endloop
  endfacet
  facet normal -0 0 1
    outer loop
      vertex 4.78354 -11.5485 156
      vertex 19.5 -20 156
      vertex 5.89246 -11.024 156
    endloop
  endfacet
  facet normal -0 0 1
    outer loop
      vertex 3.62856 -11.9618 156
      vertex 19.5 -20 156
      vertex 4.78354 -11.5485 156
    endloop
  endfacet
  facet normal -0 0 1
    outer loop
      vertex 2.43863 -12.2598 156
      vertex 19.5 -20 156
      vertex 3.62856 -11.9618 156
    endloop
  endfacet
  facet normal 0 0 1
    outer loop
      vertex 19.5 -20 156
      vertex 12.5443 -63.0645 156
      vertex 18.6653 -61.5313 156
    endloop
  endfacet
  facet normal -0 0 1
    outer loop
      vertex 1.22521 -12.4398 156
      vertex 19.5 -20 156
      vertex 2.43863 -12.2598 156
    endloop
  endfacet
  facet normal 0 0 1
    outer loop
      vertex 19.5 -20 156
      vertex 6.3025 -63.9904 156
      vertex 12.5443 -63.0645 156
    endloop
  endfacet
  facet normal -0 0 1
    outer loop
      vertex 0 -12.5 156
      vertex 19.5 -20 156
      vertex 1.22521 -12.4398 156
    endloop
  endfacet
  facet normal 0 0 1
    outer loop
      vertex 0 -64.3 156
      vertex 19.5 -20 156
      vertex 0 -12.5 156
    endloop
  endfacet
  facet normal 0 0 1
    outer loop
      vertex 19.5 -20 156
      vertex 0 -64.3 156
      vertex 6.3025 -63.9904 156
    endloop
  endfacet
  facet normal 0 0 1
    outer loop
      vertex -1.22521 -12.4398 156
      vertex 0 -64.3 156
      vertex 0 -12.5 156
    endloop
  endfacet
  facet normal 0 0 1
    outer loop
      vertex -6.3025 -63.9904 156
      vertex -1.22521 -12.4398 156
      vertex -2.43863 -12.2598 156
    endloop
  endfacet
  facet normal 0 0 1
    outer loop
      vertex -12.5443 -63.0645 156
      vertex -2.43863 -12.2598 156
      vertex -3.62856 -11.9618 156
    endloop
  endfacet
  facet normal 0 0 1
    outer loop
      vertex -18.6653 -61.5313 156
      vertex -3.62856 -11.9618 156
      vertex -4.78354 -11.5485 156
    endloop
  endfacet
  facet normal 0 0 1
    outer loop
      vertex -24.6065 -59.4055 156
      vertex -4.78354 -11.5485 156
      vertex -5.89246 -11.024 156
    endloop
  endfacet
  facet normal 0 0 1
    outer loop
      vertex -1.22521 -12.4398 156
      vertex -6.3025 -63.9904 156
      vertex 0 -64.3 156
    endloop
  endfacet
  facet normal 0 0 1
    outer loop
      vertex -30.3108 -56.7075 156
      vertex -5.89246 -11.024 156
      vertex -6.94463 -10.3934 156
    endloop
  endfacet
  facet normal 0 0 1
    outer loop
      vertex -35.7232 -53.4635 156
      vertex -6.94463 -10.3934 156
      vertex -7.92992 -9.66263 156
    endloop
  endfacet
  facet normal 0 0 1
    outer loop
      vertex -40.7915 -49.7046 156
      vertex -7.92992 -9.66263 156
      vertex -8.83883 -8.83883 156
    endloop
  endfacet
  facet normal 0 0 1
    outer loop
      vertex -45.467 -45.467 156
      vertex -8.83883 -8.83883 156
      vertex -9.66263 -7.92992 156
    endloop
  endfacet
  facet normal 0 0 1
    outer loop
      vertex -49.7046 -40.7915 156
      vertex -9.66263 -7.92992 156
      vertex -10.3934 -6.94463 156
    endloop
  endfacet
  facet normal 0 0 1
    outer loop
      vertex -53.4635 -35.7232 156
      vertex -10.3934 -6.94463 156
      vertex -11.024 -5.89246 156
    endloop
  endfacet
  facet normal 0 0 1
    outer loop
      vertex -56.7075 -30.3108 156
      vertex -11.024 -5.89246 156
      vertex -11.5485 -4.78354 156
    endloop
  endfacet
  facet normal 0 0 1
    outer loop
      vertex -60 -22.9449 156
      vertex -11.5485 -4.78354 156
      vertex -11.9618 -3.62856 156
    endloop
  endfacet
  facet normal 0 0 1
    outer loop
      vertex -60 -22.9449 156
      vertex -11.9618 -3.62856 156
      vertex -12.2598 -2.43863 156
    endloop
  endfacet
  facet normal 0 0 1
    outer loop
      vertex -60 -22.9449 156
      vertex -12.2598 -2.43863 156
      vertex -12.4398 -1.22521 156
    endloop
  endfacet
  facet normal 0 0 1
    outer loop
      vertex -2.43863 -12.2598 156
      vertex -12.5443 -63.0645 156
      vertex -6.3025 -63.9904 156
    endloop
  endfacet
  facet normal 0 0 1
    outer loop
      vertex -60 -22.9449 156
      vertex -12.4398 -1.22521 156
      vertex -12.5 0 156
    endloop
  endfacet
  facet normal 0 0 1
    outer loop
      vertex -9.66263 7.92992 156
      vertex -49.7046 40.7915 156
      vertex -10.3934 6.94463 156
    endloop
  endfacet
  facet normal -0 0 1
    outer loop
      vertex -53.4635 35.7232 156
      vertex -10.3934 6.94463 156
      vertex -49.7046 40.7915 156
    endloop
  endfacet
  facet normal 0 0 1
    outer loop
      vertex -3.62856 -11.9618 156
      vertex -18.6653 -61.5313 156
      vertex -12.5443 -63.0645 156
    endloop
  endfacet
  facet normal 0 0 1
    outer loop
      vertex -10.3934 6.94463 156
      vertex -53.4635 35.7232 156
      vertex -11.024 5.89246 156
    endloop
  endfacet
  facet normal 0 0 1
    outer loop
      vertex -4.78354 -11.5485 156
      vertex -24.6065 -59.4055 156
      vertex -18.6653 -61.5313 156
    endloop
  endfacet
  facet normal -0 0 1
    outer loop
      vertex -56.7075 30.3108 156
      vertex -11.024 5.89246 156
      vertex -53.4635 35.7232 156
    endloop
  endfacet
  facet normal 0 0 1
    outer loop
      vertex -5.89246 -11.024 156
      vertex -30.3108 -56.7075 156
      vertex -24.6065 -59.4055 156
    endloop
  endfacet
  facet normal 0 0 1
    outer loop
      vertex -11.024 5.89246 156
      vertex -56.7075 30.3108 156
      vertex -11.5485 4.78354 156
    endloop
  endfacet
  facet normal 0 0 1
    outer loop
      vertex -6.94463 -10.3934 156
      vertex -35.7232 -53.4635 156
      vertex -30.3108 -56.7075 156
    endloop
  endfacet
  facet normal -0 0 1
    outer loop
      vertex -59.4055 24.6065 156
      vertex -11.5485 4.78354 156
      vertex -56.7075 30.3108 156
    endloop
  endfacet
  facet normal 0 0 1
    outer loop
      vertex -7.92992 -9.66263 156
      vertex -40.7915 -49.7046 156
      vertex -35.7232 -53.4635 156
    endloop
  endfacet
  facet normal -0 0 1
    outer loop
      vertex -60 22.9449 156
      vertex -11.5485 4.78354 156
      vertex -59.4055 24.6065 156
    endloop
  endfacet
  facet normal 0 0 1
    outer loop
      vertex -8.83883 -8.83883 156
      vertex -45.467 -45.467 156
      vertex -40.7915 -49.7046 156
    endloop
  endfacet
  facet normal 0 0 1
    outer loop
      vertex -11.5485 4.78354 156
      vertex -60 22.9449 156
      vertex -11.9618 3.62856 156
    endloop
  endfacet
  facet normal 0 0 1
    outer loop
      vertex -9.66263 -7.92992 156
      vertex -49.7046 -40.7915 156
      vertex -45.467 -45.467 156
    endloop
  endfacet
  facet normal 0 0 1
    outer loop
      vertex -11.9618 3.62856 156
      vertex -60 22.9449 156
      vertex -12.2598 2.43863 156
    endloop
  endfacet
  facet normal 0 0 1
    outer loop
      vertex -10.3934 -6.94463 156
      vertex -53.4635 -35.7232 156
      vertex -49.7046 -40.7915 156
    endloop
  endfacet
  facet normal 0 0 1
    outer loop
      vertex -12.2598 2.43863 156
      vertex -60 22.9449 156
      vertex -12.4398 1.22521 156
    endloop
  endfacet
  facet normal 0 0 1
    outer loop
      vertex -11.024 -5.89246 156
      vertex -56.7075 -30.3108 156
      vertex -53.4635 -35.7232 156
    endloop
  endfacet
  facet normal 0 0 1
    outer loop
      vertex -12.4398 1.22521 156
      vertex -60 22.9449 156
      vertex -12.5 0 156
    endloop
  endfacet
  facet normal 0 0 1
    outer loop
      vertex -60 -22.9449 156
      vertex -12.5 0 156
      vertex -60 22.9449 156
    endloop
  endfacet
  facet normal 0 0 1
    outer loop
      vertex -11.5485 -4.78354 156
      vertex -60 -22.9449 156
      vertex -59.4055 -24.6065 156
    endloop
  endfacet
  facet normal 0 0 1
    outer loop
      vertex -11.5485 -4.78354 156
      vertex -59.4055 -24.6065 156
      vertex -56.7075 -30.3108 156
    endloop
  endfacet
  facet normal 0 0 1
    outer loop
      vertex 63.9904 6.3025 156
      vertex 63.9904 -6.3025 156
      vertex 64.3 0 156
    endloop
  endfacet
  facet normal 0 0 1
    outer loop
      vertex 63.0645 12.5443 156
      vertex 63.9904 -6.3025 156
      vertex 63.9904 6.3025 156
    endloop
  endfacet
  facet normal 0 0 1
    outer loop
      vertex 63.0645 12.5443 156
      vertex 63.0645 -12.5443 156
      vertex 63.9904 -6.3025 156
    endloop
  endfacet
  facet normal 0 0 1
    outer loop
      vertex 61.1026 19.8634 156
      vertex 63.0645 12.5443 156
      vertex 61.5313 18.6653 156
    endloop
  endfacet
  facet normal 0 0 1
    outer loop
      vertex 63.0645 12.5443 156
      vertex 61.1026 19.8634 156
      vertex 63.0645 -12.5443 156
    endloop
  endfacet
  facet normal 0 0 1
    outer loop
      vertex 61.1026 -19.8634 156
      vertex 63.0645 -12.5443 156
      vertex 61.1026 19.8634 156
    endloop
  endfacet
  facet normal 0 0 1
    outer loop
      vertex 63.0645 -12.5443 156
      vertex 61.1026 -19.8634 156
      vertex 61.5313 -18.6653 156
    endloop
  endfacet
  facet normal 0 0 -1
    outer loop
      vertex -120 -85 156
      vertex -60 -22.9449 156
      vertex -60 -85 156
    endloop
  endfacet
  facet normal -0 0 -1
    outer loop
      vertex -60 -22.9449 156
      vertex -120 -85 156
      vertex -61.5313 -18.6653 156
    endloop
  endfacet
  facet normal -0 0 -1
    outer loop
      vertex -61.5313 -18.6653 156
      vertex -120 -85 156
      vertex -63.0645 -12.5443 156
    endloop
  endfacet
  facet normal -0 0 -1
    outer loop
      vertex -63.9904 -6.3025 156
      vertex -120 -85 156
      vertex -64.3 0 156
    endloop
  endfacet
  facet normal -0 0 -1
    outer loop
      vertex -63.0645 -12.5443 156
      vertex -120 -85 156
      vertex -63.9904 -6.3025 156
    endloop
  endfacet
  facet normal 0 0 -1
    outer loop
      vertex -120 85 156
      vertex -60 22.9449 156
      vertex -61.5313 18.6653 156
    endloop
  endfacet
  facet normal 0 0 -1
    outer loop
      vertex -120 85 156
      vertex -61.5313 18.6653 156
      vertex -63.0645 12.5443 156
    endloop
  endfacet
  facet normal 0 0 -1
    outer loop
      vertex -120 85 156
      vertex -63.0645 12.5443 156
      vertex -63.9904 6.3025 156
    endloop
  endfacet
  facet normal 0 0 -1
    outer loop
      vertex -120 85 156
      vertex -64.3 0 156
      vertex -120 -85 156
    endloop
  endfacet
  facet normal 0 0 -1
    outer loop
      vertex -64.3 0 156
      vertex -120 85 156
      vertex -63.9904 6.3025 156
    endloop
  endfacet
  facet normal 0 0 -1
    outer loop
      vertex -60 22.9449 156
      vertex -120 85 156
      vertex -60 85 156
    endloop
  endfacet
  facet normal -0.989176 -0.146735 0
    outer loop
      vertex 12.4398 1.22521 130
      vertex 12.2598 2.43863 156
      vertex 12.2598 2.43863 130
    endloop
  endfacet
  facet normal -0.989176 -0.146735 0
    outer loop
      vertex 12.2598 2.43863 156
      vertex 12.4398 1.22521 130
      vertex 12.4398 1.22521 156
    endloop
  endfacet
  facet normal -0.998795 -0.0490752 0
    outer loop
      vertex 12.5 0 130
      vertex 12.4398 1.22521 156
      vertex 12.4398 1.22521 130
    endloop
  endfacet
  facet normal -0.998795 -0.0490752 0
    outer loop
      vertex 12.4398 1.22521 156
      vertex 12.5 0 130
      vertex 12.5 0 156
    endloop
  endfacet
  facet normal -0.970043 -0.242933 0
    outer loop
      vertex 12.2598 2.43863 130
      vertex 11.9618 3.62856 156
      vertex 11.9618 3.62856 130
    endloop
  endfacet
  facet normal -0.970043 -0.242933 0
    outer loop
      vertex 11.9618 3.62856 156
      vertex 12.2598 2.43863 130
      vertex 12.2598 2.43863 156
    endloop
  endfacet
  facet normal -0.857745 -0.514075 0
    outer loop
      vertex 11.024 5.89246 130
      vertex 10.3934 6.94463 156
      vertex 10.3934 6.94463 130
    endloop
  endfacet
  facet normal -0.857745 -0.514075 0
    outer loop
      vertex 10.3934 6.94463 156
      vertex 11.024 5.89246 130
      vertex 11.024 5.89246 156
    endloop
  endfacet
  facet normal -0.740946 -0.671564 0
    outer loop
      vertex 9.66263 7.92992 130
      vertex 8.83883 8.83883 156
      vertex 8.83883 8.83883 130
    endloop
  endfacet
  facet normal -0.740946 -0.671564 0
    outer loop
      vertex 8.83883 8.83883 156
      vertex 9.66263 7.92992 130
      vertex 9.66263 7.92992 156
    endloop
  endfacet
  facet normal 0.242933 -0.970043 0
    outer loop
      vertex -3.62856 11.9618 130
      vertex -2.43863 12.2598 156
      vertex -3.62856 11.9618 156
    endloop
  endfacet
  facet normal 0.242933 -0.970043 0
    outer loop
      vertex -2.43863 12.2598 156
      vertex -3.62856 11.9618 130
      vertex -2.43863 12.2598 130
    endloop
  endfacet
  facet normal 0.803196 -0.595715 0
    outer loop
      vertex -10.3934 6.94463 156
      vertex -9.66263 7.92992 130
      vertex -9.66263 7.92992 156
    endloop
  endfacet
  facet normal 0.803196 -0.595715 0
    outer loop
      vertex -9.66263 7.92992 130
      vertex -10.3934 6.94463 156
      vertex -10.3934 6.94463 130
    endloop
  endfacet
  facet normal 0 0 1
    outer loop
      vertex 12.4398 1.22521 130
      vertex 12.4398 -1.22521 130
      vertex 12.5 0 130
    endloop
  endfacet
  facet normal 0 0 1
    outer loop
      vertex 12.2598 2.43863 130
      vertex 12.4398 -1.22521 130
      vertex 12.4398 1.22521 130
    endloop
  endfacet
  facet normal 0 0 1
    outer loop
      vertex 12.2598 2.43863 130
      vertex 12.2598 -2.43863 130
      vertex 12.4398 -1.22521 130
    endloop
  endfacet
  facet normal 0 0 1
    outer loop
      vertex 11.9618 3.62856 130
      vertex 12.2598 -2.43863 130
      vertex 12.2598 2.43863 130
    endloop
  endfacet
  facet normal 0 0 1
    outer loop
      vertex 11.9618 3.62856 130
      vertex 11.9618 -3.62856 130
      vertex 12.2598 -2.43863 130
    endloop
  endfacet
  facet normal 0 0 1
    outer loop
      vertex 11.5485 4.78354 130
      vertex 11.9618 -3.62856 130
      vertex 11.9618 3.62856 130
    endloop
  endfacet
  facet normal 0 0 1
    outer loop
      vertex 11.5485 4.78354 130
      vertex 11.5485 -4.78354 130
      vertex 11.9618 -3.62856 130
    endloop
  endfacet
  facet normal 0 0 1
    outer loop
      vertex 11.024 5.89246 130
      vertex 11.5485 -4.78354 130
      vertex 11.5485 4.78354 130
    endloop
  endfacet
  facet normal 0 0 1
    outer loop
      vertex 11.024 5.89246 130
      vertex 11.024 -5.89246 130
      vertex 11.5485 -4.78354 130
    endloop
  endfacet
  facet normal 0 0 1
    outer loop
      vertex 10.3934 6.94463 130
      vertex 11.024 -5.89246 130
      vertex 11.024 5.89246 130
    endloop
  endfacet
  facet normal 0 0 1
    outer loop
      vertex 10.3934 6.94463 130
      vertex 10.3934 -6.94463 130
      vertex 11.024 -5.89246 130
    endloop
  endfacet
  facet normal 0 0 1
    outer loop
      vertex 9.66263 7.92992 130
      vertex 10.3934 -6.94463 130
      vertex 10.3934 6.94463 130
    endloop
  endfacet
  facet normal 0 0 1
    outer loop
      vertex 9.66263 7.92992 130
      vertex 9.66263 -7.92992 130
      vertex 10.3934 -6.94463 130
    endloop
  endfacet
  facet normal 0 0 1
    outer loop
      vertex 8.83883 8.83883 130
      vertex 9.66263 -7.92992 130
      vertex 9.66263 7.92992 130
    endloop
  endfacet
  facet normal 0 0 1
    outer loop
      vertex 8.83883 8.83883 130
      vertex 8.83883 -8.83883 130
      vertex 9.66263 -7.92992 130
    endloop
  endfacet
  facet normal 0 0 1
    outer loop
      vertex 7.92992 9.66263 130
      vertex 8.83883 -8.83883 130
      vertex 8.83883 8.83883 130
    endloop
  endfacet
  facet normal 0 0 1
    outer loop
      vertex 7.92992 9.66263 130
      vertex 7.92992 -9.66263 130
      vertex 8.83883 -8.83883 130
    endloop
  endfacet
  facet normal 0 0 1
    outer loop
      vertex 6.94463 10.3934 130
      vertex 7.92992 -9.66263 130
      vertex 7.92992 9.66263 130
    endloop
  endfacet
  facet normal 0 0 1
    outer loop
      vertex 6.94463 10.3934 130
      vertex 6.94463 -10.3934 130
      vertex 7.92992 -9.66263 130
    endloop
  endfacet
  facet normal 0 0 1
    outer loop
      vertex 5.89246 11.024 130
      vertex 6.94463 -10.3934 130
      vertex 6.94463 10.3934 130
    endloop
  endfacet
  facet normal 0 0 1
    outer loop
      vertex 5.89246 11.024 130
      vertex 5.89246 -11.024 130
      vertex 6.94463 -10.3934 130
    endloop
  endfacet
  facet normal 0 0 1
    outer loop
      vertex 4.78354 11.5485 130
      vertex 5.89246 -11.024 130
      vertex 5.89246 11.024 130
    endloop
  endfacet
  facet normal 0 0 1
    outer loop
      vertex 4.78354 11.5485 130
      vertex 4.78354 -11.5485 130
      vertex 5.89246 -11.024 130
    endloop
  endfacet
  facet normal 0 0 1
    outer loop
      vertex 3.62856 11.9618 130
      vertex 4.78354 -11.5485 130
      vertex 4.78354 11.5485 130
    endloop
  endfacet
  facet normal 0 0 1
    outer loop
      vertex 3.62856 11.9618 130
      vertex 3.62856 -11.9618 130
      vertex 4.78354 -11.5485 130
    endloop
  endfacet
  facet normal 0 0 1
    outer loop
      vertex 2.43863 12.2598 130
      vertex 3.62856 -11.9618 130
      vertex 3.62856 11.9618 130
    endloop
  endfacet
  facet normal 0 0 1
    outer loop
      vertex 2.43863 12.2598 130
      vertex 2.43863 -12.2598 130
      vertex 3.62856 -11.9618 130
    endloop
  endfacet
  facet normal 0 0 1
    outer loop
      vertex 1.22521 12.4398 130
      vertex 2.43863 -12.2598 130
      vertex 2.43863 12.2598 130
    endloop
  endfacet
  facet normal 0 0 1
    outer loop
      vertex 1.22521 12.4398 130
      vertex 1.22521 -12.4398 130
      vertex 2.43863 -12.2598 130
    endloop
  endfacet
  facet normal 0 0 1
    outer loop
      vertex 0 12.5 130
      vertex 1.22521 -12.4398 130
      vertex 1.22521 12.4398 130
    endloop
  endfacet
  facet normal 0 0 1
    outer loop
      vertex 0 12.5 130
      vertex 0 -12.5 130
      vertex 1.22521 -12.4398 130
    endloop
  endfacet
  facet normal -0 0 1
    outer loop
      vertex -1.22521 12.4398 130
      vertex 0 -12.5 130
      vertex 0 12.5 130
    endloop
  endfacet
  facet normal 0 0 1
    outer loop
      vertex -1.22521 12.4398 130
      vertex -1.22521 -12.4398 130
      vertex 0 -12.5 130
    endloop
  endfacet
  facet normal -0 0 1
    outer loop
      vertex -2.43863 12.2598 130
      vertex -1.22521 -12.4398 130
      vertex -1.22521 12.4398 130
    endloop
  endfacet
  facet normal 0 0 1
    outer loop
      vertex -2.43863 12.2598 130
      vertex -2.43863 -12.2598 130
      vertex -1.22521 -12.4398 130
    endloop
  endfacet
  facet normal -0 0 1
    outer loop
      vertex -3.62856 11.9618 130
      vertex -2.43863 -12.2598 130
      vertex -2.43863 12.2598 130
    endloop
  endfacet
  facet normal 0 0 1
    outer loop
      vertex -3.62856 11.9618 130
      vertex -3.62856 -11.9618 130
      vertex -2.43863 -12.2598 130
    endloop
  endfacet
  facet normal -0 0 1
    outer loop
      vertex -4.78354 11.5485 130
      vertex -3.62856 -11.9618 130
      vertex -3.62856 11.9618 130
    endloop
  endfacet
  facet normal 0 0 1
    outer loop
      vertex -4.78354 11.5485 130
      vertex -4.78354 -11.5485 130
      vertex -3.62856 -11.9618 130
    endloop
  endfacet
  facet normal -0 0 1
    outer loop
      vertex -5.89246 11.024 130
      vertex -4.78354 -11.5485 130
      vertex -4.78354 11.5485 130
    endloop
  endfacet
  facet normal 0 0 1
    outer loop
      vertex -5.89246 11.024 130
      vertex -5.89246 -11.024 130
      vertex -4.78354 -11.5485 130
    endloop
  endfacet
  facet normal -0 0 1
    outer loop
      vertex -6.94463 10.3934 130
      vertex -5.89246 -11.024 130
      vertex -5.89246 11.024 130
    endloop
  endfacet
  facet normal 0 0 1
    outer loop
      vertex -6.94463 10.3934 130
      vertex -6.94463 -10.3934 130
      vertex -5.89246 -11.024 130
    endloop
  endfacet
  facet normal -0 0 1
    outer loop
      vertex -7.92992 9.66263 130
      vertex -6.94463 -10.3934 130
      vertex -6.94463 10.3934 130
    endloop
  endfacet
  facet normal 0 0 1
    outer loop
      vertex -7.92992 9.66263 130
      vertex -7.92992 -9.66263 130
      vertex -6.94463 -10.3934 130
    endloop
  endfacet
  facet normal -0 0 1
    outer loop
      vertex -8.83883 8.83883 130
      vertex -7.92992 -9.66263 130
      vertex -7.92992 9.66263 130
    endloop
  endfacet
  facet normal 0 0 1
    outer loop
      vertex -8.83883 8.83883 130
      vertex -8.83883 -8.83883 130
      vertex -7.92992 -9.66263 130
    endloop
  endfacet
  facet normal -0 0 1
    outer loop
      vertex -9.66263 7.92992 130
      vertex -8.83883 -8.83883 130
      vertex -8.83883 8.83883 130
    endloop
  endfacet
  facet normal 0 0 1
    outer loop
      vertex -9.66263 7.92992 130
      vertex -9.66263 -7.92992 130
      vertex -8.83883 -8.83883 130
    endloop
  endfacet
  facet normal -0 0 1
    outer loop
      vertex -10.3934 6.94463 130
      vertex -9.66263 -7.92992 130
      vertex -9.66263 7.92992 130
    endloop
  endfacet
  facet normal 0 0 1
    outer loop
      vertex -10.3934 6.94463 130
      vertex -10.3934 -6.94463 130
      vertex -9.66263 -7.92992 130
    endloop
  endfacet
  facet normal -0 0 1
    outer loop
      vertex -11.024 5.89246 130
      vertex -10.3934 -6.94463 130
      vertex -10.3934 6.94463 130
    endloop
  endfacet
  facet normal 0 0 1
    outer loop
      vertex -11.024 5.89246 130
      vertex -11.024 -5.89246 130
      vertex -10.3934 -6.94463 130
    endloop
  endfacet
  facet normal -0 0 1
    outer loop
      vertex -11.5485 4.78354 130
      vertex -11.024 -5.89246 130
      vertex -11.024 5.89246 130
    endloop
  endfacet
  facet normal 0 0 1
    outer loop
      vertex -11.5485 4.78354 130
      vertex -11.5485 -4.78354 130
      vertex -11.024 -5.89246 130
    endloop
  endfacet
  facet normal -0 0 1
    outer loop
      vertex -11.9618 3.62856 130
      vertex -11.5485 -4.78354 130
      vertex -11.5485 4.78354 130
    endloop
  endfacet
  facet normal 0 0 1
    outer loop
      vertex -11.9618 3.62856 130
      vertex -11.9618 -3.62856 130
      vertex -11.5485 -4.78354 130
    endloop
  endfacet
  facet normal -0 0 1
    outer loop
      vertex -12.2598 2.43863 130
      vertex -11.9618 -3.62856 130
      vertex -11.9618 3.62856 130
    endloop
  endfacet
  facet normal 0 0 1
    outer loop
      vertex -12.2598 2.43863 130
      vertex -12.2598 -2.43863 130
      vertex -11.9618 -3.62856 130
    endloop
  endfacet
  facet normal -0 0 1
    outer loop
      vertex -12.4398 1.22521 130
      vertex -12.2598 -2.43863 130
      vertex -12.2598 2.43863 130
    endloop
  endfacet
  facet normal 0 0 1
    outer loop
      vertex -12.4398 1.22521 130
      vertex -12.4398 -1.22521 130
      vertex -12.2598 -2.43863 130
    endloop
  endfacet
  facet normal 0 -0 1
    outer loop
      vertex -12.4398 -1.22521 130
      vertex -12.4398 1.22521 130
      vertex -12.5 0 130
    endloop
  endfacet
  facet normal -0.970043 0.242933 0
    outer loop
      vertex 11.9618 -3.62856 130
      vertex 12.2598 -2.43863 156
      vertex 12.2598 -2.43863 130
    endloop
  endfacet
  facet normal -0.970043 0.242933 0
    outer loop
      vertex 12.2598 -2.43863 156
      vertex 11.9618 -3.62856 130
      vertex 11.9618 -3.62856 156
    endloop
  endfacet
  facet normal 0.514075 0.857745 -0
    outer loop
      vertex -5.89246 -11.024 130
      vertex -6.94463 -10.3934 156
      vertex -5.89246 -11.024 156
    endloop
  endfacet
  facet normal 0.514075 0.857745 0
    outer loop
      vertex -6.94463 -10.3934 156
      vertex -5.89246 -11.024 130
      vertex -6.94463 -10.3934 130
    endloop
  endfacet
  facet normal -0.671564 -0.740946 0
    outer loop
      vertex 7.92992 9.66263 130
      vertex 8.83883 8.83883 156
      vertex 7.92992 9.66263 156
    endloop
  endfacet
  facet normal -0.671564 -0.740946 -0
    outer loop
      vertex 8.83883 8.83883 156
      vertex 7.92992 9.66263 130
      vertex 8.83883 8.83883 130
    endloop
  endfacet
  facet normal -0.0490752 0.998795 0
    outer loop
      vertex 1.22521 -12.4398 130
      vertex 0 -12.5 156
      vertex 1.22521 -12.4398 156
    endloop
  endfacet
  facet normal -0.0490752 0.998795 0
    outer loop
      vertex 0 -12.5 156
      vertex 1.22521 -12.4398 130
      vertex 0 -12.5 130
    endloop
  endfacet
  facet normal 0.33692 -0.941533 0
    outer loop
      vertex -4.78354 11.5485 130
      vertex -3.62856 11.9618 156
      vertex -4.78354 11.5485 156
    endloop
  endfacet
  facet normal 0.33692 -0.941533 0
    outer loop
      vertex -3.62856 11.9618 156
      vertex -4.78354 11.5485 130
      vertex -3.62856 11.9618 130
    endloop
  endfacet
  facet normal -0.427568 -0.903983 0
    outer loop
      vertex 4.78354 11.5485 130
      vertex 5.89246 11.024 156
      vertex 4.78354 11.5485 156
    endloop
  endfacet
  facet normal -0.427568 -0.903983 -0
    outer loop
      vertex 5.89246 11.024 156
      vertex 4.78354 11.5485 130
      vertex 5.89246 11.024 130
    endloop
  endfacet
  facet normal 0.595715 -0.803196 0
    outer loop
      vertex -7.92992 9.66263 130
      vertex -6.94463 10.3934 156
      vertex -7.92992 9.66263 156
    endloop
  endfacet
  facet normal 0.595715 -0.803196 0
    outer loop
      vertex -6.94463 10.3934 156
      vertex -7.92992 9.66263 130
      vertex -6.94463 10.3934 130
    endloop
  endfacet
  facet normal -0.33692 -0.941533 0
    outer loop
      vertex 3.62856 11.9618 130
      vertex 4.78354 11.5485 156
      vertex 3.62856 11.9618 156
    endloop
  endfacet
  facet normal -0.33692 -0.941533 -0
    outer loop
      vertex 4.78354 11.5485 156
      vertex 3.62856 11.9618 130
      vertex 4.78354 11.5485 130
    endloop
  endfacet
  facet normal -0.242933 -0.970043 0
    outer loop
      vertex 2.43863 12.2598 130
      vertex 3.62856 11.9618 156
      vertex 2.43863 12.2598 156
    endloop
  endfacet
  facet normal -0.242933 -0.970043 -0
    outer loop
      vertex 3.62856 11.9618 156
      vertex 2.43863 12.2598 130
      vertex 3.62856 11.9618 130
    endloop
  endfacet
  facet normal -0.803196 -0.595715 0
    outer loop
      vertex 10.3934 6.94463 130
      vertex 9.66263 7.92992 156
      vertex 9.66263 7.92992 130
    endloop
  endfacet
  facet normal -0.803196 -0.595715 0
    outer loop
      vertex 9.66263 7.92992 156
      vertex 10.3934 6.94463 130
      vertex 10.3934 6.94463 156
    endloop
  endfacet
  facet normal -0.989176 0.146735 0
    outer loop
      vertex 12.2598 -2.43863 130
      vertex 12.4398 -1.22521 156
      vertex 12.4398 -1.22521 130
    endloop
  endfacet
  facet normal -0.989176 0.146735 0
    outer loop
      vertex 12.4398 -1.22521 156
      vertex 12.2598 -2.43863 130
      vertex 12.2598 -2.43863 156
    endloop
  endfacet
  facet normal 0.146735 0.989176 -0
    outer loop
      vertex -1.22521 -12.4398 130
      vertex -2.43863 -12.2598 156
      vertex -1.22521 -12.4398 156
    endloop
  endfacet
  facet normal 0.146735 0.989176 0
    outer loop
      vertex -2.43863 -12.2598 156
      vertex -1.22521 -12.4398 130
      vertex -2.43863 -12.2598 130
    endloop
  endfacet
  facet normal 0.998795 0.0490752 0
    outer loop
      vertex -12.4398 -1.22521 156
      vertex -12.5 0 130
      vertex -12.5 0 156
    endloop
  endfacet
  facet normal 0.998795 0.0490752 0
    outer loop
      vertex -12.5 0 130
      vertex -12.4398 -1.22521 156
      vertex -12.4398 -1.22521 130
    endloop
  endfacet
  facet normal -0.0490752 -0.998795 0
    outer loop
      vertex 0 12.5 130
      vertex 1.22521 12.4398 156
      vertex 0 12.5 156
    endloop
  endfacet
  facet normal -0.0490752 -0.998795 -0
    outer loop
      vertex 1.22521 12.4398 156
      vertex 0 12.5 130
      vertex 1.22521 12.4398 130
    endloop
  endfacet
  facet normal -0.595715 -0.803196 0
    outer loop
      vertex 6.94463 10.3934 130
      vertex 7.92992 9.66263 156
      vertex 6.94463 10.3934 156
    endloop
  endfacet
  facet normal -0.595715 -0.803196 -0
    outer loop
      vertex 7.92992 9.66263 156
      vertex 6.94463 10.3934 130
      vertex 7.92992 9.66263 130
    endloop
  endfacet
  facet normal 0.941533 -0.33692 0
    outer loop
      vertex -11.9618 3.62856 156
      vertex -11.5485 4.78354 130
      vertex -11.5485 4.78354 156
    endloop
  endfacet
  facet normal 0.941533 -0.33692 0
    outer loop
      vertex -11.5485 4.78354 130
      vertex -11.9618 3.62856 156
      vertex -11.9618 3.62856 130
    endloop
  endfacet
  facet normal -0.514075 0.857745 0
    outer loop
      vertex 6.94463 -10.3934 130
      vertex 5.89246 -11.024 156
      vertex 6.94463 -10.3934 156
    endloop
  endfacet
  facet normal -0.514075 0.857745 0
    outer loop
      vertex 5.89246 -11.024 156
      vertex 6.94463 -10.3934 130
      vertex 5.89246 -11.024 130
    endloop
  endfacet
  facet normal 0.970043 -0.242933 0
    outer loop
      vertex -12.2598 2.43863 156
      vertex -11.9618 3.62856 130
      vertex -11.9618 3.62856 156
    endloop
  endfacet
  facet normal 0.970043 -0.242933 0
    outer loop
      vertex -11.9618 3.62856 130
      vertex -12.2598 2.43863 156
      vertex -12.2598 2.43863 130
    endloop
  endfacet
  facet normal 0.671564 -0.740946 0
    outer loop
      vertex -8.83883 8.83883 130
      vertex -7.92992 9.66263 156
      vertex -8.83883 8.83883 156
    endloop
  endfacet
  facet normal 0.671564 -0.740946 0
    outer loop
      vertex -7.92992 9.66263 156
      vertex -8.83883 8.83883 130
      vertex -7.92992 9.66263 130
    endloop
  endfacet
  facet normal 0.941533 0.33692 0
    outer loop
      vertex -11.5485 -4.78354 156
      vertex -11.9618 -3.62856 130
      vertex -11.9618 -3.62856 156
    endloop
  endfacet
  facet normal 0.941533 0.33692 0
    outer loop
      vertex -11.9618 -3.62856 130
      vertex -11.5485 -4.78354 156
      vertex -11.5485 -4.78354 130
    endloop
  endfacet
  facet normal 0.857745 -0.514075 0
    outer loop
      vertex -11.024 5.89246 156
      vertex -10.3934 6.94463 130
      vertex -10.3934 6.94463 156
    endloop
  endfacet
  facet normal 0.857745 -0.514075 0
    outer loop
      vertex -10.3934 6.94463 130
      vertex -11.024 5.89246 156
      vertex -11.024 5.89246 130
    endloop
  endfacet
  facet normal -0.903983 0.427568 0
    outer loop
      vertex 11.024 -5.89246 130
      vertex 11.5485 -4.78354 156
      vertex 11.5485 -4.78354 130
    endloop
  endfacet
  facet normal -0.903983 0.427568 0
    outer loop
      vertex 11.5485 -4.78354 156
      vertex 11.024 -5.89246 130
      vertex 11.024 -5.89246 156
    endloop
  endfacet
  facet normal 0.33692 0.941533 -0
    outer loop
      vertex -3.62856 -11.9618 130
      vertex -4.78354 -11.5485 156
      vertex -3.62856 -11.9618 156
    endloop
  endfacet
  facet normal 0.33692 0.941533 0
    outer loop
      vertex -4.78354 -11.5485 156
      vertex -3.62856 -11.9618 130
      vertex -4.78354 -11.5485 130
    endloop
  endfacet
  facet normal -0.427568 0.903983 0
    outer loop
      vertex 5.89246 -11.024 130
      vertex 4.78354 -11.5485 156
      vertex 5.89246 -11.024 156
    endloop
  endfacet
  facet normal -0.427568 0.903983 0
    outer loop
      vertex 4.78354 -11.5485 156
      vertex 5.89246 -11.024 130
      vertex 4.78354 -11.5485 130
    endloop
  endfacet
  facet normal -0.146735 -0.989176 0
    outer loop
      vertex 1.22521 12.4398 130
      vertex 2.43863 12.2598 156
      vertex 1.22521 12.4398 156
    endloop
  endfacet
  facet normal -0.146735 -0.989176 -0
    outer loop
      vertex 2.43863 12.2598 156
      vertex 1.22521 12.4398 130
      vertex 2.43863 12.2598 130
    endloop
  endfacet
  facet normal -0.998795 0.0490752 0
    outer loop
      vertex 12.4398 -1.22521 130
      vertex 12.5 0 156
      vertex 12.5 0 130
    endloop
  endfacet
  facet normal -0.998795 0.0490752 0
    outer loop
      vertex 12.5 0 156
      vertex 12.4398 -1.22521 130
      vertex 12.4398 -1.22521 156
    endloop
  endfacet
  facet normal -0.146735 0.989176 0
    outer loop
      vertex 2.43863 -12.2598 130
      vertex 1.22521 -12.4398 156
      vertex 2.43863 -12.2598 156
    endloop
  endfacet
  facet normal -0.146735 0.989176 0
    outer loop
      vertex 1.22521 -12.4398 156
      vertex 2.43863 -12.2598 130
      vertex 1.22521 -12.4398 130
    endloop
  endfacet
  facet normal 0.242933 0.970043 -0
    outer loop
      vertex -2.43863 -12.2598 130
      vertex -3.62856 -11.9618 156
      vertex -2.43863 -12.2598 156
    endloop
  endfacet
  facet normal 0.242933 0.970043 0
    outer loop
      vertex -3.62856 -11.9618 156
      vertex -2.43863 -12.2598 130
      vertex -3.62856 -11.9618 130
    endloop
  endfacet
  facet normal -0.857745 0.514075 0
    outer loop
      vertex 10.3934 -6.94463 130
      vertex 11.024 -5.89246 156
      vertex 11.024 -5.89246 130
    endloop
  endfacet
  facet normal -0.857745 0.514075 0
    outer loop
      vertex 11.024 -5.89246 156
      vertex 10.3934 -6.94463 130
      vertex 10.3934 -6.94463 156
    endloop
  endfacet
  facet normal 0.740946 -0.671564 0
    outer loop
      vertex -9.66263 7.92992 156
      vertex -8.83883 8.83883 130
      vertex -8.83883 8.83883 156
    endloop
  endfacet
  facet normal 0.740946 -0.671564 0
    outer loop
      vertex -8.83883 8.83883 130
      vertex -9.66263 7.92992 156
      vertex -9.66263 7.92992 130
    endloop
  endfacet
  facet normal -0.941533 0.33692 0
    outer loop
      vertex 11.5485 -4.78354 130
      vertex 11.9618 -3.62856 156
      vertex 11.9618 -3.62856 130
    endloop
  endfacet
  facet normal -0.941533 0.33692 0
    outer loop
      vertex 11.9618 -3.62856 156
      vertex 11.5485 -4.78354 130
      vertex 11.5485 -4.78354 156
    endloop
  endfacet
  facet normal -0.941533 -0.33692 0
    outer loop
      vertex 11.9618 3.62856 130
      vertex 11.5485 4.78354 156
      vertex 11.5485 4.78354 130
    endloop
  endfacet
  facet normal -0.941533 -0.33692 0
    outer loop
      vertex 11.5485 4.78354 156
      vertex 11.9618 3.62856 130
      vertex 11.9618 3.62856 156
    endloop
  endfacet
  facet normal -0.514075 -0.857745 0
    outer loop
      vertex 5.89246 11.024 130
      vertex 6.94463 10.3934 156
      vertex 5.89246 11.024 156
    endloop
  endfacet
  facet normal -0.514075 -0.857745 -0
    outer loop
      vertex 6.94463 10.3934 156
      vertex 5.89246 11.024 130
      vertex 6.94463 10.3934 130
    endloop
  endfacet
  facet normal 0.970043 0.242933 0
    outer loop
      vertex -11.9618 -3.62856 156
      vertex -12.2598 -2.43863 130
      vertex -12.2598 -2.43863 156
    endloop
  endfacet
  facet normal 0.970043 0.242933 0
    outer loop
      vertex -12.2598 -2.43863 130
      vertex -11.9618 -3.62856 156
      vertex -11.9618 -3.62856 130
    endloop
  endfacet
  facet normal 0.514075 -0.857745 0
    outer loop
      vertex -6.94463 10.3934 130
      vertex -5.89246 11.024 156
      vertex -6.94463 10.3934 156
    endloop
  endfacet
  facet normal 0.514075 -0.857745 0
    outer loop
      vertex -5.89246 11.024 156
      vertex -6.94463 10.3934 130
      vertex -5.89246 11.024 130
    endloop
  endfacet
  facet normal -0.740946 0.671564 0
    outer loop
      vertex 8.83883 -8.83883 130
      vertex 9.66263 -7.92992 156
      vertex 9.66263 -7.92992 130
    endloop
  endfacet
  facet normal -0.740946 0.671564 0
    outer loop
      vertex 9.66263 -7.92992 156
      vertex 8.83883 -8.83883 130
      vertex 8.83883 -8.83883 156
    endloop
  endfacet
  facet normal 0.671564 0.740946 -0
    outer loop
      vertex -7.92992 -9.66263 130
      vertex -8.83883 -8.83883 156
      vertex -7.92992 -9.66263 156
    endloop
  endfacet
  facet normal 0.671564 0.740946 0
    outer loop
      vertex -8.83883 -8.83883 156
      vertex -7.92992 -9.66263 130
      vertex -8.83883 -8.83883 130
    endloop
  endfacet
  facet normal 0.989176 -0.146735 0
    outer loop
      vertex -12.4398 1.22521 156
      vertex -12.2598 2.43863 130
      vertex -12.2598 2.43863 156
    endloop
  endfacet
  facet normal 0.989176 -0.146735 0
    outer loop
      vertex -12.2598 2.43863 130
      vertex -12.4398 1.22521 156
      vertex -12.4398 1.22521 130
    endloop
  endfacet
  facet normal -0.903983 -0.427568 0
    outer loop
      vertex 11.5485 4.78354 130
      vertex 11.024 5.89246 156
      vertex 11.024 5.89246 130
    endloop
  endfacet
  facet normal -0.903983 -0.427568 0
    outer loop
      vertex 11.024 5.89246 156
      vertex 11.5485 4.78354 130
      vertex 11.5485 4.78354 156
    endloop
  endfacet
  facet normal 0.427568 -0.903983 0
    outer loop
      vertex -5.89246 11.024 130
      vertex -4.78354 11.5485 156
      vertex -5.89246 11.024 156
    endloop
  endfacet
  facet normal 0.427568 -0.903983 0
    outer loop
      vertex -4.78354 11.5485 156
      vertex -5.89246 11.024 130
      vertex -4.78354 11.5485 130
    endloop
  endfacet
  facet normal -0.803196 0.595715 0
    outer loop
      vertex 9.66263 -7.92992 130
      vertex 10.3934 -6.94463 156
      vertex 10.3934 -6.94463 130
    endloop
  endfacet
  facet normal -0.803196 0.595715 0
    outer loop
      vertex 10.3934 -6.94463 156
      vertex 9.66263 -7.92992 130
      vertex 9.66263 -7.92992 156
    endloop
  endfacet
  facet normal 0.857745 0.514075 0
    outer loop
      vertex -10.3934 -6.94463 156
      vertex -11.024 -5.89246 130
      vertex -11.024 -5.89246 156
    endloop
  endfacet
  facet normal 0.857745 0.514075 0
    outer loop
      vertex -11.024 -5.89246 130
      vertex -10.3934 -6.94463 156
      vertex -10.3934 -6.94463 130
    endloop
  endfacet
  facet normal 0.803196 0.595715 0
    outer loop
      vertex -9.66263 -7.92992 156
      vertex -10.3934 -6.94463 130
      vertex -10.3934 -6.94463 156
    endloop
  endfacet
  facet normal 0.803196 0.595715 0
    outer loop
      vertex -10.3934 -6.94463 130
      vertex -9.66263 -7.92992 156
      vertex -9.66263 -7.92992 130
    endloop
  endfacet
  facet normal 0.903983 -0.427568 0
    outer loop
      vertex -11.5485 4.78354 156
      vertex -11.024 5.89246 130
      vertex -11.024 5.89246 156
    endloop
  endfacet
  facet normal 0.903983 -0.427568 0
    outer loop
      vertex -11.024 5.89246 130
      vertex -11.5485 4.78354 156
      vertex -11.5485 4.78354 130
    endloop
  endfacet
  facet normal 0.0490752 -0.998795 0
    outer loop
      vertex -1.22521 12.4398 130
      vertex 0 12.5 156
      vertex -1.22521 12.4398 156
    endloop
  endfacet
  facet normal 0.0490752 -0.998795 0
    outer loop
      vertex 0 12.5 156
      vertex -1.22521 12.4398 130
      vertex 0 12.5 130
    endloop
  endfacet
  facet normal 0.427568 0.903983 -0
    outer loop
      vertex -4.78354 -11.5485 130
      vertex -5.89246 -11.024 156
      vertex -4.78354 -11.5485 156
    endloop
  endfacet
  facet normal 0.427568 0.903983 0
    outer loop
      vertex -5.89246 -11.024 156
      vertex -4.78354 -11.5485 130
      vertex -5.89246 -11.024 130
    endloop
  endfacet
  facet normal -0.595715 0.803196 0
    outer loop
      vertex 7.92992 -9.66263 130
      vertex 6.94463 -10.3934 156
      vertex 7.92992 -9.66263 156
    endloop
  endfacet
  facet normal -0.595715 0.803196 0
    outer loop
      vertex 6.94463 -10.3934 156
      vertex 7.92992 -9.66263 130
      vertex 6.94463 -10.3934 130
    endloop
  endfacet
  facet normal 0.146735 -0.989176 0
    outer loop
      vertex -2.43863 12.2598 130
      vertex -1.22521 12.4398 156
      vertex -2.43863 12.2598 156
    endloop
  endfacet
  facet normal 0.146735 -0.989176 0
    outer loop
      vertex -1.22521 12.4398 156
      vertex -2.43863 12.2598 130
      vertex -1.22521 12.4398 130
    endloop
  endfacet
  facet normal 0.989176 0.146735 0
    outer loop
      vertex -12.2598 -2.43863 156
      vertex -12.4398 -1.22521 130
      vertex -12.4398 -1.22521 156
    endloop
  endfacet
  facet normal 0.989176 0.146735 0
    outer loop
      vertex -12.4398 -1.22521 130
      vertex -12.2598 -2.43863 156
      vertex -12.2598 -2.43863 130
    endloop
  endfacet
  facet normal -0.33692 0.941533 0
    outer loop
      vertex 4.78354 -11.5485 130
      vertex 3.62856 -11.9618 156
      vertex 4.78354 -11.5485 156
    endloop
  endfacet
  facet normal -0.33692 0.941533 0
    outer loop
      vertex 3.62856 -11.9618 156
      vertex 4.78354 -11.5485 130
      vertex 3.62856 -11.9618 130
    endloop
  endfacet
  facet normal -0.242933 0.970043 0
    outer loop
      vertex 3.62856 -11.9618 130
      vertex 2.43863 -12.2598 156
      vertex 3.62856 -11.9618 156
    endloop
  endfacet
  facet normal -0.242933 0.970043 0
    outer loop
      vertex 2.43863 -12.2598 156
      vertex 3.62856 -11.9618 130
      vertex 2.43863 -12.2598 130
    endloop
  endfacet
  facet normal 0.903983 0.427568 0
    outer loop
      vertex -11.024 -5.89246 156
      vertex -11.5485 -4.78354 130
      vertex -11.5485 -4.78354 156
    endloop
  endfacet
  facet normal 0.903983 0.427568 0
    outer loop
      vertex -11.5485 -4.78354 130
      vertex -11.024 -5.89246 156
      vertex -11.024 -5.89246 130
    endloop
  endfacet
  facet normal 0.740946 0.671564 0
    outer loop
      vertex -8.83883 -8.83883 156
      vertex -9.66263 -7.92992 130
      vertex -9.66263 -7.92992 156
    endloop
  endfacet
  facet normal 0.740946 0.671564 0
    outer loop
      vertex -9.66263 -7.92992 130
      vertex -8.83883 -8.83883 156
      vertex -8.83883 -8.83883 130
    endloop
  endfacet
  facet normal 0.595715 0.803196 -0
    outer loop
      vertex -6.94463 -10.3934 130
      vertex -7.92992 -9.66263 156
      vertex -6.94463 -10.3934 156
    endloop
  endfacet
  facet normal 0.595715 0.803196 0
    outer loop
      vertex -7.92992 -9.66263 156
      vertex -6.94463 -10.3934 130
      vertex -7.92992 -9.66263 130
    endloop
  endfacet
  facet normal 0.0490752 0.998795 -0
    outer loop
      vertex 0 -12.5 130
      vertex -1.22521 -12.4398 156
      vertex 0 -12.5 156
    endloop
  endfacet
  facet normal 0.0490752 0.998795 0
    outer loop
      vertex -1.22521 -12.4398 156
      vertex 0 -12.5 130
      vertex -1.22521 -12.4398 130
    endloop
  endfacet
  facet normal 0.998795 -0.0490752 0
    outer loop
      vertex -12.5 0 156
      vertex -12.4398 1.22521 130
      vertex -12.4398 1.22521 156
    endloop
  endfacet
  facet normal 0.998795 -0.0490752 0
    outer loop
      vertex -12.4398 1.22521 130
      vertex -12.5 0 156
      vertex -12.5 0 130
    endloop
  endfacet
  facet normal -0.671564 0.740946 0
    outer loop
      vertex 8.83883 -8.83883 130
      vertex 7.92992 -9.66263 156
      vertex 8.83883 -8.83883 156
    endloop
  endfacet
  facet normal -0.671564 0.740946 0
    outer loop
      vertex 7.92992 -9.66263 156
      vertex 8.83883 -8.83883 130
      vertex 7.92992 -9.66263 130
    endloop
  endfacet
  facet normal -0.29784 0 -0.954616
    outer loop
      vertex 120 -27.26 137.624
      vertex 61.1026 -19.8634 156
      vertex 120 27.26 137.624
    endloop
  endfacet
  facet normal -0.297766 0.000651205 -0.954639
    outer loop
      vertex 61.1026 -19.8634 156
      vertex 120 -27.26 137.624
      vertex 60.9897 -20.1788 156.035
    endloop
  endfacet
  facet normal -0.29784 -0 -0.954616
    outer loop
      vertex 61.1026 19.8634 156
      vertex 120 27.26 137.624
      vertex 61.1026 -19.8634 156
    endloop
  endfacet
  facet normal -0.297766 -0.000651205 -0.954639
    outer loop
      vertex 120 27.26 137.624
      vertex 61.1026 19.8634 156
      vertex 60.9897 20.1788 156.035
    endloop
  endfacet
  facet normal 0 -0.933345 -0.358979
    outer loop
      vertex 119 27.5 137
      vertex 60.9849 20.1923 156
      vertex 22.0513 20.1923 156
    endloop
  endfacet
  facet normal 8.11584e-08 -0.933346 -0.358979
    outer loop
      vertex 60.9849 20.1923 156
      vertex 119 27.5 137
      vertex 120 27.26 137.624
    endloop
  endfacet
  facet normal 0 -0.933346 -0.358979
    outer loop
      vertex 120 27.26 137.624
      vertex 119 27.5 137
      vertex 120 27.5 137
    endloop
  endfacet
  facet normal -0.000306062 -0.933016 -0.359836
    outer loop
      vertex 60.9897 20.1788 156.035
      vertex 60.9849 20.1923 156
      vertex 120 27.26 137.624
    endloop
  endfacet
  facet normal 0 -1 0
    outer loop
      vertex 119 27.5 92
      vertex 120 27.5 137
      vertex 119 27.5 137
    endloop
  endfacet
  facet normal 0 -1 -0
    outer loop
      vertex 120 27.5 137
      vertex 119 27.5 92
      vertex 120 27.5 92
    endloop
  endfacet
  facet normal -0 0 1
    outer loop
      vertex 119 27.5 92
      vertex 120 -27.5 92
      vertex 120 27.5 92
    endloop
  endfacet
  facet normal 0 0 1
    outer loop
      vertex 120 -27.5 92
      vertex 119 27.5 92
      vertex 119 -27.5 92
    endloop
  endfacet
  facet normal 0 1 -0
    outer loop
      vertex 120 -27.5 92
      vertex 119 -27.5 137
      vertex 120 -27.5 137
    endloop
  endfacet
  facet normal 0 1 0
    outer loop
      vertex 119 -27.5 137
      vertex 120 -27.5 92
      vertex 119 -27.5 92
    endloop
  endfacet
  facet normal 1 -0 0
    outer loop
      vertex 19.5 -20 156
      vertex 19.5 20 155.5
      vertex 19.5 20 156
    endloop
  endfacet
  facet normal 1 0 0
    outer loop
      vertex 19.5 20 155.5
      vertex 19.5 -20 156
      vertex 19.5 -20 155.5
    endloop
  endfacet
  facet normal 0.537971 0 0.842963
    outer loop
      vertex 19.5 20 155.5
      vertex 119 -27.5 92
      vertex 119 27.5 92
    endloop
  endfacet
  facet normal 0.537971 0 0.842963
    outer loop
      vertex 119 -27.5 92
      vertex 19.5 20 155.5
      vertex 19.5 -20 155.5
    endloop
  endfacet
  facet normal 0.0751601 -0.997171 0
    outer loop
      vertex 19.5 20 155.5
      vertex 22.0513 20.1923 156
      vertex 19.5 20 156
    endloop
  endfacet
  facet normal 0.075161 -0.997171 -4.23812e-06
    outer loop
      vertex 119 27.5 92
      vertex 22.0513 20.1923 156
      vertex 19.5 20 155.5
    endloop
  endfacet
  facet normal 0.0751638 -0.997171 0
    outer loop
      vertex 22.0513 20.1923 156
      vertex 119 27.5 92
      vertex 119 27.5 137
    endloop
  endfacet
  facet normal 4.86668e-07 0.933345 -0.35898
    outer loop
      vertex 119 -27.5 137
      vertex 60.9897 -20.1788 156.035
      vertex 120 -27.26 137.624
    endloop
  endfacet
  facet normal -0.000321233 0.933016 -0.359834
    outer loop
      vertex 60.9897 -20.1788 156.035
      vertex 119 -27.5 137
      vertex 60.9849 -20.1923 156
    endloop
  endfacet
  facet normal 0 0.933346 -0.358979
    outer loop
      vertex 119 -27.5 137
      vertex 120 -27.26 137.624
      vertex 120 -27.5 137
    endloop
  endfacet
  facet normal 0 0.933345 -0.358979
    outer loop
      vertex 60.9849 -20.1923 156
      vertex 119 -27.5 137
      vertex 22.0513 -20.1923 156
    endloop
  endfacet
  facet normal 0.0751601 0.997171 0
    outer loop
      vertex 22.0513 -20.1923 156
      vertex 19.5 -20 155.5
      vertex 19.5 -20 156
    endloop
  endfacet
  facet normal 0.0751638 0.997171 -0
    outer loop
      vertex 119 -27.5 92
      vertex 22.0513 -20.1923 156
      vertex 119 -27.5 137
    endloop
  endfacet
  facet normal 0.075161 0.997171 -4.23812e-06
    outer loop
      vertex 22.0513 -20.1923 156
      vertex 119 -27.5 92
      vertex 19.5 -20 155.5
    endloop
  endfacet
  facet normal -1 0 0
    outer loop
      vertex -60 85 76
      vertex -60 22.9449 156
      vertex -60 85 156
    endloop
  endfacet
  facet normal -1 0 0
    outer loop
      vertex -60 85 76
      vertex -60 -22.9449 156
      vertex -60 22.9449 156
    endloop
  endfacet
  facet normal -1 0 0
    outer loop
      vertex -60 -85 76
      vertex -60 -22.9449 156
      vertex -60 85 76
    endloop
  endfacet
  facet normal -1 -0 0
    outer loop
      vertex -60 -22.9449 156
      vertex -60 -85 76
      vertex -60 -85 156
    endloop
  endfacet
  facet normal -0 0 1
    outer loop
      vertex -120 85 76
      vertex -60 -85 76
      vertex -60 85 76
    endloop
  endfacet
  facet normal 0 0 1
    outer loop
      vertex -60 -85 76
      vertex -120 85 76
      vertex -120 -85 76
    endloop
  endfacet
  facet normal 0 -1 0
    outer loop
      vertex -120 85 76
      vertex -60 85 156
      vertex -120 85 156
    endloop
  endfacet
  facet normal 0 -1 -0
    outer loop
      vertex -60 85 156
      vertex -120 85 76
      vertex -60 85 76
    endloop
  endfacet
  facet normal 0 1 -0
    outer loop
      vertex -60 -85 76
      vertex -120 -85 156
      vertex -60 -85 156
    endloop
  endfacet
  facet normal 0 1 0
    outer loop
      vertex -120 -85 156
      vertex -60 -85 76
      vertex -120 -85 76
    endloop
  endfacet
endsolid OpenSCAD_Model
